<?xml version="1.0" encoding="UTF-8" standalone="no"?>
<!DOCTYPE svg PUBLIC "-//W3C//DTD SVG 1.1//EN"
 "http://www.w3.org/Graphics/SVG/1.1/DTD/svg11.dtd">
<!-- Generated by graphviz version 2.40.1 (0)
 -->
<!-- Title: snakemake_dag Pages: 1 -->
<svg width="1784pt" height="908pt"
 viewBox="0.00 0.00 1783.97 908.00" xmlns="http://www.w3.org/2000/svg" xmlns:xlink="http://www.w3.org/1999/xlink">
<g id="graph0" class="graph" transform="scale(1 1) rotate(0) translate(4 904)">
<title>snakemake_dag</title>
<polygon fill="#ffffff" stroke="transparent" points="-4,4 -4,-904 1779.9721,-904 1779.9721,4 -4,4"/>
<!-- 0 -->
<g id="node1" class="node">
<title>0</title>
<path fill="none" stroke="#56d863" stroke-width="2" d="M855.9721,-36C855.9721,-36 825.9721,-36 825.9721,-36 819.9721,-36 813.9721,-30 813.9721,-24 813.9721,-24 813.9721,-12 813.9721,-12 813.9721,-6 819.9721,0 825.9721,0 825.9721,0 855.9721,0 855.9721,0 861.9721,0 867.9721,-6 867.9721,-12 867.9721,-12 867.9721,-24 867.9721,-24 867.9721,-30 861.9721,-36 855.9721,-36"/>
<text text-anchor="middle" x="840.9721" y="-15.5" font-family="sans" font-size="10.00" fill="#000000">all</text>
</g>
<!-- 1 -->
<g id="node2" class="node">
<title>1</title>
<path fill="none" stroke="#56b9d8" stroke-width="2" d="M971.9721,-180C971.9721,-180 907.9721,-180 907.9721,-180 901.9721,-180 895.9721,-174 895.9721,-168 895.9721,-168 895.9721,-156 895.9721,-156 895.9721,-150 901.9721,-144 907.9721,-144 907.9721,-144 971.9721,-144 971.9721,-144 977.9721,-144 983.9721,-150 983.9721,-156 983.9721,-156 983.9721,-168 983.9721,-168 983.9721,-174 977.9721,-180 971.9721,-180"/>
<text text-anchor="middle" x="939.9721" y="-159.5" font-family="sans" font-size="10.00" fill="#000000">plotASVLength</text>
</g>
<!-- 1&#45;&gt;0 -->
<g id="edge19" class="edge">
<title>1&#45;&gt;0</title>
<path fill="none" stroke="#c0c0c0" stroke-width="2" d="M928.818,-143.8011C917.4239,-125.4276 899.0328,-96.3619 881.9721,-72 875.5248,-62.7936 868.1832,-52.9425 861.5112,-44.2084"/>
<polygon fill="#c0c0c0" stroke="#c0c0c0" stroke-width="2" points="864.2451,-42.0219 855.3707,-36.2343 858.6989,-46.2928 864.2451,-42.0219"/>
</g>
<!-- 26 -->
<g id="node27" class="node">
<title>26</title>
<path fill="none" stroke="#d6d856" stroke-width="2" d="M1068.9721,-108C1068.9721,-108 1030.9721,-108 1030.9721,-108 1024.9721,-108 1018.9721,-102 1018.9721,-96 1018.9721,-96 1018.9721,-84 1018.9721,-84 1018.9721,-78 1024.9721,-72 1030.9721,-72 1030.9721,-72 1068.9721,-72 1068.9721,-72 1074.9721,-72 1080.9721,-78 1080.9721,-84 1080.9721,-84 1080.9721,-96 1080.9721,-96 1080.9721,-102 1074.9721,-108 1068.9721,-108"/>
<text text-anchor="middle" x="1049.9721" y="-87.5" font-family="sans" font-size="10.00" fill="#000000">qc_report</text>
</g>
<!-- 1&#45;&gt;26 -->
<g id="edge49" class="edge">
<title>1&#45;&gt;26</title>
<path fill="none" stroke="#c0c0c0" stroke-width="2" d="M967.7298,-143.8314C981.6692,-134.7074 998.7319,-123.539 1013.6953,-113.7449"/>
<polygon fill="#c0c0c0" stroke="#c0c0c0" stroke-width="2" points="1015.7731,-116.5679 1022.2234,-108.1628 1011.9395,-110.711 1015.7731,-116.5679"/>
</g>
<!-- 2 -->
<g id="node3" class="node">
<title>2</title>
<path fill="none" stroke="#5663d8" stroke-width="2" d="M987.4721,-468C987.4721,-468 910.4721,-468 910.4721,-468 904.4721,-468 898.4721,-462 898.4721,-456 898.4721,-456 898.4721,-444 898.4721,-444 898.4721,-438 904.4721,-432 910.4721,-432 910.4721,-432 987.4721,-432 987.4721,-432 993.4721,-432 999.4721,-438 999.4721,-444 999.4721,-444 999.4721,-456 999.4721,-456 999.4721,-462 993.4721,-468 987.4721,-468"/>
<text text-anchor="middle" x="948.9721" y="-447.5" font-family="sans" font-size="10.00" fill="#000000">removeChimeras</text>
</g>
<!-- 2&#45;&gt;1 -->
<g id="edge21" class="edge">
<title>2&#45;&gt;1</title>
<path fill="none" stroke="#c0c0c0" stroke-width="2" d="M966.6829,-431.6517C974.8663,-421.8946 983.7025,-409.2041 987.9721,-396 1012.5857,-319.8805 1016.4026,-290.7777 987.9721,-216 983.9449,-205.4076 976.7821,-195.5662 969.1984,-187.2649"/>
<polygon fill="#c0c0c0" stroke="#c0c0c0" stroke-width="2" points="971.6859,-184.8025 962.1934,-180.0968 966.6795,-189.695 971.6859,-184.8025"/>
</g>
<!-- 12 -->
<g id="node13" class="node">
<title>12</title>
<path fill="none" stroke="#8fd856" stroke-width="2" d="M966.4721,-396C966.4721,-396 931.4721,-396 931.4721,-396 925.4721,-396 919.4721,-390 919.4721,-384 919.4721,-384 919.4721,-372 919.4721,-372 919.4721,-366 925.4721,-360 931.4721,-360 931.4721,-360 966.4721,-360 966.4721,-360 972.4721,-360 978.4721,-366 978.4721,-372 978.4721,-372 978.4721,-384 978.4721,-384 978.4721,-390 972.4721,-396 966.4721,-396"/>
<text text-anchor="middle" x="948.9721" y="-375.5" font-family="sans" font-size="10.00" fill="#000000">RDPtaxa</text>
</g>
<!-- 2&#45;&gt;12 -->
<g id="edge31" class="edge">
<title>2&#45;&gt;12</title>
<path fill="none" stroke="#c0c0c0" stroke-width="2" d="M948.9721,-431.8314C948.9721,-424.131 948.9721,-414.9743 948.9721,-406.4166"/>
<polygon fill="#c0c0c0" stroke="#c0c0c0" stroke-width="2" points="952.4722,-406.4132 948.9721,-396.4133 945.4722,-406.4133 952.4722,-406.4132"/>
</g>
<!-- 13 -->
<g id="node14" class="node">
<title>13</title>
<path fill="none" stroke="#bed856" stroke-width="2" d="M748.9721,-396C748.9721,-396 690.9721,-396 690.9721,-396 684.9721,-396 678.9721,-390 678.9721,-384 678.9721,-384 678.9721,-372 678.9721,-372 678.9721,-366 684.9721,-360 690.9721,-360 690.9721,-360 748.9721,-360 748.9721,-360 754.9721,-360 760.9721,-366 760.9721,-372 760.9721,-372 760.9721,-384 760.9721,-384 760.9721,-390 754.9721,-396 748.9721,-396"/>
<text text-anchor="middle" x="719.9721" y="-375.5" font-family="sans" font-size="10.00" fill="#000000">multipleAlign</text>
</g>
<!-- 2&#45;&gt;13 -->
<g id="edge32" class="edge">
<title>2&#45;&gt;13</title>
<path fill="none" stroke="#c0c0c0" stroke-width="2" d="M898.4336,-434.1102C860.5887,-422.2113 809.0178,-405.9969 771.0446,-394.0577"/>
<polygon fill="#c0c0c0" stroke="#c0c0c0" stroke-width="2" points="771.7992,-390.6261 761.2098,-390.9656 769.6996,-397.3038 771.7992,-390.6261"/>
</g>
<!-- 15 -->
<g id="node16" class="node">
<title>15</title>
<path fill="none" stroke="#d88d56" stroke-width="2" d="M1143.9721,-396C1143.9721,-396 1051.9721,-396 1051.9721,-396 1045.9721,-396 1039.9721,-390 1039.9721,-384 1039.9721,-384 1039.9721,-372 1039.9721,-372 1039.9721,-366 1045.9721,-360 1051.9721,-360 1051.9721,-360 1143.9721,-360 1143.9721,-360 1149.9721,-360 1155.9721,-366 1155.9721,-372 1155.9721,-372 1155.9721,-384 1155.9721,-384 1155.9721,-390 1149.9721,-396 1143.9721,-396"/>
<text text-anchor="middle" x="1097.9721" y="-375.5" font-family="sans" font-size="10.00" fill="#000000">combineReadCounts</text>
</g>
<!-- 2&#45;&gt;15 -->
<g id="edge34" class="edge">
<title>2&#45;&gt;15</title>
<path fill="none" stroke="#c0c0c0" stroke-width="2" d="M986.5711,-431.8314C1006.3218,-422.2874 1030.7018,-410.5065 1051.6138,-400.4013"/>
<polygon fill="#c0c0c0" stroke="#c0c0c0" stroke-width="2" points="1053.1624,-403.5403 1060.6435,-396.038 1050.1168,-397.2376 1053.1624,-403.5403"/>
</g>
<!-- 29 -->
<g id="node30" class="node">
<title>29</title>
<path fill="none" stroke="#c6d856" stroke-width="2" d="M832.4721,-324C832.4721,-324 725.4721,-324 725.4721,-324 719.4721,-324 713.4721,-318 713.4721,-312 713.4721,-312 713.4721,-300 713.4721,-300 713.4721,-294 719.4721,-288 725.4721,-288 725.4721,-288 832.4721,-288 832.4721,-288 838.4721,-288 844.4721,-294 844.4721,-300 844.4721,-300 844.4721,-312 844.4721,-312 844.4721,-318 838.4721,-324 832.4721,-324"/>
<text text-anchor="middle" x="778.9721" y="-303.5" font-family="sans" font-size="10.00" fill="#000000">combining_annotations</text>
</g>
<!-- 2&#45;&gt;29 -->
<g id="edge58" class="edge">
<title>2&#45;&gt;29</title>
<path fill="none" stroke="#c0c0c0" stroke-width="2" d="M927.4415,-431.7623C897.1682,-406.119 841.9397,-359.3372 808.0447,-330.6262"/>
<polygon fill="#c0c0c0" stroke="#c0c0c0" stroke-width="2" points="810.2206,-327.8824 800.3279,-324.0896 805.6962,-333.2238 810.2206,-327.8824"/>
</g>
<!-- 3 -->
<g id="node4" class="node">
<title>3</title>
<path fill="none" stroke="#56d8c9" stroke-width="2" d="M1022.9721,-540C1022.9721,-540 952.9721,-540 952.9721,-540 946.9721,-540 940.9721,-534 940.9721,-528 940.9721,-528 940.9721,-516 940.9721,-516 940.9721,-510 946.9721,-504 952.9721,-504 952.9721,-504 1022.9721,-504 1022.9721,-504 1028.9721,-504 1034.9721,-510 1034.9721,-516 1034.9721,-516 1034.9721,-528 1034.9721,-528 1034.9721,-534 1028.9721,-540 1022.9721,-540"/>
<text text-anchor="middle" x="987.9721" y="-519.5" font-family="sans" font-size="10.00" fill="#000000">generateSeqtab</text>
</g>
<!-- 3&#45;&gt;2 -->
<g id="edge22" class="edge">
<title>3&#45;&gt;2</title>
<path fill="none" stroke="#c0c0c0" stroke-width="2" d="M978.1308,-503.8314C973.7764,-495.7925 968.5623,-486.1666 963.7552,-477.2918"/>
<polygon fill="#c0c0c0" stroke="#c0c0c0" stroke-width="2" points="966.7864,-475.5392 958.946,-468.4133 960.6313,-478.8732 966.7864,-475.5392"/>
</g>
<!-- 3&#45;&gt;15 -->
<g id="edge35" class="edge">
<title>3&#45;&gt;15</title>
<path fill="none" stroke="#c0c0c0" stroke-width="2" d="M998.8958,-503.8267C1010.3506,-485.2206 1029.257,-455.7454 1047.9721,-432 1055.5572,-422.3762 1064.4765,-412.3843 1072.6659,-403.6508"/>
<polygon fill="#c0c0c0" stroke="#c0c0c0" stroke-width="2" points="1075.2642,-405.9975 1079.6227,-396.3407 1070.1934,-401.1717 1075.2642,-405.9975"/>
</g>
<!-- 4 -->
<g id="node5" class="node">
<title>4</title>
<path fill="none" stroke="#56d8d8" stroke-width="2" d="M1085.4721,-684C1085.4721,-684 1038.4721,-684 1038.4721,-684 1032.4721,-684 1026.4721,-678 1026.4721,-672 1026.4721,-672 1026.4721,-660 1026.4721,-660 1026.4721,-654 1032.4721,-648 1038.4721,-648 1038.4721,-648 1085.4721,-648 1085.4721,-648 1091.4721,-648 1097.4721,-654 1097.4721,-660 1097.4721,-660 1097.4721,-672 1097.4721,-672 1097.4721,-678 1091.4721,-684 1085.4721,-684"/>
<text text-anchor="middle" x="1061.9721" y="-663.5" font-family="sans" font-size="10.00" fill="#000000">dada2Filter</text>
</g>
<!-- 4&#45;&gt;0 -->
<g id="edge17" class="edge">
<title>4&#45;&gt;0</title>
<path fill="none" stroke="#c0c0c0" stroke-width="2" d="M1026.4345,-664.1961C842.0638,-653.8947 2.9721,-595.0871 2.9721,-378 2.9721,-378 2.9721,-378 2.9721,-162 2.9721,-121.1184 -8.9164,-98.7808 21.9721,-72 51.9015,-46.0508 647.8971,-24.4347 803.876,-19.2061"/>
<polygon fill="#c0c0c0" stroke="#c0c0c0" stroke-width="2" points="804.0407,-22.7027 813.9187,-18.8718 803.8077,-15.7065 804.0407,-22.7027"/>
</g>
<!-- 4&#45;&gt;3 -->
<g id="edge23" class="edge">
<title>4&#45;&gt;3</title>
<path fill="none" stroke="#c0c0c0" stroke-width="2" d="M1061.1971,-647.6845C1059.711,-628.7015 1055.4049,-598.6871 1042.9721,-576 1037.1029,-565.29 1028.4282,-555.3531 1019.6943,-546.9993"/>
<polygon fill="#c0c0c0" stroke="#c0c0c0" stroke-width="2" points="1021.8312,-544.2123 1012.0729,-540.086 1017.1282,-549.397 1021.8312,-544.2123"/>
</g>
<!-- 8 -->
<g id="node9" class="node">
<title>8</title>
<path fill="none" stroke="#5673d8" stroke-width="2" d="M1021.9721,-612C1021.9721,-612 953.9721,-612 953.9721,-612 947.9721,-612 941.9721,-606 941.9721,-600 941.9721,-600 941.9721,-588 941.9721,-588 941.9721,-582 947.9721,-576 953.9721,-576 953.9721,-576 1021.9721,-576 1021.9721,-576 1027.9721,-576 1033.9721,-582 1033.9721,-588 1033.9721,-588 1033.9721,-600 1033.9721,-600 1033.9721,-606 1027.9721,-612 1021.9721,-612"/>
<text text-anchor="middle" x="987.9721" y="-591.5" font-family="sans" font-size="10.00" fill="#000000">learnErrorRates</text>
</g>
<!-- 4&#45;&gt;8 -->
<g id="edge28" class="edge">
<title>4&#45;&gt;8</title>
<path fill="none" stroke="#c0c0c0" stroke-width="2" d="M1043.2988,-647.8314C1034.4472,-639.219 1023.7235,-628.7851 1014.0826,-619.4048"/>
<polygon fill="#c0c0c0" stroke="#c0c0c0" stroke-width="2" points="1016.2475,-616.6279 1006.6395,-612.1628 1011.366,-621.645 1016.2475,-616.6279"/>
</g>
<!-- 11 -->
<g id="node12" class="node">
<title>11</title>
<path fill="none" stroke="#70d856" stroke-width="2" d="M1437.4721,-180C1437.4721,-180 1306.4721,-180 1306.4721,-180 1300.4721,-180 1294.4721,-174 1294.4721,-168 1294.4721,-168 1294.4721,-156 1294.4721,-156 1294.4721,-150 1300.4721,-144 1306.4721,-144 1306.4721,-144 1437.4721,-144 1437.4721,-144 1443.4721,-144 1449.4721,-150 1449.4721,-156 1449.4721,-156 1449.4721,-168 1449.4721,-168 1449.4721,-174 1443.4721,-180 1437.4721,-180"/>
<text text-anchor="middle" x="1371.9721" y="-159.5" font-family="sans" font-size="10.00" fill="#000000">plotQualityProfileAfterdada2</text>
</g>
<!-- 4&#45;&gt;11 -->
<g id="edge30" class="edge">
<title>4&#45;&gt;11</title>
<path fill="none" stroke="#c0c0c0" stroke-width="2" d="M1097.4893,-663.7062C1172.0325,-656.7703 1337.9721,-629.282 1337.9721,-522 1337.9721,-522 1337.9721,-522 1337.9721,-306 1337.9721,-264.8199 1351.3053,-218.7455 1361.2726,-190.0555"/>
<polygon fill="#c0c0c0" stroke="#c0c0c0" stroke-width="2" points="1364.685,-190.9079 1364.7616,-180.3133 1358.0949,-188.5477 1364.685,-190.9079"/>
</g>
<!-- 4&#45;&gt;15 -->
<g id="edge37" class="edge">
<title>4&#45;&gt;15</title>
<path fill="none" stroke="#c0c0c0" stroke-width="2" d="M1080.1053,-647.9463C1101.6145,-625.1207 1136.2783,-583.5227 1149.9721,-540 1154.5662,-525.3989 1156.6056,-450.8181 1148.9721,-432 1144.6301,-421.2958 1137.0822,-411.471 1129.1038,-403.2207"/>
<polygon fill="#c0c0c0" stroke="#c0c0c0" stroke-width="2" points="1131.3604,-400.5344 1121.7352,-396.1065 1126.4984,-405.5703 1131.3604,-400.5344"/>
</g>
<!-- 24 -->
<g id="node25" class="node">
<title>24</title>
<path fill="none" stroke="#56d882" stroke-width="2" d="M575.4721,-108C575.4721,-108 480.4721,-108 480.4721,-108 474.4721,-108 468.4721,-102 468.4721,-96 468.4721,-96 468.4721,-84 468.4721,-84 468.4721,-78 474.4721,-72 480.4721,-72 480.4721,-72 575.4721,-72 575.4721,-72 581.4721,-72 587.4721,-78 587.4721,-84 587.4721,-84 587.4721,-96 587.4721,-96 587.4721,-102 581.4721,-108 575.4721,-108"/>
<text text-anchor="middle" x="527.9721" y="-87.5" font-family="sans" font-size="10.00" fill="#000000">seqkit_counts_dada2</text>
</g>
<!-- 4&#45;&gt;24 -->
<g id="edge44" class="edge">
<title>4&#45;&gt;24</title>
<path fill="none" stroke="#c0c0c0" stroke-width="2" d="M1026.1057,-664.0965C906.3763,-656.7774 527.9721,-625.4615 527.9721,-522 527.9721,-522 527.9721,-522 527.9721,-234 527.9721,-193.876 527.9721,-147.4631 527.9721,-118.4177"/>
<polygon fill="#c0c0c0" stroke="#c0c0c0" stroke-width="2" points="531.4722,-118.1853 527.9721,-108.1854 524.4722,-118.1854 531.4722,-118.1853"/>
</g>
<!-- 5 -->
<g id="node6" class="node">
<title>5</title>
<path fill="none" stroke="#d8cb56" stroke-width="2" d="M1283.4721,-756C1283.4721,-756 1234.4721,-756 1234.4721,-756 1228.4721,-756 1222.4721,-750 1222.4721,-744 1222.4721,-744 1222.4721,-732 1222.4721,-732 1222.4721,-726 1228.4721,-720 1234.4721,-720 1234.4721,-720 1283.4721,-720 1283.4721,-720 1289.4721,-720 1295.4721,-726 1295.4721,-732 1295.4721,-732 1295.4721,-744 1295.4721,-744 1295.4721,-750 1289.4721,-756 1283.4721,-756"/>
<text text-anchor="middle" x="1258.9721" y="-735.5" font-family="sans" font-size="10.00" fill="#000000">cutAdaptQc</text>
</g>
<!-- 5&#45;&gt;4 -->
<g id="edge25" class="edge">
<title>5&#45;&gt;4</title>
<path fill="none" stroke="#c0c0c0" stroke-width="2" d="M1222.3796,-724.6261C1189.8328,-712.7308 1142.1208,-695.2929 1107.1935,-682.5276"/>
<polygon fill="#c0c0c0" stroke="#c0c0c0" stroke-width="2" points="1108.2983,-679.205 1097.7044,-679.0595 1105.8953,-685.7797 1108.2983,-679.205"/>
</g>
<!-- 9 -->
<g id="node10" class="node">
<title>9</title>
<path fill="none" stroke="#afd856" stroke-width="2" d="M1595.9721,-180C1595.9721,-180 1479.9721,-180 1479.9721,-180 1473.9721,-180 1467.9721,-174 1467.9721,-168 1467.9721,-168 1467.9721,-156 1467.9721,-156 1467.9721,-150 1473.9721,-144 1479.9721,-144 1479.9721,-144 1595.9721,-144 1595.9721,-144 1601.9721,-144 1607.9721,-150 1607.9721,-156 1607.9721,-156 1607.9721,-168 1607.9721,-168 1607.9721,-174 1601.9721,-180 1595.9721,-180"/>
<text text-anchor="middle" x="1537.9721" y="-159.5" font-family="sans" font-size="10.00" fill="#000000">plotQualityProfileAfterQC</text>
</g>
<!-- 5&#45;&gt;9 -->
<g id="edge29" class="edge">
<title>5&#45;&gt;9</title>
<path fill="none" stroke="#c0c0c0" stroke-width="2" d="M1295.7504,-720.2217C1353.0105,-691.3219 1456.9721,-633.423 1456.9721,-594 1456.9721,-594 1456.9721,-594 1456.9721,-306 1456.9721,-259.7913 1489.0484,-214.7153 1512.8305,-187.6452"/>
<polygon fill="#c0c0c0" stroke="#c0c0c0" stroke-width="2" points="1515.4786,-189.9351 1519.592,-180.1713 1510.2876,-185.2389 1515.4786,-189.9351"/>
</g>
<!-- 19 -->
<g id="node20" class="node">
<title>19</title>
<path fill="none" stroke="#5692d8" stroke-width="2" d="M1559.4721,-684C1559.4721,-684 1522.4721,-684 1522.4721,-684 1516.4721,-684 1510.4721,-678 1510.4721,-672 1510.4721,-672 1510.4721,-660 1510.4721,-660 1510.4721,-654 1516.4721,-648 1522.4721,-648 1522.4721,-648 1559.4721,-648 1559.4721,-648 1565.4721,-648 1571.4721,-654 1571.4721,-660 1571.4721,-660 1571.4721,-672 1571.4721,-672 1571.4721,-678 1565.4721,-684 1559.4721,-684"/>
<text text-anchor="middle" x="1540.9721" y="-663.5" font-family="sans" font-size="10.00" fill="#000000">fastqcFilt</text>
</g>
<!-- 5&#45;&gt;19 -->
<g id="edge40" class="edge">
<title>5&#45;&gt;19</title>
<path fill="none" stroke="#c0c0c0" stroke-width="2" d="M1295.6983,-723.0332C1298.8142,-721.9454 1301.9346,-720.9173 1304.9721,-720 1377.2416,-698.1759 1397.5128,-701.4036 1470.9721,-684 1480.5781,-681.7242 1490.8908,-679.1472 1500.5688,-676.6691"/>
<polygon fill="#c0c0c0" stroke="#c0c0c0" stroke-width="2" points="1501.5606,-680.0279 1510.3682,-674.1393 1499.8107,-673.2502 1501.5606,-680.0279"/>
</g>
<!-- 25 -->
<g id="node26" class="node">
<title>25</title>
<path fill="none" stroke="#d8bc56" stroke-width="2" d="M312.9721,-108C312.9721,-108 204.9721,-108 204.9721,-108 198.9721,-108 192.9721,-102 192.9721,-96 192.9721,-96 192.9721,-84 192.9721,-84 192.9721,-78 198.9721,-72 204.9721,-72 204.9721,-72 312.9721,-72 312.9721,-72 318.9721,-72 324.9721,-78 324.9721,-84 324.9721,-84 324.9721,-96 324.9721,-96 324.9721,-102 318.9721,-108 312.9721,-108"/>
<text text-anchor="middle" x="258.9721" y="-87.5" font-family="sans" font-size="10.00" fill="#000000">seqkit_counts_cutadapt</text>
</g>
<!-- 5&#45;&gt;25 -->
<g id="edge45" class="edge">
<title>5&#45;&gt;25</title>
<path fill="none" stroke="#c0c0c0" stroke-width="2" d="M1222.3062,-736.5626C1044.2146,-729.1058 277.9721,-691.3653 277.9721,-594 277.9721,-594 277.9721,-594 277.9721,-234 277.9721,-193.5282 270.5042,-147.2037 264.9321,-118.2725"/>
<polygon fill="#c0c0c0" stroke="#c0c0c0" stroke-width="2" points="268.2898,-117.2111 262.9089,-108.0844 261.4238,-118.5746 268.2898,-117.2111"/>
</g>
<!-- 6 -->
<g id="node7" class="node">
<title>6</title>
<path fill="none" stroke="#56d892" stroke-width="2" d="M1308.9721,-828C1308.9721,-828 1272.9721,-828 1272.9721,-828 1266.9721,-828 1260.9721,-822 1260.9721,-816 1260.9721,-816 1260.9721,-804 1260.9721,-804 1260.9721,-798 1266.9721,-792 1272.9721,-792 1272.9721,-792 1308.9721,-792 1308.9721,-792 1314.9721,-792 1320.9721,-798 1320.9721,-804 1320.9721,-804 1320.9721,-816 1320.9721,-816 1320.9721,-822 1314.9721,-828 1308.9721,-828"/>
<text text-anchor="middle" x="1290.9721" y="-807.5" font-family="sans" font-size="10.00" fill="#000000">cutAdapt</text>
</g>
<!-- 6&#45;&gt;5 -->
<g id="edge26" class="edge">
<title>6&#45;&gt;5</title>
<path fill="none" stroke="#c0c0c0" stroke-width="2" d="M1282.8972,-791.8314C1279.3619,-783.8771 1275.1361,-774.369 1271.2265,-765.5723"/>
<polygon fill="#c0c0c0" stroke="#c0c0c0" stroke-width="2" points="1274.4156,-764.1299 1267.1558,-756.4133 1268.0189,-766.9729 1274.4156,-764.1299"/>
</g>
<!-- 32 -->
<g id="node33" class="node">
<title>32</title>
<path fill="none" stroke="#d85656" stroke-width="2" d="M162.4721,-108C162.4721,-108 43.4721,-108 43.4721,-108 37.4721,-108 31.4721,-102 31.4721,-96 31.4721,-96 31.4721,-84 31.4721,-84 31.4721,-78 37.4721,-72 43.4721,-72 43.4721,-72 162.4721,-72 162.4721,-72 168.4721,-72 174.4721,-78 174.4721,-84 174.4721,-84 174.4721,-96 174.4721,-96 174.4721,-102 168.4721,-108 162.4721,-108"/>
<text text-anchor="middle" x="102.9721" y="-87.5" font-family="sans" font-size="10.00" fill="#000000">seqkit_counts_primerRMV</text>
</g>
<!-- 6&#45;&gt;32 -->
<g id="edge64" class="edge">
<title>6&#45;&gt;32</title>
<path fill="none" stroke="#c0c0c0" stroke-width="2" d="M1260.6924,-809.7868C1069.7972,-808.0549 40.9721,-792.837 40.9721,-666 40.9721,-666 40.9721,-666 40.9721,-234 40.9721,-190.0364 65.6531,-144.2257 83.8708,-116.3997"/>
<polygon fill="#c0c0c0" stroke="#c0c0c0" stroke-width="2" points="86.8307,-118.2705 89.519,-108.0224 81.0266,-114.3572 86.8307,-118.2705"/>
</g>
<!-- 33 -->
<g id="node34" class="node">
<title>33</title>
<path fill="none" stroke="#9fd856" stroke-width="2" d="M1435.9721,-756C1435.9721,-756 1325.9721,-756 1325.9721,-756 1319.9721,-756 1313.9721,-750 1313.9721,-744 1313.9721,-744 1313.9721,-732 1313.9721,-732 1313.9721,-726 1319.9721,-720 1325.9721,-720 1325.9721,-720 1435.9721,-720 1435.9721,-720 1441.9721,-720 1447.9721,-726 1447.9721,-732 1447.9721,-732 1447.9721,-744 1447.9721,-744 1447.9721,-750 1441.9721,-756 1435.9721,-756"/>
<text text-anchor="middle" x="1380.9721" y="-735.5" font-family="sans" font-size="10.00" fill="#000000">primerRMVinvestigation</text>
</g>
<!-- 6&#45;&gt;33 -->
<g id="edge66" class="edge">
<title>6&#45;&gt;33</title>
<path fill="none" stroke="#c0c0c0" stroke-width="2" d="M1313.6829,-791.8314C1324.7681,-782.9632 1338.2675,-772.1637 1350.2573,-762.5718"/>
<polygon fill="#c0c0c0" stroke="#c0c0c0" stroke-width="2" points="1352.6463,-765.1429 1358.2686,-756.1628 1348.2734,-759.6768 1352.6463,-765.1429"/>
</g>
<!-- 7 -->
<g id="node8" class="node">
<title>7</title>
<path fill="none" stroke="#d87556" stroke-width="2" d="M1344.4721,-900C1344.4721,-900 1295.4721,-900 1295.4721,-900 1289.4721,-900 1283.4721,-894 1283.4721,-888 1283.4721,-888 1283.4721,-876 1283.4721,-876 1283.4721,-870 1289.4721,-864 1295.4721,-864 1295.4721,-864 1344.4721,-864 1344.4721,-864 1350.4721,-864 1356.4721,-870 1356.4721,-876 1356.4721,-876 1356.4721,-888 1356.4721,-888 1356.4721,-894 1350.4721,-900 1344.4721,-900"/>
<text text-anchor="middle" x="1319.9721" y="-879.5" font-family="sans" font-size="10.00" fill="#000000">filterNsRaw</text>
</g>
<!-- 7&#45;&gt;6 -->
<g id="edge27" class="edge">
<title>7&#45;&gt;6</title>
<path fill="none" stroke="#c0c0c0" stroke-width="2" d="M1312.6542,-863.8314C1309.4845,-855.9617 1305.7022,-846.5712 1302.1908,-837.8533"/>
<polygon fill="#c0c0c0" stroke="#c0c0c0" stroke-width="2" points="1305.3713,-836.3815 1298.3886,-828.4133 1298.8782,-838.9968 1305.3713,-836.3815"/>
</g>
<!-- 7&#45;&gt;33 -->
<g id="edge65" class="edge">
<title>7&#45;&gt;33</title>
<path fill="none" stroke="#c0c0c0" stroke-width="2" d="M1327.6978,-863.7623C1338.1939,-838.9846 1357.0502,-794.4714 1369.283,-765.5939"/>
<polygon fill="#c0c0c0" stroke="#c0c0c0" stroke-width="2" points="1372.6313,-766.6628 1373.3092,-756.0896 1366.1858,-763.9323 1372.6313,-766.6628"/>
</g>
<!-- 8&#45;&gt;3 -->
<g id="edge24" class="edge">
<title>8&#45;&gt;3</title>
<path fill="none" stroke="#c0c0c0" stroke-width="2" d="M987.9721,-575.8314C987.9721,-568.131 987.9721,-558.9743 987.9721,-550.4166"/>
<polygon fill="#c0c0c0" stroke="#c0c0c0" stroke-width="2" points="991.4722,-550.4132 987.9721,-540.4133 984.4722,-550.4133 991.4722,-550.4132"/>
</g>
<!-- 9&#45;&gt;0 -->
<g id="edge9" class="edge">
<title>9&#45;&gt;0</title>
<path fill="none" stroke="#c0c0c0" stroke-width="2" d="M1502.2531,-143.8796C1459.3945,-122.9887 1384.8109,-89.3111 1316.9721,-72 1157.1329,-31.2124 959.2372,-21.2123 878.2061,-18.7767"/>
<polygon fill="#c0c0c0" stroke="#c0c0c0" stroke-width="2" points="878.1062,-15.2727 868.0125,-18.4923 877.9109,-22.27 878.1062,-15.2727"/>
</g>
<!-- 9&#45;&gt;26 -->
<g id="edge50" class="edge">
<title>9&#45;&gt;26</title>
<path fill="none" stroke="#c0c0c0" stroke-width="2" d="M1467.83,-145.6632C1464.8418,-145.0795 1461.8797,-144.522 1458.9721,-144 1325.4291,-120.0237 1165.5698,-101.9627 1091.4642,-94.1912"/>
<polygon fill="#c0c0c0" stroke="#c0c0c0" stroke-width="2" points="1091.4747,-90.6735 1081.1662,-93.1198 1090.7503,-97.6359 1091.4747,-90.6735"/>
</g>
<!-- 10 -->
<g id="node11" class="node">
<title>10</title>
<path fill="none" stroke="#d89c56" stroke-width="2" d="M1225.9721,-180C1225.9721,-180 1127.9721,-180 1127.9721,-180 1121.9721,-180 1115.9721,-174 1115.9721,-168 1115.9721,-168 1115.9721,-156 1115.9721,-156 1115.9721,-150 1121.9721,-144 1127.9721,-144 1127.9721,-144 1225.9721,-144 1225.9721,-144 1231.9721,-144 1237.9721,-150 1237.9721,-156 1237.9721,-156 1237.9721,-168 1237.9721,-168 1237.9721,-174 1231.9721,-180 1225.9721,-180"/>
<text text-anchor="middle" x="1176.9721" y="-159.5" font-family="sans" font-size="10.00" fill="#000000">plotQualityProfileRaw</text>
</g>
<!-- 10&#45;&gt;0 -->
<g id="edge4" class="edge">
<title>10&#45;&gt;0</title>
<path fill="none" stroke="#c0c0c0" stroke-width="2" d="M1164.5073,-143.7021C1149.3711,-122.9683 1121.8721,-89.7579 1089.9721,-72 1053.9678,-51.9573 938.4816,-32.4859 878.2759,-23.3702"/>
<polygon fill="#c0c0c0" stroke="#c0c0c0" stroke-width="2" points="878.4661,-19.8598 868.0584,-21.8424 877.4308,-26.7829 878.4661,-19.8598"/>
</g>
<!-- 10&#45;&gt;26 -->
<g id="edge52" class="edge">
<title>10&#45;&gt;26</title>
<path fill="none" stroke="#c0c0c0" stroke-width="2" d="M1144.9247,-143.8314C1128.2799,-134.3949 1107.7778,-122.7717 1090.0894,-112.7436"/>
<polygon fill="#c0c0c0" stroke="#c0c0c0" stroke-width="2" points="1091.5567,-109.5522 1081.1313,-107.665 1088.1044,-115.6417 1091.5567,-109.5522"/>
</g>
<!-- 11&#45;&gt;0 -->
<g id="edge13" class="edge">
<title>11&#45;&gt;0</title>
<path fill="none" stroke="#c0c0c0" stroke-width="2" d="M1359.3891,-143.9288C1343.5402,-122.7521 1314.2017,-88.4673 1279.9721,-72 1209.0939,-37.9016 970.5404,-23.7967 878.0505,-19.5218"/>
<polygon fill="#c0c0c0" stroke="#c0c0c0" stroke-width="2" points="878.173,-16.0239 868.0258,-19.0708 877.8583,-23.0168 878.173,-16.0239"/>
</g>
<!-- 11&#45;&gt;26 -->
<g id="edge53" class="edge">
<title>11&#45;&gt;26</title>
<path fill="none" stroke="#c0c0c0" stroke-width="2" d="M1294.4353,-144.6626C1230.5412,-130.3757 1142.4063,-110.6685 1091.2754,-99.2355"/>
<polygon fill="#c0c0c0" stroke="#c0c0c0" stroke-width="2" points="1091.7774,-95.7614 1081.2546,-96.9948 1090.2498,-102.5927 1091.7774,-95.7614"/>
</g>
<!-- 12&#45;&gt;0 -->
<g id="edge11" class="edge">
<title>12&#45;&gt;0</title>
<path fill="none" stroke="#c0c0c0" stroke-width="2" d="M955.628,-359.8832C966.0634,-328.1529 982.4092,-261.5705 954.9721,-216 937.3335,-186.7039 908.482,-206.584 886.9721,-180 855.3062,-140.8642 845.4273,-81.0856 842.3529,-46.1382"/>
<polygon fill="#c0c0c0" stroke="#c0c0c0" stroke-width="2" points="845.8412,-45.8492 841.6007,-36.14 838.8609,-46.3744 845.8412,-45.8492"/>
</g>
<!-- 12&#45;&gt;29 -->
<g id="edge59" class="edge">
<title>12&#45;&gt;29</title>
<path fill="none" stroke="#c0c0c0" stroke-width="2" d="M919.3604,-365.4586C895.0876,-355.1783 860.1415,-340.3776 831.1885,-328.1152"/>
<polygon fill="#c0c0c0" stroke="#c0c0c0" stroke-width="2" points="832.1966,-324.7412 821.6235,-324.0641 829.4667,-331.187 832.1966,-324.7412"/>
</g>
<!-- 13&#45;&gt;0 -->
<g id="edge8" class="edge">
<title>13&#45;&gt;0</title>
<path fill="none" stroke="#c0c0c0" stroke-width="2" d="M678.8488,-362.798C620.9102,-338.6017 524.7444,-286.7366 547.9721,-216 572.7651,-140.4966 588.7749,-117.4399 653.9721,-72 699.5253,-40.2512 763.6422,-27.0118 803.7248,-21.601"/>
<polygon fill="#c0c0c0" stroke="#c0c0c0" stroke-width="2" points="804.3771,-25.0467 813.8642,-20.3303 803.5066,-18.101 804.3771,-25.0467"/>
</g>
<!-- 14 -->
<g id="node15" class="node">
<title>14</title>
<path fill="none" stroke="#56d8a9" stroke-width="2" d="M615.4721,-252C615.4721,-252 568.4721,-252 568.4721,-252 562.4721,-252 556.4721,-246 556.4721,-240 556.4721,-240 556.4721,-228 556.4721,-228 556.4721,-222 562.4721,-216 568.4721,-216 568.4721,-216 615.4721,-216 615.4721,-216 621.4721,-216 627.4721,-222 627.4721,-228 627.4721,-228 627.4721,-240 627.4721,-240 627.4721,-246 621.4721,-252 615.4721,-252"/>
<text text-anchor="middle" x="591.9721" y="-231.5" font-family="sans" font-size="10.00" fill="#000000">newickTree</text>
</g>
<!-- 13&#45;&gt;14 -->
<g id="edge33" class="edge">
<title>13&#45;&gt;14</title>
<path fill="none" stroke="#c0c0c0" stroke-width="2" d="M703.7608,-359.7623C681.2554,-334.4436 640.4327,-288.5182 614.8389,-259.7251"/>
<polygon fill="#c0c0c0" stroke="#c0c0c0" stroke-width="2" points="617.3114,-257.2385 608.0518,-252.0896 612.0795,-261.889 617.3114,-257.2385"/>
</g>
<!-- 28 -->
<g id="node29" class="node">
<title>28</title>
<path fill="none" stroke="#59d856" stroke-width="2" d="M933.4721,-324C933.4721,-324 874.4721,-324 874.4721,-324 868.4721,-324 862.4721,-318 862.4721,-312 862.4721,-312 862.4721,-300 862.4721,-300 862.4721,-294 868.4721,-288 874.4721,-288 874.4721,-288 933.4721,-288 933.4721,-288 939.4721,-288 945.4721,-294 945.4721,-300 945.4721,-300 945.4721,-312 945.4721,-312 945.4721,-318 939.4721,-324 933.4721,-324"/>
<text text-anchor="middle" x="903.9721" y="-303.5" font-family="sans" font-size="10.00" fill="#000000">vsearchGTDB</text>
</g>
<!-- 13&#45;&gt;28 -->
<g id="edge57" class="edge">
<title>13&#45;&gt;28</title>
<path fill="none" stroke="#c0c0c0" stroke-width="2" d="M761.2653,-361.8418C788.3006,-351.2628 823.8316,-337.3593 852.6763,-326.0723"/>
<polygon fill="#c0c0c0" stroke="#c0c0c0" stroke-width="2" points="854.1431,-329.2568 862.1801,-322.3534 851.5923,-322.7381 854.1431,-329.2568"/>
</g>
<!-- 14&#45;&gt;0 -->
<g id="edge16" class="edge">
<title>14&#45;&gt;0</title>
<path fill="none" stroke="#c0c0c0" stroke-width="2" d="M598.4654,-215.9355C611.2693,-182.7736 642.865,-111.9331 691.9721,-72 724.6221,-45.4495 771.4437,-31.3491 803.8489,-24.2993"/>
<polygon fill="#c0c0c0" stroke="#c0c0c0" stroke-width="2" points="804.7352,-27.6904 813.8273,-22.2512 803.3278,-20.8333 804.7352,-27.6904"/>
</g>
<!-- 15&#45;&gt;0 -->
<g id="edge3" class="edge">
<title>15&#45;&gt;0</title>
<path fill="none" stroke="#c0c0c0" stroke-width="2" d="M1147.469,-359.9836C1197.0249,-338.3791 1265.9721,-297.0002 1265.9721,-234 1265.9721,-234 1265.9721,-234 1265.9721,-162 1265.9721,-80.468 981.8564,-35.9958 878.2241,-22.4863"/>
<polygon fill="#c0c0c0" stroke="#c0c0c0" stroke-width="2" points="878.5678,-19.0018 868.2043,-21.2037 877.679,-25.9451 878.5678,-19.0018"/>
</g>
<!-- 15&#45;&gt;26 -->
<g id="edge51" class="edge">
<title>15&#45;&gt;26</title>
<path fill="none" stroke="#c0c0c0" stroke-width="2" d="M1094.9695,-359.9843C1086.8544,-311.2939 1064.4381,-176.7961 1054.6483,-118.0573"/>
<polygon fill="#c0c0c0" stroke="#c0c0c0" stroke-width="2" points="1058.0701,-117.2974 1052.9736,-108.0089 1051.1653,-118.4482 1058.0701,-117.2974"/>
</g>
<!-- 16 -->
<g id="node17" class="node">
<title>16</title>
<path fill="none" stroke="#d88556" stroke-width="2" d="M1127.4721,-468C1127.4721,-468 1068.4721,-468 1068.4721,-468 1062.4721,-468 1056.4721,-462 1056.4721,-456 1056.4721,-456 1056.4721,-444 1056.4721,-444 1056.4721,-438 1062.4721,-432 1068.4721,-432 1068.4721,-432 1127.4721,-432 1127.4721,-432 1133.4721,-432 1139.4721,-438 1139.4721,-444 1139.4721,-444 1139.4721,-456 1139.4721,-456 1139.4721,-462 1133.4721,-468 1127.4721,-468"/>
<text text-anchor="middle" x="1097.9721" y="-447.5" font-family="sans" font-size="10.00" fill="#000000">numSeqParse</text>
</g>
<!-- 16&#45;&gt;15 -->
<g id="edge36" class="edge">
<title>16&#45;&gt;15</title>
<path fill="none" stroke="#c0c0c0" stroke-width="2" d="M1097.9721,-431.8314C1097.9721,-424.131 1097.9721,-414.9743 1097.9721,-406.4166"/>
<polygon fill="#c0c0c0" stroke="#c0c0c0" stroke-width="2" points="1101.4722,-406.4132 1097.9721,-396.4133 1094.4722,-406.4133 1101.4722,-406.4132"/>
</g>
<!-- 17 -->
<g id="node18" class="node">
<title>17</title>
<path fill="none" stroke="#d8ac56" stroke-width="2" d="M1128.4721,-540C1128.4721,-540 1065.4721,-540 1065.4721,-540 1059.4721,-540 1053.4721,-534 1053.4721,-528 1053.4721,-528 1053.4721,-516 1053.4721,-516 1053.4721,-510 1059.4721,-504 1065.4721,-504 1065.4721,-504 1128.4721,-504 1128.4721,-504 1134.4721,-504 1140.4721,-510 1140.4721,-516 1140.4721,-516 1140.4721,-528 1140.4721,-528 1140.4721,-534 1134.4721,-540 1128.4721,-540"/>
<text text-anchor="middle" x="1096.9721" y="-519.5" font-family="sans" font-size="10.00" fill="#000000">rawReadCount</text>
</g>
<!-- 17&#45;&gt;16 -->
<g id="edge38" class="edge">
<title>17&#45;&gt;16</title>
<path fill="none" stroke="#c0c0c0" stroke-width="2" d="M1097.2245,-503.8314C1097.3314,-496.131 1097.4586,-486.9743 1097.5774,-478.4166"/>
<polygon fill="#c0c0c0" stroke="#c0c0c0" stroke-width="2" points="1101.0771,-478.4609 1097.7164,-468.4133 1094.0777,-478.3637 1101.0771,-478.4609"/>
</g>
<!-- 18 -->
<g id="node19" class="node">
<title>18</title>
<path fill="none" stroke="#d86656" stroke-width="2" d="M1587.9721,-612C1587.9721,-612 1543.9721,-612 1543.9721,-612 1537.9721,-612 1531.9721,-606 1531.9721,-600 1531.9721,-600 1531.9721,-588 1531.9721,-588 1531.9721,-582 1537.9721,-576 1543.9721,-576 1543.9721,-576 1587.9721,-576 1587.9721,-576 1593.9721,-576 1599.9721,-582 1599.9721,-588 1599.9721,-588 1599.9721,-600 1599.9721,-600 1599.9721,-606 1593.9721,-612 1587.9721,-612"/>
<text text-anchor="middle" x="1565.9721" y="-591.5" font-family="sans" font-size="10.00" fill="#000000">multiqcFilt</text>
</g>
<!-- 18&#45;&gt;0 -->
<g id="edge2" class="edge">
<title>18&#45;&gt;0</title>
<path fill="none" stroke="#c0c0c0" stroke-width="2" d="M1581.5074,-575.8219C1602.13,-549.7696 1635.9721,-499.4792 1635.9721,-450 1635.9721,-450 1635.9721,-450 1635.9721,-162 1635.9721,-87.8596 2035.7506,-203.5781 1382.9721,-72 1195.6863,-34.2495 966.4314,-22.4511 878.1027,-19.1545"/>
<polygon fill="#c0c0c0" stroke="#c0c0c0" stroke-width="2" points="878.1609,-15.6544 868.0418,-18.7935 877.9098,-22.6499 878.1609,-15.6544"/>
</g>
<!-- 19&#45;&gt;18 -->
<g id="edge39" class="edge">
<title>19&#45;&gt;18</title>
<path fill="none" stroke="#c0c0c0" stroke-width="2" d="M1547.2807,-647.8314C1549.9838,-640.0463 1553.2037,-630.7729 1556.2031,-622.1347"/>
<polygon fill="#c0c0c0" stroke="#c0c0c0" stroke-width="2" points="1559.6048,-623.0081 1559.5786,-612.4133 1552.9921,-620.7119 1559.6048,-623.0081"/>
</g>
<!-- 20 -->
<g id="node21" class="node">
<title>20</title>
<path fill="none" stroke="#56a2d8" stroke-width="2" d="M1763.9721,-108C1763.9721,-108 1713.9721,-108 1713.9721,-108 1707.9721,-108 1701.9721,-102 1701.9721,-96 1701.9721,-96 1701.9721,-84 1701.9721,-84 1701.9721,-78 1707.9721,-72 1713.9721,-72 1713.9721,-72 1763.9721,-72 1763.9721,-72 1769.9721,-72 1775.9721,-78 1775.9721,-84 1775.9721,-84 1775.9721,-96 1775.9721,-96 1775.9721,-102 1769.9721,-108 1763.9721,-108"/>
<text text-anchor="middle" x="1738.9721" y="-87.5" font-family="sans" font-size="10.00" fill="#000000">multiqcRaw</text>
</g>
<!-- 20&#45;&gt;0 -->
<g id="edge20" class="edge">
<title>20&#45;&gt;0</title>
<path fill="none" stroke="#c0c0c0" stroke-width="2" d="M1701.7041,-75.5319C1697.1305,-74.1484 1692.4799,-72.9207 1687.9721,-72 1529.6835,-39.6693 1021.0883,-23.1046 878.4687,-19.0184"/>
<polygon fill="#c0c0c0" stroke="#c0c0c0" stroke-width="2" points="878.1749,-15.5088 868.0799,-18.7244 877.9768,-22.506 878.1749,-15.5088"/>
</g>
<!-- 21 -->
<g id="node22" class="node">
<title>21</title>
<path fill="none" stroke="#56d8a2" stroke-width="2" d="M1760.9721,-180C1760.9721,-180 1716.9721,-180 1716.9721,-180 1710.9721,-180 1704.9721,-174 1704.9721,-168 1704.9721,-168 1704.9721,-156 1704.9721,-156 1704.9721,-150 1710.9721,-144 1716.9721,-144 1716.9721,-144 1760.9721,-144 1760.9721,-144 1766.9721,-144 1772.9721,-150 1772.9721,-156 1772.9721,-156 1772.9721,-168 1772.9721,-168 1772.9721,-174 1766.9721,-180 1760.9721,-180"/>
<text text-anchor="middle" x="1738.9721" y="-159.5" font-family="sans" font-size="10.00" fill="#000000">fastqcRaw</text>
</g>
<!-- 21&#45;&gt;20 -->
<g id="edge41" class="edge">
<title>21&#45;&gt;20</title>
<path fill="none" stroke="#c0c0c0" stroke-width="2" d="M1738.9721,-143.8314C1738.9721,-136.131 1738.9721,-126.9743 1738.9721,-118.4166"/>
<polygon fill="#c0c0c0" stroke="#c0c0c0" stroke-width="2" points="1742.4722,-118.4132 1738.9721,-108.4133 1735.4722,-118.4133 1742.4722,-118.4132"/>
</g>
<!-- 22 -->
<g id="node23" class="node">
<title>22</title>
<path fill="none" stroke="#80d856" stroke-width="2" d="M438.4721,-108C438.4721,-108 355.4721,-108 355.4721,-108 349.4721,-108 343.4721,-102 343.4721,-96 343.4721,-96 343.4721,-84 343.4721,-84 343.4721,-78 349.4721,-72 355.4721,-72 355.4721,-72 438.4721,-72 438.4721,-72 444.4721,-72 450.4721,-78 450.4721,-84 450.4721,-84 450.4721,-96 450.4721,-96 450.4721,-102 444.4721,-108 438.4721,-108"/>
<text text-anchor="middle" x="396.9721" y="-87.5" font-family="sans" font-size="10.00" fill="#000000">seqkit_counts_raw</text>
</g>
<!-- 22&#45;&gt;0 -->
<g id="edge12" class="edge">
<title>22&#45;&gt;0</title>
<path fill="none" stroke="#c0c0c0" stroke-width="2" d="M450.6217,-73.9183C453.4366,-73.2332 456.2325,-72.5882 458.9721,-72 583.9156,-45.1742 734.8039,-28.3398 803.5646,-21.5044"/>
<polygon fill="#c0c0c0" stroke="#c0c0c0" stroke-width="2" points="804.2678,-24.9523 813.8786,-20.4932 803.5847,-17.9857 804.2678,-24.9523"/>
</g>
<!-- 23 -->
<g id="node24" class="node">
<title>23</title>
<path fill="none" stroke="#56d873" stroke-width="2" d="M403.4721,-180C403.4721,-180 354.4721,-180 354.4721,-180 348.4721,-180 342.4721,-174 342.4721,-168 342.4721,-168 342.4721,-156 342.4721,-156 342.4721,-150 348.4721,-144 354.4721,-144 354.4721,-144 403.4721,-144 403.4721,-144 409.4721,-144 415.4721,-150 415.4721,-156 415.4721,-156 415.4721,-168 415.4721,-168 415.4721,-174 409.4721,-180 403.4721,-180"/>
<text text-anchor="middle" x="378.9721" y="-159.5" font-family="sans" font-size="10.00" fill="#000000">list_sample</text>
</g>
<!-- 23&#45;&gt;22 -->
<g id="edge42" class="edge">
<title>23&#45;&gt;22</title>
<path fill="none" stroke="#c0c0c0" stroke-width="2" d="M383.5143,-143.8314C385.4605,-136.0463 387.7789,-126.7729 389.9384,-118.1347"/>
<polygon fill="#c0c0c0" stroke="#c0c0c0" stroke-width="2" points="393.3389,-118.9636 392.3688,-108.4133 386.5479,-117.2658 393.3389,-118.9636"/>
</g>
<!-- 23&#45;&gt;24 -->
<g id="edge43" class="edge">
<title>23&#45;&gt;24</title>
<path fill="none" stroke="#c0c0c0" stroke-width="2" d="M415.8036,-144.2022C435.6219,-134.6256 460.2662,-122.7169 481.4032,-112.5031"/>
<polygon fill="#c0c0c0" stroke="#c0c0c0" stroke-width="2" points="483.0483,-115.5954 490.5294,-108.0931 480.0027,-109.2927 483.0483,-115.5954"/>
</g>
<!-- 23&#45;&gt;25 -->
<g id="edge46" class="edge">
<title>23&#45;&gt;25</title>
<path fill="none" stroke="#c0c0c0" stroke-width="2" d="M348.6911,-143.8314C333.3423,-134.6221 314.5223,-123.3301 298.0898,-113.4706"/>
<polygon fill="#c0c0c0" stroke="#c0c0c0" stroke-width="2" points="299.6192,-110.3066 289.2435,-108.1628 296.0177,-116.3091 299.6192,-110.3066"/>
</g>
<!-- 23&#45;&gt;32 -->
<g id="edge63" class="edge">
<title>23&#45;&gt;32</title>
<path fill="none" stroke="#c0c0c0" stroke-width="2" d="M342.3215,-152.439C301.5986,-141.8156 234.6337,-124.3465 181.8759,-110.5836"/>
<polygon fill="#c0c0c0" stroke="#c0c0c0" stroke-width="2" points="182.7594,-107.197 172.1998,-108.0594 180.9924,-113.9703 182.7594,-107.197"/>
</g>
<!-- 24&#45;&gt;0 -->
<g id="edge14" class="edge">
<title>24&#45;&gt;0</title>
<path fill="none" stroke="#c0c0c0" stroke-width="2" d="M587.7264,-75.3762C592.5439,-74.2243 597.3381,-73.087 601.9721,-72 673.2023,-55.2911 756.5999,-36.6595 803.6642,-26.2307"/>
<polygon fill="#c0c0c0" stroke="#c0c0c0" stroke-width="2" points="804.691,-29.5882 813.6982,-24.0097 803.1781,-22.7537 804.691,-29.5882"/>
</g>
<!-- 25&#45;&gt;0 -->
<g id="edge5" class="edge">
<title>25&#45;&gt;0</title>
<path fill="none" stroke="#c0c0c0" stroke-width="2" d="M325.1291,-73.6312C328.1111,-73.0485 331.0691,-72.5008 333.9721,-72 508.3875,-41.9119 719.6375,-25.8824 803.7833,-20.3054"/>
<polygon fill="#c0c0c0" stroke="#c0c0c0" stroke-width="2" points="804.1189,-23.791 813.8696,-19.6469 803.6628,-16.8059 804.1189,-23.791"/>
</g>
<!-- 26&#45;&gt;0 -->
<g id="edge6" class="edge">
<title>26&#45;&gt;0</title>
<path fill="none" stroke="#c0c0c0" stroke-width="2" d="M1018.6827,-79.2209C980.9954,-66.2377 917.778,-44.4595 877.7821,-30.681"/>
<polygon fill="#c0c0c0" stroke="#c0c0c0" stroke-width="2" points="878.7384,-27.3086 868.1437,-27.3605 876.4583,-33.9269 878.7384,-27.3086"/>
</g>
<!-- 27 -->
<g id="node28" class="node">
<title>27</title>
<path fill="none" stroke="#68d856" stroke-width="2" d="M933.9721,-252C933.9721,-252 831.9721,-252 831.9721,-252 825.9721,-252 819.9721,-246 819.9721,-240 819.9721,-240 819.9721,-228 819.9721,-228 819.9721,-222 825.9721,-216 831.9721,-216 831.9721,-216 933.9721,-216 933.9721,-216 939.9721,-216 945.9721,-222 945.9721,-228 945.9721,-228 945.9721,-240 945.9721,-240 945.9721,-246 939.9721,-252 933.9721,-252"/>
<text text-anchor="middle" x="882.9721" y="-231.5" font-family="sans" font-size="10.00" fill="#000000">separate_vsearch_hits</text>
</g>
<!-- 27&#45;&gt;26 -->
<g id="edge54" class="edge">
<title>27&#45;&gt;26</title>
<path fill="none" stroke="#c0c0c0" stroke-width="2" d="M933.8884,-215.9869C953.8267,-207.2413 975.9498,-195.2731 992.9721,-180 1012.4034,-162.5655 1027.7357,-136.9955 1037.5817,-117.5618"/>
<polygon fill="#c0c0c0" stroke="#c0c0c0" stroke-width="2" points="1040.858,-118.8285 1042.0957,-108.3062 1034.5664,-115.76 1040.858,-118.8285"/>
</g>
<!-- 30 -->
<g id="node31" class="node">
<title>30</title>
<path fill="none" stroke="#56c9d8" stroke-width="2" d="M827.4721,-180C827.4721,-180 770.4721,-180 770.4721,-180 764.4721,-180 758.4721,-174 758.4721,-168 758.4721,-168 758.4721,-156 758.4721,-156 758.4721,-150 764.4721,-144 770.4721,-144 770.4721,-144 827.4721,-144 827.4721,-144 833.4721,-144 839.4721,-150 839.4721,-156 839.4721,-156 839.4721,-168 839.4721,-168 839.4721,-174 833.4721,-180 827.4721,-180"/>
<text text-anchor="middle" x="798.9721" y="-159.5" font-family="sans" font-size="10.00" fill="#000000">vsearchParse</text>
</g>
<!-- 27&#45;&gt;30 -->
<g id="edge61" class="edge">
<title>27&#45;&gt;30</title>
<path fill="none" stroke="#c0c0c0" stroke-width="2" d="M861.7754,-215.8314C851.5287,-207.0485 839.0718,-196.3712 827.9624,-186.8489"/>
<polygon fill="#c0c0c0" stroke="#c0c0c0" stroke-width="2" points="830.0325,-184.0134 820.1621,-180.1628 825.4769,-189.3282 830.0325,-184.0134"/>
</g>
<!-- 28&#45;&gt;27 -->
<g id="edge56" class="edge">
<title>28&#45;&gt;27</title>
<path fill="none" stroke="#c0c0c0" stroke-width="2" d="M898.6729,-287.8314C896.4023,-280.0463 893.6976,-270.7729 891.1781,-262.1347"/>
<polygon fill="#c0c0c0" stroke="#c0c0c0" stroke-width="2" points="894.5027,-261.0332 888.3427,-252.4133 887.7827,-262.9933 894.5027,-261.0332"/>
</g>
<!-- 29&#45;&gt;0 -->
<g id="edge7" class="edge">
<title>29&#45;&gt;0</title>
<path fill="none" stroke="#c0c0c0" stroke-width="2" d="M769.9855,-287.6289C756.3392,-257.1721 733.6213,-194.5662 749.9721,-144 762.6521,-104.786 792.5937,-67.5134 814.6862,-43.8241"/>
<polygon fill="#c0c0c0" stroke="#c0c0c0" stroke-width="2" points="817.4685,-45.9782 821.8412,-36.3278 812.4048,-41.145 817.4685,-45.9782"/>
</g>
<!-- 29&#45;&gt;26 -->
<g id="edge48" class="edge">
<title>29&#45;&gt;26</title>
<path fill="none" stroke="#c0c0c0" stroke-width="2" d="M844.7956,-289.6633C886.6389,-278.5474 936.3257,-263.7756 954.9721,-252 991.6759,-228.8208 999.1456,-217.5239 1020.9721,-180 1032.2021,-160.6936 1039.6865,-136.4877 1044.2348,-118.0432"/>
<polygon fill="#c0c0c0" stroke="#c0c0c0" stroke-width="2" points="1047.6692,-118.7263 1046.5221,-108.1938 1040.8507,-117.1428 1047.6692,-118.7263"/>
</g>
<!-- 29&#45;&gt;27 -->
<g id="edge55" class="edge">
<title>29&#45;&gt;27</title>
<path fill="none" stroke="#c0c0c0" stroke-width="2" d="M805.2157,-287.8314C818.2716,-278.7927 834.2256,-267.7476 848.2768,-258.0198"/>
<polygon fill="#c0c0c0" stroke="#c0c0c0" stroke-width="2" points="850.5072,-260.7326 856.7369,-252.1628 846.5227,-254.9773 850.5072,-260.7326"/>
</g>
<!-- 29&#45;&gt;30 -->
<g id="edge60" class="edge">
<title>29&#45;&gt;30</title>
<path fill="none" stroke="#c0c0c0" stroke-width="2" d="M781.5051,-287.7623C784.9164,-263.201 791.0211,-219.2474 795.0341,-190.3541"/>
<polygon fill="#c0c0c0" stroke="#c0c0c0" stroke-width="2" points="798.5506,-190.4761 796.4597,-180.0896 791.6172,-189.513 798.5506,-190.4761"/>
</g>
<!-- 31 -->
<g id="node32" class="node">
<title>31</title>
<path fill="none" stroke="#56d8b9" stroke-width="2" d="M713.9721,-252C713.9721,-252 657.9721,-252 657.9721,-252 651.9721,-252 645.9721,-246 645.9721,-240 645.9721,-240 645.9721,-228 645.9721,-228 645.9721,-222 651.9721,-216 657.9721,-216 657.9721,-216 713.9721,-216 713.9721,-216 719.9721,-216 725.9721,-222 725.9721,-228 725.9721,-228 725.9721,-240 725.9721,-240 725.9721,-246 719.9721,-252 713.9721,-252"/>
<text text-anchor="middle" x="685.9721" y="-231.5" font-family="sans" font-size="10.00" fill="#000000">prepareFasta</text>
</g>
<!-- 29&#45;&gt;31 -->
<g id="edge62" class="edge">
<title>29&#45;&gt;31</title>
<path fill="none" stroke="#c0c0c0" stroke-width="2" d="M755.5043,-287.8314C743.9394,-278.8779 729.8317,-267.9558 717.3538,-258.2955"/>
<polygon fill="#c0c0c0" stroke="#c0c0c0" stroke-width="2" points="719.4823,-255.5171 709.4324,-252.1628 715.1971,-261.0521 719.4823,-255.5171"/>
</g>
<!-- 30&#45;&gt;0 -->
<g id="edge18" class="edge">
<title>30&#45;&gt;0</title>
<path fill="none" stroke="#c0c0c0" stroke-width="2" d="M804.2915,-143.7623C811.4867,-119.0928 824.388,-74.8598 832.8133,-45.9731"/>
<polygon fill="#c0c0c0" stroke="#c0c0c0" stroke-width="2" points="836.2559,-46.6696 835.696,-36.0896 829.5359,-44.7096 836.2559,-46.6696"/>
</g>
<!-- 30&#45;&gt;26 -->
<g id="edge47" class="edge">
<title>30&#45;&gt;26</title>
<path fill="none" stroke="#c0c0c0" stroke-width="2" d="M839.5786,-150.3519C886.2423,-136.9663 962.384,-115.1249 1009.1417,-101.7123"/>
<polygon fill="#c0c0c0" stroke="#c0c0c0" stroke-width="2" points="1010.2892,-105.0244 1018.9364,-98.9027 1008.359,-98.2957 1010.2892,-105.0244"/>
</g>
<!-- 31&#45;&gt;0 -->
<g id="edge15" class="edge">
<title>31&#45;&gt;0</title>
<path fill="none" stroke="#c0c0c0" stroke-width="2" d="M684.188,-215.9788C681.9779,-183.509 682.0046,-114.6059 715.9721,-72 737.5625,-44.9189 775.381,-31.1484 803.7818,-24.323"/>
<polygon fill="#c0c0c0" stroke="#c0c0c0" stroke-width="2" points="804.7649,-27.6901 813.7716,-22.1108 803.2514,-20.8557 804.7649,-27.6901"/>
</g>
<!-- 32&#45;&gt;0 -->
<g id="edge1" class="edge">
<title>32&#45;&gt;0</title>
<path fill="none" stroke="#c0c0c0" stroke-width="2" d="M174.865,-73.4889C177.9357,-72.953 180.9811,-72.4531 183.9721,-72 418.1591,-36.5251 703.0889,-23.1159 803.6608,-19.2802"/>
<polygon fill="#c0c0c0" stroke="#c0c0c0" stroke-width="2" points="804.0461,-22.7684 813.9088,-18.8985 803.7854,-15.7733 804.0461,-22.7684"/>
</g>
<!-- 33&#45;&gt;0 -->
<g id="edge10" class="edge">
<title>33&#45;&gt;0</title>
<path fill="none" stroke="#c0c0c0" stroke-width="2" d="M1448.1515,-728.5869C1488.589,-720.8565 1539.9999,-707.2614 1580.9721,-684 1630.992,-655.6018 1673.9721,-651.5191 1673.9721,-594 1673.9721,-594 1673.9721,-594 1673.9721,-162 1673.9721,-119.4414 1844.5927,-162.0473 1478.9721,-72 1363.7224,-43.6156 996.7794,-25.0098 878.2679,-19.6203"/>
<polygon fill="#c0c0c0" stroke="#c0c0c0" stroke-width="2" points="878.3774,-16.1218 868.2301,-19.1685 878.0626,-23.1147 878.3774,-16.1218"/>
</g>
</g>
</svg>
