<?xml version="1.0" encoding="UTF-8" standalone="no"?>
<!DOCTYPE svg PUBLIC "-//W3C//DTD SVG 1.1//EN"
 "http://www.w3.org/Graphics/SVG/1.1/DTD/svg11.dtd">
<!-- Generated by graphviz version 2.40.1 (0)
 -->
<!-- Title: snakemake_dag Pages: 1 -->
<svg width="1516pt" height="908pt"
 viewBox="0.00 0.00 1516.00 908.00" xmlns="http://www.w3.org/2000/svg" xmlns:xlink="http://www.w3.org/1999/xlink">
<g id="graph0" class="graph" transform="scale(1 1) rotate(0) translate(4 904)">
<title>snakemake_dag</title>
<polygon fill="#ffffff" stroke="transparent" points="-4,4 -4,-904 1512,-904 1512,4 -4,4"/>
<!-- 0 -->
<g id="node1" class="node">
<title>0</title>
<path fill="none" stroke="#d8a456" stroke-width="2" d="M812,-36C812,-36 782,-36 782,-36 776,-36 770,-30 770,-24 770,-24 770,-12 770,-12 770,-6 776,0 782,0 782,0 812,0 812,0 818,0 824,-6 824,-12 824,-12 824,-24 824,-24 824,-30 818,-36 812,-36"/>
<text text-anchor="middle" x="797" y="-15.5" font-family="sans" font-size="10.00" fill="#000000">all</text>
</g>
<!-- 1 -->
<g id="node2" class="node">
<title>1</title>
<path fill="none" stroke="#56d85b" stroke-width="2" d="M572,-180C572,-180 508,-180 508,-180 502,-180 496,-174 496,-168 496,-168 496,-156 496,-156 496,-150 502,-144 508,-144 508,-144 572,-144 572,-144 578,-144 584,-150 584,-156 584,-156 584,-168 584,-168 584,-174 578,-180 572,-180"/>
<text text-anchor="middle" x="540" y="-159.5" font-family="sans" font-size="10.00" fill="#000000">plotASVLength</text>
</g>
<!-- 1&#45;&gt;0 -->
<g id="edge13" class="edge">
<title>1&#45;&gt;0</title>
<path fill="none" stroke="#c0c0c0" stroke-width="2" d="M546.9144,-143.944C555.6943,-123.4373 572.7968,-90.44 598,-72 623.6911,-53.203 709.7316,-34.4608 759.8694,-24.7695"/>
<polygon fill="#c0c0c0" stroke="#c0c0c0" stroke-width="2" points="760.8202,-28.1514 769.9887,-22.8421 759.5104,-21.275 760.8202,-28.1514"/>
</g>
<!-- 27 -->
<g id="node28" class="node">
<title>27</title>
<path fill="none" stroke="#80d856" stroke-width="2" d="M456,-108C456,-108 418,-108 418,-108 412,-108 406,-102 406,-96 406,-96 406,-84 406,-84 406,-78 412,-72 418,-72 418,-72 456,-72 456,-72 462,-72 468,-78 468,-84 468,-84 468,-96 468,-96 468,-102 462,-108 456,-108"/>
<text text-anchor="middle" x="437" y="-87.5" font-family="sans" font-size="10.00" fill="#000000">qc_report</text>
</g>
<!-- 1&#45;&gt;27 -->
<g id="edge48" class="edge">
<title>1&#45;&gt;27</title>
<path fill="none" stroke="#c0c0c0" stroke-width="2" d="M514.0088,-143.8314C501.0784,-134.7927 485.2778,-123.7476 471.3617,-114.0198"/>
<polygon fill="#c0c0c0" stroke="#c0c0c0" stroke-width="2" points="473.1843,-111.0235 462.9829,-108.1628 469.1737,-116.7608 473.1843,-111.0235"/>
</g>
<!-- 2 -->
<g id="node3" class="node">
<title>2</title>
<path fill="none" stroke="#5682d8" stroke-width="2" d="M559.5,-540C559.5,-540 482.5,-540 482.5,-540 476.5,-540 470.5,-534 470.5,-528 470.5,-528 470.5,-516 470.5,-516 470.5,-510 476.5,-504 482.5,-504 482.5,-504 559.5,-504 559.5,-504 565.5,-504 571.5,-510 571.5,-516 571.5,-516 571.5,-528 571.5,-528 571.5,-534 565.5,-540 559.5,-540"/>
<text text-anchor="middle" x="521" y="-519.5" font-family="sans" font-size="10.00" fill="#000000">removeChimeras</text>
</g>
<!-- 2&#45;&gt;1 -->
<g id="edge21" class="edge">
<title>2&#45;&gt;1</title>
<path fill="none" stroke="#c0c0c0" stroke-width="2" d="M524.9368,-503.9156C530.502,-476.7281 540,-423.6422 540,-378 540,-378 540,-378 540,-306 540,-265.876 540,-219.4631 540,-190.4177"/>
<polygon fill="#c0c0c0" stroke="#c0c0c0" stroke-width="2" points="543.5001,-190.1853 540,-180.1854 536.5001,-190.1854 543.5001,-190.1853"/>
</g>
<!-- 11 -->
<g id="node12" class="node">
<title>11</title>
<path fill="none" stroke="#56d89a" stroke-width="2" d="M661,-324C661,-324 631,-324 631,-324 625,-324 619,-318 619,-312 619,-312 619,-300 619,-300 619,-294 625,-288 631,-288 631,-288 661,-288 661,-288 667,-288 673,-294 673,-300 673,-300 673,-312 673,-312 673,-318 667,-324 661,-324"/>
<text text-anchor="middle" x="646" y="-303.5" font-family="sans" font-size="10.00" fill="#000000">IDtaxa</text>
</g>
<!-- 2&#45;&gt;11 -->
<g id="edge30" class="edge">
<title>2&#45;&gt;11</title>
<path fill="none" stroke="#c0c0c0" stroke-width="2" d="M553.7941,-503.8581C587.8624,-482.9212 639.1822,-444.9889 661,-396 669.8089,-376.2209 664.9347,-351.9055 658.4779,-333.5367"/>
<polygon fill="#c0c0c0" stroke="#c0c0c0" stroke-width="2" points="661.6681,-332.0816 654.8048,-324.0102 655.1367,-334.5999 661.6681,-332.0816"/>
</g>
<!-- 12 -->
<g id="node13" class="node">
<title>12</title>
<path fill="none" stroke="#70d856" stroke-width="2" d="M369.5,-468C369.5,-468 334.5,-468 334.5,-468 328.5,-468 322.5,-462 322.5,-456 322.5,-456 322.5,-444 322.5,-444 322.5,-438 328.5,-432 334.5,-432 334.5,-432 369.5,-432 369.5,-432 375.5,-432 381.5,-438 381.5,-444 381.5,-444 381.5,-456 381.5,-456 381.5,-462 375.5,-468 369.5,-468"/>
<text text-anchor="middle" x="352" y="-447.5" font-family="sans" font-size="10.00" fill="#000000">RDPtaxa</text>
</g>
<!-- 2&#45;&gt;12 -->
<g id="edge31" class="edge">
<title>2&#45;&gt;12</title>
<path fill="none" stroke="#c0c0c0" stroke-width="2" d="M478.3542,-503.8314C451.444,-492.3667 416.9573,-477.6741 390.8135,-466.5359"/>
<polygon fill="#c0c0c0" stroke="#c0c0c0" stroke-width="2" points="392.1603,-463.3054 381.5886,-462.6058 389.4166,-469.7453 392.1603,-463.3054"/>
</g>
<!-- 13 -->
<g id="node14" class="node">
<title>13</title>
<path fill="none" stroke="#d85656" stroke-width="2" d="M790,-468C790,-468 732,-468 732,-468 726,-468 720,-462 720,-456 720,-456 720,-444 720,-444 720,-438 726,-432 732,-432 732,-432 790,-432 790,-432 796,-432 802,-438 802,-444 802,-444 802,-456 802,-456 802,-462 796,-468 790,-468"/>
<text text-anchor="middle" x="761" y="-447.5" font-family="sans" font-size="10.00" fill="#000000">multipleAlign</text>
</g>
<!-- 2&#45;&gt;13 -->
<g id="edge32" class="edge">
<title>2&#45;&gt;13</title>
<path fill="none" stroke="#c0c0c0" stroke-width="2" d="M571.6046,-506.8186C612.2607,-494.6218 669.1088,-477.5674 709.8966,-465.331"/>
<polygon fill="#c0c0c0" stroke="#c0c0c0" stroke-width="2" points="711.0676,-468.6339 719.6401,-462.408 709.0561,-461.9291 711.0676,-468.6339"/>
</g>
<!-- 15 -->
<g id="node16" class="node">
<title>15</title>
<path fill="none" stroke="#d88556" stroke-width="2" d="M292,-468C292,-468 200,-468 200,-468 194,-468 188,-462 188,-456 188,-456 188,-444 188,-444 188,-438 194,-432 200,-432 200,-432 292,-432 292,-432 298,-432 304,-438 304,-444 304,-444 304,-456 304,-456 304,-462 298,-468 292,-468"/>
<text text-anchor="middle" x="246" y="-447.5" font-family="sans" font-size="10.00" fill="#000000">combineReadCounts</text>
</g>
<!-- 2&#45;&gt;15 -->
<g id="edge37" class="edge">
<title>2&#45;&gt;15</title>
<path fill="none" stroke="#c0c0c0" stroke-width="2" d="M470.1072,-508.9154C430.1986,-498.6257 372.989,-483.8118 313.968,-468.2462"/>
<polygon fill="#c0c0c0" stroke="#c0c0c0" stroke-width="2" points="314.6588,-464.8087 304.0967,-465.6402 312.872,-471.5769 314.6588,-464.8087"/>
</g>
<!-- 30 -->
<g id="node31" class="node">
<title>30</title>
<path fill="none" stroke="#d8c356" stroke-width="2" d="M392.5,-396C392.5,-396 285.5,-396 285.5,-396 279.5,-396 273.5,-390 273.5,-384 273.5,-384 273.5,-372 273.5,-372 273.5,-366 279.5,-360 285.5,-360 285.5,-360 392.5,-360 392.5,-360 398.5,-360 404.5,-366 404.5,-372 404.5,-372 404.5,-384 404.5,-384 404.5,-390 398.5,-396 392.5,-396"/>
<text text-anchor="middle" x="339" y="-375.5" font-family="sans" font-size="10.00" fill="#000000">combining_annotations</text>
</g>
<!-- 2&#45;&gt;30 -->
<g id="edge59" class="edge">
<title>2&#45;&gt;30</title>
<path fill="none" stroke="#c0c0c0" stroke-width="2" d="M497.9496,-503.7623C465.5394,-478.119 406.4123,-431.3372 370.1247,-402.6262"/>
<polygon fill="#c0c0c0" stroke="#c0c0c0" stroke-width="2" points="371.8772,-399.5497 361.8633,-396.0896 367.5338,-405.0393 371.8772,-399.5497"/>
</g>
<!-- 3 -->
<g id="node4" class="node">
<title>3</title>
<path fill="none" stroke="#56d0d8" stroke-width="2" d="M556,-612C556,-612 486,-612 486,-612 480,-612 474,-606 474,-600 474,-600 474,-588 474,-588 474,-582 480,-576 486,-576 486,-576 556,-576 556,-576 562,-576 568,-582 568,-588 568,-588 568,-600 568,-600 568,-606 562,-612 556,-612"/>
<text text-anchor="middle" x="521" y="-591.5" font-family="sans" font-size="10.00" fill="#000000">generateSeqtab</text>
</g>
<!-- 3&#45;&gt;2 -->
<g id="edge22" class="edge">
<title>3&#45;&gt;2</title>
<path fill="none" stroke="#c0c0c0" stroke-width="2" d="M521,-575.8314C521,-568.131 521,-558.9743 521,-550.4166"/>
<polygon fill="#c0c0c0" stroke="#c0c0c0" stroke-width="2" points="524.5001,-550.4132 521,-540.4133 517.5001,-550.4133 524.5001,-550.4132"/>
</g>
<!-- 3&#45;&gt;15 -->
<g id="edge34" class="edge">
<title>3&#45;&gt;15</title>
<path fill="none" stroke="#c0c0c0" stroke-width="2" d="M496.9088,-575.7528C470.4543,-556.2755 426.238,-525.3419 385,-504 361.1499,-491.6569 333.8061,-480.4506 309.7157,-471.4864"/>
<polygon fill="#c0c0c0" stroke="#c0c0c0" stroke-width="2" points="310.9036,-468.1941 300.31,-468.0377 308.4939,-474.7663 310.9036,-468.1941"/>
</g>
<!-- 4 -->
<g id="node5" class="node">
<title>4</title>
<path fill="none" stroke="#56d8c9" stroke-width="2" d="M618.5,-756C618.5,-756 571.5,-756 571.5,-756 565.5,-756 559.5,-750 559.5,-744 559.5,-744 559.5,-732 559.5,-732 559.5,-726 565.5,-720 571.5,-720 571.5,-720 618.5,-720 618.5,-720 624.5,-720 630.5,-726 630.5,-732 630.5,-732 630.5,-744 630.5,-744 630.5,-750 624.5,-756 618.5,-756"/>
<text text-anchor="middle" x="595" y="-735.5" font-family="sans" font-size="10.00" fill="#000000">dada2Filter</text>
</g>
<!-- 4&#45;&gt;0 -->
<g id="edge16" class="edge">
<title>4&#45;&gt;0</title>
<path fill="none" stroke="#c0c0c0" stroke-width="2" d="M559.12,-737.0662C430.4804,-732.7618 0,-709.7132 0,-594 0,-594 0,-594 0,-162 0,-114.6526 16.3784,-96.3241 57,-72 117.5866,-35.7209 617.3501,-21.9721 759.446,-18.7748"/>
<polygon fill="#c0c0c0" stroke="#c0c0c0" stroke-width="2" points="759.889,-22.266 769.8093,-18.5462 759.7345,-15.2677 759.889,-22.266"/>
</g>
<!-- 4&#45;&gt;3 -->
<g id="edge23" class="edge">
<title>4&#45;&gt;3</title>
<path fill="none" stroke="#c0c0c0" stroke-width="2" d="M570.8993,-719.914C559.8668,-710.4021 547.5885,-697.8473 540,-684 529.607,-665.035 524.8928,-640.9498 522.7576,-622.4684"/>
<polygon fill="#c0c0c0" stroke="#c0c0c0" stroke-width="2" points="526.2221,-621.9318 521.7751,-612.3155 519.2547,-622.6062 526.2221,-621.9318"/>
</g>
<!-- 7 -->
<g id="node8" class="node">
<title>7</title>
<path fill="none" stroke="#61d856" stroke-width="2" d="M629,-684C629,-684 561,-684 561,-684 555,-684 549,-678 549,-672 549,-672 549,-660 549,-660 549,-654 555,-648 561,-648 561,-648 629,-648 629,-648 635,-648 641,-654 641,-660 641,-660 641,-672 641,-672 641,-678 635,-684 629,-684"/>
<text text-anchor="middle" x="595" y="-663.5" font-family="sans" font-size="10.00" fill="#000000">learnErrorRates</text>
</g>
<!-- 4&#45;&gt;7 -->
<g id="edge27" class="edge">
<title>4&#45;&gt;7</title>
<path fill="none" stroke="#c0c0c0" stroke-width="2" d="M595,-719.8314C595,-712.131 595,-702.9743 595,-694.4166"/>
<polygon fill="#c0c0c0" stroke="#c0c0c0" stroke-width="2" points="598.5001,-694.4132 595,-684.4133 591.5001,-694.4133 598.5001,-694.4132"/>
</g>
<!-- 10 -->
<g id="node11" class="node">
<title>10</title>
<path fill="none" stroke="#d89556" stroke-width="2" d="M783.5,-180C783.5,-180 652.5,-180 652.5,-180 646.5,-180 640.5,-174 640.5,-168 640.5,-168 640.5,-156 640.5,-156 640.5,-150 646.5,-144 652.5,-144 652.5,-144 783.5,-144 783.5,-144 789.5,-144 795.5,-150 795.5,-156 795.5,-156 795.5,-168 795.5,-168 795.5,-174 789.5,-180 783.5,-180"/>
<text text-anchor="middle" x="718" y="-159.5" font-family="sans" font-size="10.00" fill="#000000">plotQualityProfileAfterdada2</text>
</g>
<!-- 4&#45;&gt;10 -->
<g id="edge29" class="edge">
<title>4&#45;&gt;10</title>
<path fill="none" stroke="#c0c0c0" stroke-width="2" d="M630.5843,-729.221C711.0399,-708.3331 900,-652.9956 900,-594 900,-594 900,-594 900,-306 900,-245.1217 836.5991,-205.9429 784.6379,-184.0561"/>
<polygon fill="#c0c0c0" stroke="#c0c0c0" stroke-width="2" points="785.6683,-180.6968 775.0866,-180.1693 783.0297,-187.1805 785.6683,-180.6968"/>
</g>
<!-- 4&#45;&gt;15 -->
<g id="edge35" class="edge">
<title>4&#45;&gt;15</title>
<path fill="none" stroke="#c0c0c0" stroke-width="2" d="M570.071,-719.8548C556.0837,-709.5368 538.4012,-696.2638 523,-684 430.1666,-610.0778 323.8562,-518.1432 274.2518,-474.8046"/>
<polygon fill="#c0c0c0" stroke="#c0c0c0" stroke-width="2" points="276.338,-471.9793 266.5067,-468.0299 271.7293,-477.2482 276.338,-471.9793"/>
</g>
<!-- 24 -->
<g id="node25" class="node">
<title>24</title>
<path fill="none" stroke="#d86656" stroke-width="2" d="M1155.5,-180C1155.5,-180 1060.5,-180 1060.5,-180 1054.5,-180 1048.5,-174 1048.5,-168 1048.5,-168 1048.5,-156 1048.5,-156 1048.5,-150 1054.5,-144 1060.5,-144 1060.5,-144 1155.5,-144 1155.5,-144 1161.5,-144 1167.5,-150 1167.5,-156 1167.5,-156 1167.5,-168 1167.5,-168 1167.5,-174 1161.5,-180 1155.5,-180"/>
<text text-anchor="middle" x="1108" y="-159.5" font-family="sans" font-size="10.00" fill="#000000">seqkit_counts_dada2</text>
</g>
<!-- 4&#45;&gt;24 -->
<g id="edge44" class="edge">
<title>4&#45;&gt;24</title>
<path fill="none" stroke="#c0c0c0" stroke-width="2" d="M630.6438,-732.6832C726.9198,-717.327 985,-669.1536 985,-594 985,-594 985,-594 985,-450 985,-346.1385 1053.4904,-236.9147 1088.2545,-188.1648"/>
<polygon fill="#c0c0c0" stroke="#c0c0c0" stroke-width="2" points="1091.0989,-190.2043 1094.1294,-180.0521 1085.4294,-186.0986 1091.0989,-190.2043"/>
</g>
<!-- 5 -->
<g id="node6" class="node">
<title>5</title>
<path fill="none" stroke="#56d88a" stroke-width="2" d="M1195.5,-828C1195.5,-828 1146.5,-828 1146.5,-828 1140.5,-828 1134.5,-822 1134.5,-816 1134.5,-816 1134.5,-804 1134.5,-804 1134.5,-798 1140.5,-792 1146.5,-792 1146.5,-792 1195.5,-792 1195.5,-792 1201.5,-792 1207.5,-798 1207.5,-804 1207.5,-804 1207.5,-816 1207.5,-816 1207.5,-822 1201.5,-828 1195.5,-828"/>
<text text-anchor="middle" x="1171" y="-807.5" font-family="sans" font-size="10.00" fill="#000000">cutAdaptQc</text>
</g>
<!-- 5&#45;&gt;4 -->
<g id="edge25" class="edge">
<title>5&#45;&gt;4</title>
<path fill="none" stroke="#c0c0c0" stroke-width="2" d="M1134.0924,-805.3865C1033.0656,-792.7582 752.1626,-757.6453 641.0703,-743.7588"/>
<polygon fill="#c0c0c0" stroke="#c0c0c0" stroke-width="2" points="641.2182,-740.2501 630.8613,-742.4827 640.3499,-747.1961 641.2182,-740.2501"/>
</g>
<!-- 8 -->
<g id="node9" class="node">
<title>8</title>
<path fill="none" stroke="#afd856" stroke-width="2" d="M1018,-180C1018,-180 902,-180 902,-180 896,-180 890,-174 890,-168 890,-168 890,-156 890,-156 890,-150 896,-144 902,-144 902,-144 1018,-144 1018,-144 1024,-144 1030,-150 1030,-156 1030,-156 1030,-168 1030,-168 1030,-174 1024,-180 1018,-180"/>
<text text-anchor="middle" x="960" y="-159.5" font-family="sans" font-size="10.00" fill="#000000">plotQualityProfileAfterQC</text>
</g>
<!-- 5&#45;&gt;8 -->
<g id="edge28" class="edge">
<title>5&#45;&gt;8</title>
<path fill="none" stroke="#c0c0c0" stroke-width="2" d="M1134.4157,-793.9627C1090.5887,-771.9781 1023,-728.0201 1023,-666 1023,-666 1023,-666 1023,-450 1023,-352.5572 988.1566,-240.7641 970.2949,-189.8576"/>
<polygon fill="#c0c0c0" stroke="#c0c0c0" stroke-width="2" points="973.5168,-188.4719 966.862,-180.2278 966.9232,-190.8225 973.5168,-188.4719"/>
</g>
<!-- 19 -->
<g id="node20" class="node">
<title>19</title>
<path fill="none" stroke="#56a2d8" stroke-width="2" d="M1427.5,-756C1427.5,-756 1390.5,-756 1390.5,-756 1384.5,-756 1378.5,-750 1378.5,-744 1378.5,-744 1378.5,-732 1378.5,-732 1378.5,-726 1384.5,-720 1390.5,-720 1390.5,-720 1427.5,-720 1427.5,-720 1433.5,-720 1439.5,-726 1439.5,-732 1439.5,-732 1439.5,-744 1439.5,-744 1439.5,-750 1433.5,-756 1427.5,-756"/>
<text text-anchor="middle" x="1409" y="-735.5" font-family="sans" font-size="10.00" fill="#000000">fastqcFilt</text>
</g>
<!-- 5&#45;&gt;19 -->
<g id="edge40" class="edge">
<title>5&#45;&gt;19</title>
<path fill="none" stroke="#c0c0c0" stroke-width="2" d="M1207.6659,-798.9078C1251.1854,-785.7422 1323.5207,-763.8593 1368.6105,-750.2187"/>
<polygon fill="#c0c0c0" stroke="#c0c0c0" stroke-width="2" points="1369.7911,-753.5183 1378.3492,-747.2725 1367.7641,-746.8181 1369.7911,-753.5183"/>
</g>
<!-- 25 -->
<g id="node26" class="node">
<title>25</title>
<path fill="none" stroke="#9fd856" stroke-width="2" d="M1468,-180C1468,-180 1360,-180 1360,-180 1354,-180 1348,-174 1348,-168 1348,-168 1348,-156 1348,-156 1348,-150 1354,-144 1360,-144 1360,-144 1468,-144 1468,-144 1474,-144 1480,-150 1480,-156 1480,-156 1480,-168 1480,-168 1480,-174 1474,-180 1468,-180"/>
<text text-anchor="middle" x="1414" y="-159.5" font-family="sans" font-size="10.00" fill="#000000">seqkit_counts_cutadapt</text>
</g>
<!-- 5&#45;&gt;25 -->
<g id="edge45" class="edge">
<title>5&#45;&gt;25</title>
<path fill="none" stroke="#c0c0c0" stroke-width="2" d="M1206.2069,-791.8208C1245.9088,-768.5064 1305,-724.0547 1305,-666 1305,-666 1305,-666 1305,-306 1305,-255.9186 1347.4327,-212.274 1379.3479,-186.5303"/>
<polygon fill="#c0c0c0" stroke="#c0c0c0" stroke-width="2" points="1381.893,-188.9832 1387.6141,-180.0658 1377.5808,-183.4691 1381.893,-188.9832"/>
</g>
<!-- 6 -->
<g id="node7" class="node">
<title>6</title>
<path fill="none" stroke="#56d87b" stroke-width="2" d="M1189,-900C1189,-900 1153,-900 1153,-900 1147,-900 1141,-894 1141,-888 1141,-888 1141,-876 1141,-876 1141,-870 1147,-864 1153,-864 1153,-864 1189,-864 1189,-864 1195,-864 1201,-870 1201,-876 1201,-876 1201,-888 1201,-888 1201,-894 1195,-900 1189,-900"/>
<text text-anchor="middle" x="1171" y="-879.5" font-family="sans" font-size="10.00" fill="#000000">cutAdapt</text>
</g>
<!-- 6&#45;&gt;5 -->
<g id="edge26" class="edge">
<title>6&#45;&gt;5</title>
<path fill="none" stroke="#c0c0c0" stroke-width="2" d="M1171,-863.8314C1171,-856.131 1171,-846.9743 1171,-838.4166"/>
<polygon fill="#c0c0c0" stroke="#c0c0c0" stroke-width="2" points="1174.5001,-838.4132 1171,-828.4133 1167.5001,-838.4133 1174.5001,-838.4132"/>
</g>
<!-- 7&#45;&gt;3 -->
<g id="edge24" class="edge">
<title>7&#45;&gt;3</title>
<path fill="none" stroke="#c0c0c0" stroke-width="2" d="M576.3267,-647.8314C567.4751,-639.219 556.7514,-628.7851 547.1105,-619.4048"/>
<polygon fill="#c0c0c0" stroke="#c0c0c0" stroke-width="2" points="549.2754,-616.6279 539.6674,-612.1628 544.3939,-621.645 549.2754,-616.6279"/>
</g>
<!-- 8&#45;&gt;0 -->
<g id="edge9" class="edge">
<title>8&#45;&gt;0</title>
<path fill="none" stroke="#c0c0c0" stroke-width="2" d="M945.2599,-143.9851C929.2548,-124.9812 902.4262,-94.7017 876,-72 862.5378,-60.4351 846.5542,-49.1188 832.4979,-39.8575"/>
<polygon fill="#c0c0c0" stroke="#c0c0c0" stroke-width="2" points="834.33,-36.8742 824.0347,-34.3728 830.523,-42.7484 834.33,-36.8742"/>
</g>
<!-- 8&#45;&gt;27 -->
<g id="edge49" class="edge">
<title>8&#45;&gt;27</title>
<path fill="none" stroke="#c0c0c0" stroke-width="2" d="M889.7374,-152.3271C778.9302,-137.0726 567.055,-107.9043 478.0159,-95.6465"/>
<polygon fill="#c0c0c0" stroke="#c0c0c0" stroke-width="2" points="478.4152,-92.1686 468.0313,-94.272 477.4605,-99.1032 478.4152,-92.1686"/>
</g>
<!-- 9 -->
<g id="node10" class="node">
<title>9</title>
<path fill="none" stroke="#56c1d8" stroke-width="2" d="M252,-180C252,-180 154,-180 154,-180 148,-180 142,-174 142,-168 142,-168 142,-156 142,-156 142,-150 148,-144 154,-144 154,-144 252,-144 252,-144 258,-144 264,-150 264,-156 264,-156 264,-168 264,-168 264,-174 258,-180 252,-180"/>
<text text-anchor="middle" x="203" y="-159.5" font-family="sans" font-size="10.00" fill="#000000">plotQualityProfileRaw</text>
</g>
<!-- 9&#45;&gt;0 -->
<g id="edge17" class="edge">
<title>9&#45;&gt;0</title>
<path fill="none" stroke="#c0c0c0" stroke-width="2" d="M234.1203,-143.9791C271.5169,-123.1839 336.7713,-89.5983 397,-72 526.5547,-34.1452 687.595,-22.6846 759.4018,-19.33"/>
<polygon fill="#c0c0c0" stroke="#c0c0c0" stroke-width="2" points="759.9022,-22.8115 769.7386,-18.875 759.5943,-15.8183 759.9022,-22.8115"/>
</g>
<!-- 9&#45;&gt;27 -->
<g id="edge52" class="edge">
<title>9&#45;&gt;27</title>
<path fill="none" stroke="#c0c0c0" stroke-width="2" d="M261.746,-143.9243C303.5726,-131.0546 358.7344,-114.0817 395.908,-102.6437"/>
<polygon fill="#c0c0c0" stroke="#c0c0c0" stroke-width="2" points="397.3613,-105.8585 405.8898,-99.5724 395.3027,-99.1681 397.3613,-105.8585"/>
</g>
<!-- 10&#45;&gt;0 -->
<g id="edge4" class="edge">
<title>10&#45;&gt;0</title>
<path fill="none" stroke="#c0c0c0" stroke-width="2" d="M728.0054,-143.7623C741.6581,-118.8764 766.2327,-74.0822 782.0687,-45.2165"/>
<polygon fill="#c0c0c0" stroke="#c0c0c0" stroke-width="2" points="785.3345,-46.5404 787.0758,-36.0896 779.1974,-43.1735 785.3345,-46.5404"/>
</g>
<!-- 10&#45;&gt;27 -->
<g id="edge50" class="edge">
<title>10&#45;&gt;27</title>
<path fill="none" stroke="#c0c0c0" stroke-width="2" d="M647.4545,-143.9243C594.0625,-130.2438 522.5753,-111.9268 478.1749,-100.5501"/>
<polygon fill="#c0c0c0" stroke="#c0c0c0" stroke-width="2" points="478.8695,-97.1151 468.3136,-98.0234 477.1319,-103.8961 478.8695,-97.1151"/>
</g>
<!-- 11&#45;&gt;0 -->
<g id="edge14" class="edge">
<title>11&#45;&gt;0</title>
<path fill="none" stroke="#c0c0c0" stroke-width="2" d="M638.5811,-287.8512C627.0508,-256.6401 608.4715,-191.5716 632,-144 658.7015,-90.0131 720.8475,-52.8198 760.7884,-33.4989"/>
<polygon fill="#c0c0c0" stroke="#c0c0c0" stroke-width="2" points="762.3764,-36.6198 769.9366,-29.1972 759.3977,-30.2852 762.3764,-36.6198"/>
</g>
<!-- 12&#45;&gt;0 -->
<g id="edge12" class="edge">
<title>12&#45;&gt;0</title>
<path fill="none" stroke="#c0c0c0" stroke-width="2" d="M322.423,-435.8446C269.959,-408.796 162.5077,-344.1492 124,-252 92.0317,-175.4997 100.1607,-111.6069 173,-72 224.5688,-43.9591 633.0888,-24.8035 759.7123,-19.4938"/>
<polygon fill="#c0c0c0" stroke="#c0c0c0" stroke-width="2" points="759.8626,-22.9907 769.7088,-19.079 759.5722,-15.9967 759.8626,-22.9907"/>
</g>
<!-- 12&#45;&gt;30 -->
<g id="edge60" class="edge">
<title>12&#45;&gt;30</title>
<path fill="none" stroke="#c0c0c0" stroke-width="2" d="M348.7196,-431.8314C347.3292,-424.131 345.6759,-414.9743 344.1308,-406.4166"/>
<polygon fill="#c0c0c0" stroke="#c0c0c0" stroke-width="2" points="347.5458,-405.6322 342.3246,-396.4133 340.6572,-406.8761 347.5458,-405.6322"/>
</g>
<!-- 13&#45;&gt;0 -->
<g id="edge1" class="edge">
<title>13&#45;&gt;0</title>
<path fill="none" stroke="#c0c0c0" stroke-width="2" d="M784.9356,-431.9237C814.8027,-407.1078 862,-359.4385 862,-306 862,-306 862,-306 862,-162 862,-117.9445 836.4131,-72.486 817.3463,-44.7272"/>
<polygon fill="#c0c0c0" stroke="#c0c0c0" stroke-width="2" points="820.0592,-42.5017 811.4256,-36.3608 814.3453,-46.5454 820.0592,-42.5017"/>
</g>
<!-- 14 -->
<g id="node15" class="node">
<title>14</title>
<path fill="none" stroke="#5663d8" stroke-width="2" d="M815.5,-324C815.5,-324 768.5,-324 768.5,-324 762.5,-324 756.5,-318 756.5,-312 756.5,-312 756.5,-300 756.5,-300 756.5,-294 762.5,-288 768.5,-288 768.5,-288 815.5,-288 815.5,-288 821.5,-288 827.5,-294 827.5,-300 827.5,-300 827.5,-312 827.5,-312 827.5,-318 821.5,-324 815.5,-324"/>
<text text-anchor="middle" x="792" y="-303.5" font-family="sans" font-size="10.00" fill="#000000">newickTree</text>
</g>
<!-- 13&#45;&gt;14 -->
<g id="edge33" class="edge">
<title>13&#45;&gt;14</title>
<path fill="none" stroke="#c0c0c0" stroke-width="2" d="M764.9262,-431.7623C770.237,-407.0928 779.7594,-362.8598 785.978,-333.9731"/>
<polygon fill="#c0c0c0" stroke="#c0c0c0" stroke-width="2" points="789.4227,-334.6023 788.1057,-324.0896 782.5795,-333.129 789.4227,-334.6023"/>
</g>
<!-- 29 -->
<g id="node30" class="node">
<title>29</title>
<path fill="none" stroke="#8fd856" stroke-width="2" d="M639.5,-396C639.5,-396 580.5,-396 580.5,-396 574.5,-396 568.5,-390 568.5,-384 568.5,-384 568.5,-372 568.5,-372 568.5,-366 574.5,-360 580.5,-360 580.5,-360 639.5,-360 639.5,-360 645.5,-360 651.5,-366 651.5,-372 651.5,-372 651.5,-384 651.5,-384 651.5,-390 645.5,-396 639.5,-396"/>
<text text-anchor="middle" x="610" y="-375.5" font-family="sans" font-size="10.00" fill="#000000">vsearchGTDB</text>
</g>
<!-- 13&#45;&gt;29 -->
<g id="edge58" class="edge">
<title>13&#45;&gt;29</title>
<path fill="none" stroke="#c0c0c0" stroke-width="2" d="M722.8963,-431.8314C702.8805,-422.2874 678.1733,-410.5065 656.9806,-400.4013"/>
<polygon fill="#c0c0c0" stroke="#c0c0c0" stroke-width="2" points="658.3625,-397.1828 647.8297,-396.038 655.3497,-403.5013 658.3625,-397.1828"/>
</g>
<!-- 14&#45;&gt;0 -->
<g id="edge5" class="edge">
<title>14&#45;&gt;0</title>
<path fill="none" stroke="#c0c0c0" stroke-width="2" d="M794.4869,-287.6829C797.6737,-263.2011 803.0226,-218.4336 805,-180 807.4049,-133.258 803.3147,-78.922 800.1496,-46.5566"/>
<polygon fill="#c0c0c0" stroke="#c0c0c0" stroke-width="2" points="803.6172,-46.0597 799.1224,-36.4655 796.6532,-46.7686 803.6172,-46.0597"/>
</g>
<!-- 15&#45;&gt;0 -->
<g id="edge3" class="edge">
<title>15&#45;&gt;0</title>
<path fill="none" stroke="#c0c0c0" stroke-width="2" d="M187.7838,-436.4014C126.2501,-418.1622 38,-379.2375 38,-306 38,-306 38,-306 38,-162 38,-106.3663 74.6953,-95.7603 125,-72 182.5097,-44.8366 626.8245,-24.8705 759.6298,-19.4626"/>
<polygon fill="#c0c0c0" stroke="#c0c0c0" stroke-width="2" points="759.8694,-22.9558 769.7201,-19.0554 759.5871,-15.9615 759.8694,-22.9558"/>
</g>
<!-- 15&#45;&gt;27 -->
<g id="edge51" class="edge">
<title>15&#45;&gt;27</title>
<path fill="none" stroke="#c0c0c0" stroke-width="2" d="M248.1919,-431.6597C255.1379,-380.592 280.8294,-234.5751 356,-144 367.1731,-130.5373 382.5542,-119.1328 396.9135,-110.3232"/>
<polygon fill="#c0c0c0" stroke="#c0c0c0" stroke-width="2" points="398.8244,-113.26 405.6753,-105.1782 395.2798,-107.2237 398.8244,-113.26"/>
</g>
<!-- 16 -->
<g id="node17" class="node">
<title>16</title>
<path fill="none" stroke="#d87556" stroke-width="2" d="M275.5,-540C275.5,-540 216.5,-540 216.5,-540 210.5,-540 204.5,-534 204.5,-528 204.5,-528 204.5,-516 204.5,-516 204.5,-510 210.5,-504 216.5,-504 216.5,-504 275.5,-504 275.5,-504 281.5,-504 287.5,-510 287.5,-516 287.5,-516 287.5,-528 287.5,-528 287.5,-534 281.5,-540 275.5,-540"/>
<text text-anchor="middle" x="246" y="-519.5" font-family="sans" font-size="10.00" fill="#000000">numSeqParse</text>
</g>
<!-- 16&#45;&gt;15 -->
<g id="edge36" class="edge">
<title>16&#45;&gt;15</title>
<path fill="none" stroke="#c0c0c0" stroke-width="2" d="M246,-503.8314C246,-496.131 246,-486.9743 246,-478.4166"/>
<polygon fill="#c0c0c0" stroke="#c0c0c0" stroke-width="2" points="249.5001,-478.4132 246,-468.4133 242.5001,-478.4133 249.5001,-478.4132"/>
</g>
<!-- 17 -->
<g id="node18" class="node">
<title>17</title>
<path fill="none" stroke="#56d86b" stroke-width="2" d="M277.5,-612C277.5,-612 214.5,-612 214.5,-612 208.5,-612 202.5,-606 202.5,-600 202.5,-600 202.5,-588 202.5,-588 202.5,-582 208.5,-576 214.5,-576 214.5,-576 277.5,-576 277.5,-576 283.5,-576 289.5,-582 289.5,-588 289.5,-588 289.5,-600 289.5,-600 289.5,-606 283.5,-612 277.5,-612"/>
<text text-anchor="middle" x="246" y="-591.5" font-family="sans" font-size="10.00" fill="#000000">rawReadCount</text>
</g>
<!-- 17&#45;&gt;16 -->
<g id="edge38" class="edge">
<title>17&#45;&gt;16</title>
<path fill="none" stroke="#c0c0c0" stroke-width="2" d="M246,-575.8314C246,-568.131 246,-558.9743 246,-550.4166"/>
<polygon fill="#c0c0c0" stroke="#c0c0c0" stroke-width="2" points="249.5001,-550.4132 246,-540.4133 242.5001,-550.4133 249.5001,-550.4132"/>
</g>
<!-- 18 -->
<g id="node19" class="node">
<title>18</title>
<path fill="none" stroke="#56b1d8" stroke-width="2" d="M1443,-684C1443,-684 1399,-684 1399,-684 1393,-684 1387,-678 1387,-672 1387,-672 1387,-660 1387,-660 1387,-654 1393,-648 1399,-648 1399,-648 1443,-648 1443,-648 1449,-648 1455,-654 1455,-660 1455,-660 1455,-672 1455,-672 1455,-678 1449,-684 1443,-684"/>
<text text-anchor="middle" x="1421" y="-663.5" font-family="sans" font-size="10.00" fill="#000000">multiqcFilt</text>
</g>
<!-- 18&#45;&gt;0 -->
<g id="edge18" class="edge">
<title>18&#45;&gt;0</title>
<path fill="none" stroke="#c0c0c0" stroke-width="2" d="M1441.1782,-647.6622C1466.8789,-622.1918 1508,-573.4069 1508,-522 1508,-522 1508,-522 1508,-162 1508,-103.8389 1466.0371,-95.8702 1413,-72 1360.2656,-48.2661 959.9126,-26.2299 834.4663,-19.8473"/>
<polygon fill="#c0c0c0" stroke="#c0c0c0" stroke-width="2" points="834.3775,-16.3384 824.2137,-19.3295 834.0243,-23.3295 834.3775,-16.3384"/>
</g>
<!-- 19&#45;&gt;18 -->
<g id="edge39" class="edge">
<title>19&#45;&gt;18</title>
<path fill="none" stroke="#c0c0c0" stroke-width="2" d="M1412.0281,-719.8314C1413.3115,-712.131 1414.8376,-702.9743 1416.2639,-694.4166"/>
<polygon fill="#c0c0c0" stroke="#c0c0c0" stroke-width="2" points="1419.7394,-694.8526 1417.9311,-684.4133 1412.8347,-693.7018 1419.7394,-694.8526"/>
</g>
<!-- 20 -->
<g id="node21" class="node">
<title>20</title>
<path fill="none" stroke="#d8d356" stroke-width="2" d="M1368,-108C1368,-108 1318,-108 1318,-108 1312,-108 1306,-102 1306,-96 1306,-96 1306,-84 1306,-84 1306,-78 1312,-72 1318,-72 1318,-72 1368,-72 1368,-72 1374,-72 1380,-78 1380,-84 1380,-84 1380,-96 1380,-96 1380,-102 1374,-108 1368,-108"/>
<text text-anchor="middle" x="1343" y="-87.5" font-family="sans" font-size="10.00" fill="#000000">multiqcRaw</text>
</g>
<!-- 20&#45;&gt;0 -->
<g id="edge7" class="edge">
<title>20&#45;&gt;0</title>
<path fill="none" stroke="#c0c0c0" stroke-width="2" d="M1305.8623,-74.5144C1302.8932,-73.5697 1299.9153,-72.7143 1297,-72 1127.6434,-30.5044 918.234,-20.8882 834.329,-18.6656"/>
<polygon fill="#c0c0c0" stroke="#c0c0c0" stroke-width="2" points="834.3476,-15.1651 824.2649,-18.419 834.1761,-22.163 834.3476,-15.1651"/>
</g>
<!-- 21 -->
<g id="node22" class="node">
<title>21</title>
<path fill="none" stroke="#5692d8" stroke-width="2" d="M1318,-180C1318,-180 1274,-180 1274,-180 1268,-180 1262,-174 1262,-168 1262,-168 1262,-156 1262,-156 1262,-150 1268,-144 1274,-144 1274,-144 1318,-144 1318,-144 1324,-144 1330,-150 1330,-156 1330,-156 1330,-168 1330,-168 1330,-174 1324,-180 1318,-180"/>
<text text-anchor="middle" x="1296" y="-159.5" font-family="sans" font-size="10.00" fill="#000000">fastqcRaw</text>
</g>
<!-- 21&#45;&gt;20 -->
<g id="edge41" class="edge">
<title>21&#45;&gt;20</title>
<path fill="none" stroke="#c0c0c0" stroke-width="2" d="M1307.8601,-143.8314C1313.1629,-135.7079 1319.5237,-125.9637 1325.3673,-117.0118"/>
<polygon fill="#c0c0c0" stroke="#c0c0c0" stroke-width="2" points="1328.4448,-118.7003 1330.9802,-108.4133 1322.5831,-114.8739 1328.4448,-118.7003"/>
</g>
<!-- 22 -->
<g id="node23" class="node">
<title>22</title>
<path fill="none" stroke="#d8b456" stroke-width="2" d="M1275.5,-108C1275.5,-108 1192.5,-108 1192.5,-108 1186.5,-108 1180.5,-102 1180.5,-96 1180.5,-96 1180.5,-84 1180.5,-84 1180.5,-78 1186.5,-72 1192.5,-72 1192.5,-72 1275.5,-72 1275.5,-72 1281.5,-72 1287.5,-78 1287.5,-84 1287.5,-84 1287.5,-96 1287.5,-96 1287.5,-102 1281.5,-108 1275.5,-108"/>
<text text-anchor="middle" x="1234" y="-87.5" font-family="sans" font-size="10.00" fill="#000000">seqkit_counts_raw</text>
</g>
<!-- 22&#45;&gt;0 -->
<g id="edge20" class="edge">
<title>22&#45;&gt;0</title>
<path fill="none" stroke="#c0c0c0" stroke-width="2" d="M1180.3113,-75.1861C1175.4883,-74.038 1170.6659,-72.9557 1166,-72 1045.5861,-47.335 900.838,-29.5554 834.067,-22.0133"/>
<polygon fill="#c0c0c0" stroke="#c0c0c0" stroke-width="2" points="834.363,-18.5247 824.0359,-20.8913 833.5848,-25.4813 834.363,-18.5247"/>
</g>
<!-- 23 -->
<g id="node24" class="node">
<title>23</title>
<path fill="none" stroke="#56d8a9" stroke-width="2" d="M1242.5,-252C1242.5,-252 1171.5,-252 1171.5,-252 1165.5,-252 1159.5,-246 1159.5,-240 1159.5,-240 1159.5,-228 1159.5,-228 1159.5,-222 1165.5,-216 1171.5,-216 1171.5,-216 1242.5,-216 1242.5,-216 1248.5,-216 1254.5,-222 1254.5,-228 1254.5,-228 1254.5,-240 1254.5,-240 1254.5,-246 1248.5,-252 1242.5,-252"/>
<text text-anchor="middle" x="1207" y="-231.5" font-family="sans" font-size="10.00" fill="#000000">random_sample</text>
</g>
<!-- 23&#45;&gt;0 -->
<g id="edge15" class="edge">
<title>23&#45;&gt;0</title>
<path fill="none" stroke="#c0c0c0" stroke-width="2" d="M1204.6493,-215.9195C1199.0432,-181.0628 1181.37,-105.0931 1131,-72 1082.6483,-40.2329 910.95,-25.3809 834.3571,-20.2215"/>
<polygon fill="#c0c0c0" stroke="#c0c0c0" stroke-width="2" points="834.4106,-16.7176 824.2034,-19.557 833.9535,-23.7026 834.4106,-16.7176"/>
</g>
<!-- 23&#45;&gt;22 -->
<g id="edge42" class="edge">
<title>23&#45;&gt;22</title>
<path fill="none" stroke="#c0c0c0" stroke-width="2" d="M1210.4196,-215.7623C1215.0451,-191.0928 1223.3388,-146.8598 1228.755,-117.9731"/>
<polygon fill="#c0c0c0" stroke="#c0c0c0" stroke-width="2" points="1232.2053,-118.5634 1230.6082,-108.0896 1225.3252,-117.2733 1232.2053,-118.5634"/>
</g>
<!-- 23&#45;&gt;24 -->
<g id="edge43" class="edge">
<title>23&#45;&gt;24</title>
<path fill="none" stroke="#c0c0c0" stroke-width="2" d="M1182.0181,-215.8314C1169.7072,-206.8779 1154.6893,-195.9558 1141.4063,-186.2955"/>
<polygon fill="#c0c0c0" stroke="#c0c0c0" stroke-width="2" points="1143.1199,-183.214 1132.9739,-180.1628 1139.0027,-188.8752 1143.1199,-183.214"/>
</g>
<!-- 23&#45;&gt;25 -->
<g id="edge46" class="edge">
<title>23&#45;&gt;25</title>
<path fill="none" stroke="#c0c0c0" stroke-width="2" d="M1254.7499,-217.3913C1283.857,-207.2671 1321.3491,-194.2264 1352.6426,-183.3417"/>
<polygon fill="#c0c0c0" stroke="#c0c0c0" stroke-width="2" points="1353.8441,-186.6295 1362.1392,-180.0385 1351.5444,-180.0181 1353.8441,-186.6295"/>
</g>
<!-- 24&#45;&gt;0 -->
<g id="edge2" class="edge">
<title>24&#45;&gt;0</title>
<path fill="none" stroke="#c0c0c0" stroke-width="2" d="M1055.6567,-143.957C1029.2378,-134.2778 996.949,-121.5647 969,-108 940.679,-94.2547 935.7321,-86.8978 908,-72 883.4969,-58.8368 855.3073,-45.1403 833.4679,-34.835"/>
<polygon fill="#c0c0c0" stroke="#c0c0c0" stroke-width="2" points="834.7617,-31.5759 824.222,-30.4954 831.7875,-37.9127 834.7617,-31.5759"/>
</g>
<!-- 26 -->
<g id="node27" class="node">
<title>26</title>
<path fill="none" stroke="#ced856" stroke-width="2" d="M1110,-108C1110,-108 990,-108 990,-108 984,-108 978,-102 978,-96 978,-96 978,-84 978,-84 978,-78 984,-72 990,-72 990,-72 1110,-72 1110,-72 1116,-72 1122,-78 1122,-84 1122,-84 1122,-96 1122,-96 1122,-102 1116,-108 1110,-108"/>
<text text-anchor="middle" x="1050" y="-87.5" font-family="sans" font-size="10.00" fill="#000000">reads_Length_Distribution</text>
</g>
<!-- 24&#45;&gt;26 -->
<g id="edge47" class="edge">
<title>24&#45;&gt;26</title>
<path fill="none" stroke="#c0c0c0" stroke-width="2" d="M1093.3642,-143.8314C1086.6839,-135.5386 1078.6432,-125.557 1071.3096,-116.4533"/>
<polygon fill="#c0c0c0" stroke="#c0c0c0" stroke-width="2" points="1073.8319,-114.0052 1064.8329,-108.4133 1068.3806,-118.3965 1073.8319,-114.0052"/>
</g>
<!-- 25&#45;&gt;0 -->
<g id="edge10" class="edge">
<title>25&#45;&gt;0</title>
<path fill="none" stroke="#c0c0c0" stroke-width="2" d="M1414.5912,-143.9655C1414.1973,-123.1572 1410.0422,-89.559 1389,-72 1346.4118,-36.4616 957.855,-22.5296 834.4405,-18.9775"/>
<polygon fill="#c0c0c0" stroke="#c0c0c0" stroke-width="2" points="834.4349,-15.4761 824.3403,-18.6931 834.2378,-22.4733 834.4349,-15.4761"/>
</g>
<!-- 26&#45;&gt;0 -->
<g id="edge8" class="edge">
<title>26&#45;&gt;0</title>
<path fill="none" stroke="#c0c0c0" stroke-width="2" d="M986.484,-71.9243C938.413,-58.244 874.0505,-39.9274 834.0742,-28.5508"/>
<polygon fill="#c0c0c0" stroke="#c0c0c0" stroke-width="2" points="834.7918,-25.1161 824.2157,-25.7452 832.8758,-31.8488 834.7918,-25.1161"/>
</g>
<!-- 27&#45;&gt;0 -->
<g id="edge11" class="edge">
<title>27&#45;&gt;0</title>
<path fill="none" stroke="#c0c0c0" stroke-width="2" d="M468.1804,-79.1543C476.2066,-76.5902 484.8729,-74.0181 493,-72 588.0128,-48.4063 702.1813,-30.9931 759.8167,-22.95"/>
<polygon fill="#c0c0c0" stroke="#c0c0c0" stroke-width="2" points="760.4757,-26.3923 769.9032,-21.5578 759.5186,-19.458 760.4757,-26.3923"/>
</g>
<!-- 28 -->
<g id="node29" class="node">
<title>28</title>
<path fill="none" stroke="#56d8b9" stroke-width="2" d="M437.5,-324C437.5,-324 378.5,-324 378.5,-324 372.5,-324 366.5,-318 366.5,-312 366.5,-312 366.5,-300 366.5,-300 366.5,-294 372.5,-288 378.5,-288 378.5,-288 437.5,-288 437.5,-288 443.5,-288 449.5,-294 449.5,-300 449.5,-300 449.5,-312 449.5,-312 449.5,-318 443.5,-324 437.5,-324"/>
<text text-anchor="middle" x="408" y="-303.5" font-family="sans" font-size="10.00" fill="#000000">GTDB_NoHITs</text>
</g>
<!-- 28&#45;&gt;27 -->
<g id="edge54" class="edge">
<title>28&#45;&gt;27</title>
<path fill="none" stroke="#c0c0c0" stroke-width="2" d="M400.2647,-287.8119C388.383,-257.0901 368.9137,-193.4366 388,-144 392.1192,-133.3306 399.4336,-123.4665 407.1749,-115.1681"/>
<polygon fill="#c0c0c0" stroke="#c0c0c0" stroke-width="2" points="409.7348,-117.558 414.325,-108.0091 404.7819,-112.6113 409.7348,-117.558"/>
</g>
<!-- 31 -->
<g id="node32" class="node">
<title>31</title>
<path fill="none" stroke="#5673d8" stroke-width="2" d="M465.5,-180C465.5,-180 408.5,-180 408.5,-180 402.5,-180 396.5,-174 396.5,-168 396.5,-168 396.5,-156 396.5,-156 396.5,-150 402.5,-144 408.5,-144 408.5,-144 465.5,-144 465.5,-144 471.5,-144 477.5,-150 477.5,-156 477.5,-156 477.5,-168 477.5,-168 477.5,-174 471.5,-180 465.5,-180"/>
<text text-anchor="middle" x="437" y="-159.5" font-family="sans" font-size="10.00" fill="#000000">vsearchParse</text>
</g>
<!-- 28&#45;&gt;31 -->
<g id="edge62" class="edge">
<title>28&#45;&gt;31</title>
<path fill="none" stroke="#c0c0c0" stroke-width="2" d="M411.6729,-287.7623C416.641,-263.0928 425.5491,-218.8598 431.3665,-189.9731"/>
<polygon fill="#c0c0c0" stroke="#c0c0c0" stroke-width="2" points="434.8137,-190.5838 433.357,-180.0896 427.9515,-189.2018 434.8137,-190.5838"/>
</g>
<!-- 32 -->
<g id="node33" class="node">
<title>32</title>
<path fill="none" stroke="#bed856" stroke-width="2" d="M499.5,-252C499.5,-252 448.5,-252 448.5,-252 442.5,-252 436.5,-246 436.5,-240 436.5,-240 436.5,-228 436.5,-228 436.5,-222 442.5,-216 448.5,-216 448.5,-216 499.5,-216 499.5,-216 505.5,-216 511.5,-222 511.5,-228 511.5,-228 511.5,-240 511.5,-240 511.5,-246 505.5,-252 499.5,-252"/>
<text text-anchor="middle" x="474" y="-231.5" font-family="sans" font-size="10.00" fill="#000000">vsearchURE</text>
</g>
<!-- 28&#45;&gt;32 -->
<g id="edge64" class="edge">
<title>28&#45;&gt;32</title>
<path fill="none" stroke="#c0c0c0" stroke-width="2" d="M424.6546,-287.8314C432.4114,-279.3694 441.7802,-269.1489 450.261,-259.8971"/>
<polygon fill="#c0c0c0" stroke="#c0c0c0" stroke-width="2" points="452.9439,-262.1499 457.1212,-252.4133 447.7838,-257.4198 452.9439,-262.1499"/>
</g>
<!-- 29&#45;&gt;28 -->
<g id="edge57" class="edge">
<title>29&#45;&gt;28</title>
<path fill="none" stroke="#c0c0c0" stroke-width="2" d="M568.1455,-363.0816C536.592,-351.8348 493.1472,-336.3495 459.4682,-324.3451"/>
<polygon fill="#c0c0c0" stroke="#c0c0c0" stroke-width="2" points="460.3956,-320.96 449.8009,-320.8993 458.0453,-327.5537 460.3956,-320.96"/>
</g>
<!-- 30&#45;&gt;0 -->
<g id="edge6" class="edge">
<title>30&#45;&gt;0</title>
<path fill="none" stroke="#c0c0c0" stroke-width="2" d="M300.448,-359.9148C225.9924,-322.4506 74.6763,-232.4501 133,-144 202.972,-37.8847 630.1065,-21.1359 759.7338,-18.4942"/>
<polygon fill="#c0c0c0" stroke="#c0c0c0" stroke-width="2" points="760.0136,-21.9897 769.9463,-18.3032 759.8826,-14.9909 760.0136,-21.9897"/>
</g>
<!-- 30&#45;&gt;27 -->
<g id="edge53" class="edge">
<title>30&#45;&gt;27</title>
<path fill="none" stroke="#c0c0c0" stroke-width="2" d="M337.5274,-359.7728C335.0513,-318.2839 333.9038,-214.9112 376,-144 382.5431,-132.9781 392.0981,-122.9926 401.7125,-114.6909"/>
<polygon fill="#c0c0c0" stroke="#c0c0c0" stroke-width="2" points="404.2126,-117.1678 409.7379,-108.1278 399.7811,-111.7491 404.2126,-117.1678"/>
</g>
<!-- 30&#45;&gt;28 -->
<g id="edge56" class="edge">
<title>30&#45;&gt;28</title>
<path fill="none" stroke="#c0c0c0" stroke-width="2" d="M356.4116,-359.8314C364.521,-351.3694 374.3156,-341.1489 383.182,-331.8971"/>
<polygon fill="#c0c0c0" stroke="#c0c0c0" stroke-width="2" points="385.9618,-334.0549 390.354,-324.4133 380.9079,-329.2115 385.9618,-334.0549"/>
</g>
<!-- 30&#45;&gt;31 -->
<g id="edge61" class="edge">
<title>30&#45;&gt;31</title>
<path fill="none" stroke="#c0c0c0" stroke-width="2" d="M340.6501,-359.8533C342.7907,-341.2683 347.4474,-311.8096 357,-288 371.9313,-250.7842 398.0448,-212.5188 416.3647,-188.0725"/>
<polygon fill="#c0c0c0" stroke="#c0c0c0" stroke-width="2" points="419.2173,-190.1034 422.4885,-180.0262 413.6471,-185.864 419.2173,-190.1034"/>
</g>
<!-- 31&#45;&gt;0 -->
<g id="edge19" class="edge">
<title>31&#45;&gt;0</title>
<path fill="none" stroke="#c0c0c0" stroke-width="2" d="M456.6476,-143.9728C480.0279,-123.4932 521.0704,-90.5213 562,-72 627.9502,-42.1564 712.0278,-27.9916 759.6526,-21.941"/>
<polygon fill="#c0c0c0" stroke="#c0c0c0" stroke-width="2" points="760.3056,-25.3874 769.8091,-20.7041 759.4593,-18.4388 760.3056,-25.3874"/>
</g>
<!-- 31&#45;&gt;27 -->
<g id="edge55" class="edge">
<title>31&#45;&gt;27</title>
<path fill="none" stroke="#c0c0c0" stroke-width="2" d="M437,-143.8314C437,-136.131 437,-126.9743 437,-118.4166"/>
<polygon fill="#c0c0c0" stroke="#c0c0c0" stroke-width="2" points="440.5001,-118.4132 437,-108.4133 433.5001,-118.4133 440.5001,-118.4132"/>
</g>
<!-- 32&#45;&gt;31 -->
<g id="edge63" class="edge">
<title>32&#45;&gt;31</title>
<path fill="none" stroke="#c0c0c0" stroke-width="2" d="M464.6633,-215.8314C460.5757,-207.8771 455.6896,-198.369 451.1691,-189.5723"/>
<polygon fill="#c0c0c0" stroke="#c0c0c0" stroke-width="2" points="454.1461,-187.7078 446.4624,-180.4133 447.9201,-190.9074 454.1461,-187.7078"/>
</g>
</g>
</svg>
