<?xml version="1.0" encoding="UTF-8" standalone="no"?>
<!DOCTYPE svg PUBLIC "-//W3C//DTD SVG 1.1//EN"
 "http://www.w3.org/Graphics/SVG/1.1/DTD/svg11.dtd">
<!-- Generated by graphviz version 2.40.1 (0)
 -->
<!-- Title: snakemake_dag Pages: 1 -->
<svg width="1584pt" height="1052pt"
 viewBox="0.00 0.00 1583.50 1052.00" xmlns="http://www.w3.org/2000/svg" xmlns:xlink="http://www.w3.org/1999/xlink">
<g id="graph0" class="graph" transform="scale(1 1) rotate(0) translate(4 1048)">
<title>snakemake_dag</title>
<polygon fill="#ffffff" stroke="transparent" points="-4,4 -4,-1048 1579.5,-1048 1579.5,4 -4,4"/>
<!-- 0 -->
<g id="node1" class="node">
<title>0</title>
<path fill="none" stroke="#56d8b9" stroke-width="2" d="M869.5,-36C869.5,-36 839.5,-36 839.5,-36 833.5,-36 827.5,-30 827.5,-24 827.5,-24 827.5,-12 827.5,-12 827.5,-6 833.5,0 839.5,0 839.5,0 869.5,0 869.5,0 875.5,0 881.5,-6 881.5,-12 881.5,-12 881.5,-24 881.5,-24 881.5,-30 875.5,-36 869.5,-36"/>
<text text-anchor="middle" x="854.5" y="-15.5" font-family="sans" font-size="10.00" fill="#000000">all</text>
</g>
<!-- 1 -->
<g id="node2" class="node">
<title>1</title>
<path fill="none" stroke="#d88d56" stroke-width="2" d="M757.5,-180C757.5,-180 693.5,-180 693.5,-180 687.5,-180 681.5,-174 681.5,-168 681.5,-168 681.5,-156 681.5,-156 681.5,-150 687.5,-144 693.5,-144 693.5,-144 757.5,-144 757.5,-144 763.5,-144 769.5,-150 769.5,-156 769.5,-156 769.5,-168 769.5,-168 769.5,-174 763.5,-180 757.5,-180"/>
<text text-anchor="middle" x="725.5" y="-159.5" font-family="sans" font-size="10.00" fill="#000000">plotASVLength</text>
</g>
<!-- 1&#45;&gt;0 -->
<g id="edge4" class="edge">
<title>1&#45;&gt;0</title>
<path fill="none" stroke="#c0c0c0" stroke-width="2" d="M734.7555,-143.8029C745.0366,-124.6468 762.9242,-94.2415 783.5,-72 794.01,-60.6391 807.1344,-49.9189 819.2303,-41.0706"/>
<polygon fill="#c0c0c0" stroke="#c0c0c0" stroke-width="2" points="821.2779,-43.9093 827.3953,-35.259 817.2187,-38.2064 821.2779,-43.9093"/>
</g>
<!-- 27 -->
<g id="node28" class="node">
<title>27</title>
<path fill="none" stroke="#d87556" stroke-width="2" d="M1070.5,-108C1070.5,-108 1032.5,-108 1032.5,-108 1026.5,-108 1020.5,-102 1020.5,-96 1020.5,-96 1020.5,-84 1020.5,-84 1020.5,-78 1026.5,-72 1032.5,-72 1032.5,-72 1070.5,-72 1070.5,-72 1076.5,-72 1082.5,-78 1082.5,-84 1082.5,-84 1082.5,-96 1082.5,-96 1082.5,-102 1076.5,-108 1070.5,-108"/>
<text text-anchor="middle" x="1051.5" y="-87.5" font-family="sans" font-size="10.00" fill="#000000">qc_report</text>
</g>
<!-- 1&#45;&gt;27 -->
<g id="edge54" class="edge">
<title>1&#45;&gt;27</title>
<path fill="none" stroke="#c0c0c0" stroke-width="2" d="M769.8051,-152.2148C833.1646,-138.2213 948.7832,-112.6859 1010.3519,-99.0879"/>
<polygon fill="#c0c0c0" stroke="#c0c0c0" stroke-width="2" points="1011.4642,-102.4267 1020.4741,-96.8523 1009.9546,-95.5914 1011.4642,-102.4267"/>
</g>
<!-- 2 -->
<g id="node3" class="node">
<title>2</title>
<path fill="none" stroke="#8fd856" stroke-width="2" d="M906,-540C906,-540 829,-540 829,-540 823,-540 817,-534 817,-528 817,-528 817,-516 817,-516 817,-510 823,-504 829,-504 829,-504 906,-504 906,-504 912,-504 918,-510 918,-516 918,-516 918,-528 918,-528 918,-534 912,-540 906,-540"/>
<text text-anchor="middle" x="867.5" y="-519.5" font-family="sans" font-size="10.00" fill="#000000">removeChimeras</text>
</g>
<!-- 2&#45;&gt;1 -->
<g id="edge21" class="edge">
<title>2&#45;&gt;1</title>
<path fill="none" stroke="#c0c0c0" stroke-width="2" d="M820.3536,-503.967C772.2135,-482.1147 704.5,-440.3039 704.5,-378 704.5,-378 704.5,-378 704.5,-306 704.5,-265.2729 712.827,-218.7384 718.9939,-189.8595"/>
<polygon fill="#c0c0c0" stroke="#c0c0c0" stroke-width="2" points="722.4189,-190.5806 721.1488,-180.0621 715.5823,-189.0768 722.4189,-190.5806"/>
</g>
<!-- 13 -->
<g id="node14" class="node">
<title>13</title>
<path fill="none" stroke="#56d8c9" stroke-width="2" d="M664,-468C664,-468 629,-468 629,-468 623,-468 617,-462 617,-456 617,-456 617,-444 617,-444 617,-438 623,-432 629,-432 629,-432 664,-432 664,-432 670,-432 676,-438 676,-444 676,-444 676,-456 676,-456 676,-462 670,-468 664,-468"/>
<text text-anchor="middle" x="646.5" y="-447.5" font-family="sans" font-size="10.00" fill="#000000">RDPtaxa</text>
</g>
<!-- 2&#45;&gt;13 -->
<g id="edge32" class="edge">
<title>2&#45;&gt;13</title>
<path fill="none" stroke="#c0c0c0" stroke-width="2" d="M816.7411,-507.8625C781.1347,-497.618 732.5676,-482.9859 690.5,-468 688.8964,-467.4288 687.2657,-466.8327 685.6225,-466.2196"/>
<polygon fill="#c0c0c0" stroke="#c0c0c0" stroke-width="2" points="686.7681,-462.9102 676.1786,-462.5749 684.2477,-469.4407 686.7681,-462.9102"/>
</g>
<!-- 14 -->
<g id="node15" class="node">
<title>14</title>
<path fill="none" stroke="#56d863" stroke-width="2" d="M983.5,-468C983.5,-468 925.5,-468 925.5,-468 919.5,-468 913.5,-462 913.5,-456 913.5,-456 913.5,-444 913.5,-444 913.5,-438 919.5,-432 925.5,-432 925.5,-432 983.5,-432 983.5,-432 989.5,-432 995.5,-438 995.5,-444 995.5,-444 995.5,-456 995.5,-456 995.5,-462 989.5,-468 983.5,-468"/>
<text text-anchor="middle" x="954.5" y="-447.5" font-family="sans" font-size="10.00" fill="#000000">multipleAlign</text>
</g>
<!-- 2&#45;&gt;14 -->
<g id="edge33" class="edge">
<title>2&#45;&gt;14</title>
<path fill="none" stroke="#c0c0c0" stroke-width="2" d="M889.4538,-503.8314C900.1695,-494.9632 913.2189,-484.1637 924.809,-474.5718"/>
<polygon fill="#c0c0c0" stroke="#c0c0c0" stroke-width="2" points="927.0808,-477.2349 932.5533,-468.1628 922.6178,-471.8422 927.0808,-477.2349"/>
</g>
<!-- 16 -->
<g id="node17" class="node">
<title>16</title>
<path fill="none" stroke="#56d873" stroke-width="2" d="M1131.5,-468C1131.5,-468 1039.5,-468 1039.5,-468 1033.5,-468 1027.5,-462 1027.5,-456 1027.5,-456 1027.5,-444 1027.5,-444 1027.5,-438 1033.5,-432 1039.5,-432 1039.5,-432 1131.5,-432 1131.5,-432 1137.5,-432 1143.5,-438 1143.5,-444 1143.5,-444 1143.5,-456 1143.5,-456 1143.5,-462 1137.5,-468 1131.5,-468"/>
<text text-anchor="middle" x="1085.5" y="-447.5" font-family="sans" font-size="10.00" fill="#000000">combineReadCounts</text>
</g>
<!-- 2&#45;&gt;16 -->
<g id="edge36" class="edge">
<title>2&#45;&gt;16</title>
<path fill="none" stroke="#c0c0c0" stroke-width="2" d="M918.0615,-505.3008C948.742,-495.1678 988.1925,-482.1383 1021.0932,-471.272"/>
<polygon fill="#c0c0c0" stroke="#c0c0c0" stroke-width="2" points="1022.2323,-474.5818 1030.6301,-468.1222 1020.037,-467.9349 1022.2323,-474.5818"/>
</g>
<!-- 30 -->
<g id="node31" class="node">
<title>30</title>
<path fill="none" stroke="#68d856" stroke-width="2" d="M886,-396C886,-396 779,-396 779,-396 773,-396 767,-390 767,-384 767,-384 767,-372 767,-372 767,-366 773,-360 779,-360 779,-360 886,-360 886,-360 892,-360 898,-366 898,-372 898,-372 898,-384 898,-384 898,-390 892,-396 886,-396"/>
<text text-anchor="middle" x="832.5" y="-375.5" font-family="sans" font-size="10.00" fill="#000000">combining_annotations</text>
</g>
<!-- 2&#45;&gt;30 -->
<g id="edge60" class="edge">
<title>2&#45;&gt;30</title>
<path fill="none" stroke="#c0c0c0" stroke-width="2" d="M863.0672,-503.7623C857.0712,-479.0928 846.3201,-434.8598 839.299,-405.9731"/>
<polygon fill="#c0c0c0" stroke="#c0c0c0" stroke-width="2" points="842.6596,-404.9801 836.8968,-396.0896 835.8577,-406.6334 842.6596,-404.9801"/>
</g>
<!-- 3 -->
<g id="node4" class="node">
<title>3</title>
<path fill="none" stroke="#56a9d8" stroke-width="2" d="M989.5,-612C989.5,-612 919.5,-612 919.5,-612 913.5,-612 907.5,-606 907.5,-600 907.5,-600 907.5,-588 907.5,-588 907.5,-582 913.5,-576 919.5,-576 919.5,-576 989.5,-576 989.5,-576 995.5,-576 1001.5,-582 1001.5,-588 1001.5,-588 1001.5,-600 1001.5,-600 1001.5,-606 995.5,-612 989.5,-612"/>
<text text-anchor="middle" x="954.5" y="-591.5" font-family="sans" font-size="10.00" fill="#000000">generateSeqtab</text>
</g>
<!-- 3&#45;&gt;2 -->
<g id="edge22" class="edge">
<title>3&#45;&gt;2</title>
<path fill="none" stroke="#c0c0c0" stroke-width="2" d="M932.5462,-575.8314C921.8305,-566.9632 908.7811,-556.1637 897.191,-546.5718"/>
<polygon fill="#c0c0c0" stroke="#c0c0c0" stroke-width="2" points="899.3822,-543.8422 889.4467,-540.1628 894.9192,-549.2349 899.3822,-543.8422"/>
</g>
<!-- 3&#45;&gt;16 -->
<g id="edge38" class="edge">
<title>3&#45;&gt;16</title>
<path fill="none" stroke="#c0c0c0" stroke-width="2" d="M964.2033,-575.8289C974.9462,-556.6945 993.5395,-526.3071 1014.5,-504 1024.7401,-493.102 1037.3569,-482.7424 1049.1004,-474.0656"/>
<polygon fill="#c0c0c0" stroke="#c0c0c0" stroke-width="2" points="1051.375,-476.741 1057.4507,-468.0613 1047.2884,-471.0576 1051.375,-476.741"/>
</g>
<!-- 4 -->
<g id="node5" class="node">
<title>4</title>
<path fill="none" stroke="#d86656" stroke-width="2" d="M1059,-828C1059,-828 1012,-828 1012,-828 1006,-828 1000,-822 1000,-816 1000,-816 1000,-804 1000,-804 1000,-798 1006,-792 1012,-792 1012,-792 1059,-792 1059,-792 1065,-792 1071,-798 1071,-804 1071,-804 1071,-816 1071,-816 1071,-822 1065,-828 1059,-828"/>
<text text-anchor="middle" x="1035.5" y="-807.5" font-family="sans" font-size="10.00" fill="#000000">dada2Filter</text>
</g>
<!-- 4&#45;&gt;0 -->
<g id="edge2" class="edge">
<title>4&#45;&gt;0</title>
<path fill="none" stroke="#c0c0c0" stroke-width="2" d="M1071.1324,-801.3627C1152.2075,-780.672 1343.5,-725.5443 1343.5,-666 1343.5,-666 1343.5,-666 1343.5,-306 1343.5,-188.3002 1323.258,-127.5653 1219.5,-72 1163.2271,-41.8643 973.3481,-25.922 892.0006,-20.3385"/>
<polygon fill="#c0c0c0" stroke="#c0c0c0" stroke-width="2" points="891.9338,-16.8262 881.7218,-19.6487 891.465,-23.8105 891.9338,-16.8262"/>
</g>
<!-- 4&#45;&gt;3 -->
<g id="edge23" class="edge">
<title>4&#45;&gt;3</title>
<path fill="none" stroke="#c0c0c0" stroke-width="2" d="M1006.4435,-791.8724C994.219,-782.6746 981.0936,-770.3921 973.5,-756 951.0827,-713.5128 950.0322,-656.1978 951.8746,-622.3633"/>
<polygon fill="#c0c0c0" stroke="#c0c0c0" stroke-width="2" points="955.3756,-622.463 952.5509,-612.2517 948.3912,-621.9958 955.3756,-622.463"/>
</g>
<!-- 9 -->
<g id="node10" class="node">
<title>9</title>
<path fill="none" stroke="#56d8d8" stroke-width="2" d="M1076.5,-756C1076.5,-756 994.5,-756 994.5,-756 988.5,-756 982.5,-750 982.5,-744 982.5,-744 982.5,-732 982.5,-732 982.5,-726 988.5,-720 994.5,-720 994.5,-720 1076.5,-720 1076.5,-720 1082.5,-720 1088.5,-726 1088.5,-732 1088.5,-732 1088.5,-744 1088.5,-744 1088.5,-750 1082.5,-756 1076.5,-756"/>
<text text-anchor="middle" x="1035.5" y="-735.5" font-family="sans" font-size="10.00" fill="#000000">read_subsampling</text>
</g>
<!-- 4&#45;&gt;9 -->
<g id="edge29" class="edge">
<title>4&#45;&gt;9</title>
<path fill="none" stroke="#c0c0c0" stroke-width="2" d="M1035.5,-791.8314C1035.5,-784.131 1035.5,-774.9743 1035.5,-766.4166"/>
<polygon fill="#c0c0c0" stroke="#c0c0c0" stroke-width="2" points="1039.0001,-766.4132 1035.5,-756.4133 1032.0001,-766.4133 1039.0001,-766.4132"/>
</g>
<!-- 12 -->
<g id="node13" class="node">
<title>12</title>
<path fill="none" stroke="#5663d8" stroke-width="2" d="M651,-180C651,-180 520,-180 520,-180 514,-180 508,-174 508,-168 508,-168 508,-156 508,-156 508,-150 514,-144 520,-144 520,-144 651,-144 651,-144 657,-144 663,-150 663,-156 663,-156 663,-168 663,-168 663,-174 657,-180 651,-180"/>
<text text-anchor="middle" x="585.5" y="-159.5" font-family="sans" font-size="10.00" fill="#000000">plotQualityProfileAfterdada2</text>
</g>
<!-- 4&#45;&gt;12 -->
<g id="edge31" class="edge">
<title>4&#45;&gt;12</title>
<path fill="none" stroke="#c0c0c0" stroke-width="2" d="M999.6803,-809.0539C871.2569,-804.7069 441.5,-781.5295 441.5,-666 441.5,-666 441.5,-666 441.5,-306 441.5,-250.4987 495.6476,-208.9176 537.5352,-185.0545"/>
<polygon fill="#c0c0c0" stroke="#c0c0c0" stroke-width="2" points="539.4677,-187.9857 546.5315,-180.0893 536.0852,-181.8572 539.4677,-187.9857"/>
</g>
<!-- 4&#45;&gt;16 -->
<g id="edge35" class="edge">
<title>4&#45;&gt;16</title>
<path fill="none" stroke="#c0c0c0" stroke-width="2" d="M1061.2028,-791.9763C1073.4379,-782.392 1087.5354,-769.7565 1097.5,-756 1122.9708,-720.8365 1135.5,-709.4193 1135.5,-666 1135.5,-666 1135.5,-666 1135.5,-594 1135.5,-553.0242 1130.0452,-542.3073 1115.5,-504 1112.0333,-494.8699 1107.237,-485.4025 1102.4956,-476.993"/>
<polygon fill="#c0c0c0" stroke="#c0c0c0" stroke-width="2" points="1105.5089,-475.2124 1097.4377,-468.349 1099.4672,-478.7476 1105.5089,-475.2124"/>
</g>
<!-- 25 -->
<g id="node26" class="node">
<title>25</title>
<path fill="none" stroke="#5682d8" stroke-width="2" d="M544,-108C544,-108 449,-108 449,-108 443,-108 437,-102 437,-96 437,-96 437,-84 437,-84 437,-78 443,-72 449,-72 449,-72 544,-72 544,-72 550,-72 556,-78 556,-84 556,-84 556,-96 556,-96 556,-102 550,-108 544,-108"/>
<text text-anchor="middle" x="496.5" y="-87.5" font-family="sans" font-size="10.00" fill="#000000">seqkit_counts_dada2</text>
</g>
<!-- 4&#45;&gt;25 -->
<g id="edge45" class="edge">
<title>4&#45;&gt;25</title>
<path fill="none" stroke="#c0c0c0" stroke-width="2" d="M999.8727,-809.0233C892.5327,-805.6954 573.7194,-792.8811 477.5,-756 414.5836,-731.884 355.5,-733.3799 355.5,-666 355.5,-666 355.5,-666 355.5,-234 355.5,-193.1184 348.7597,-175.7608 374.5,-144 382.8777,-133.6627 408.3082,-121.7277 433.7979,-111.7111"/>
<polygon fill="#c0c0c0" stroke="#c0c0c0" stroke-width="2" points="435.0805,-114.9678 443.16,-108.114 432.5699,-108.4334 435.0805,-114.9678"/>
</g>
<!-- 5 -->
<g id="node6" class="node">
<title>5</title>
<path fill="none" stroke="#5692d8" stroke-width="2" d="M1272,-900C1272,-900 1223,-900 1223,-900 1217,-900 1211,-894 1211,-888 1211,-888 1211,-876 1211,-876 1211,-870 1217,-864 1223,-864 1223,-864 1272,-864 1272,-864 1278,-864 1284,-870 1284,-876 1284,-876 1284,-888 1284,-888 1284,-894 1278,-900 1272,-900"/>
<text text-anchor="middle" x="1247.5" y="-879.5" font-family="sans" font-size="10.00" fill="#000000">cutAdaptQc</text>
</g>
<!-- 5&#45;&gt;4 -->
<g id="edge25" class="edge">
<title>5&#45;&gt;4</title>
<path fill="none" stroke="#c0c0c0" stroke-width="2" d="M1210.5724,-869.4586C1174.6354,-857.2535 1119.9373,-838.6768 1081.2586,-825.5407"/>
<polygon fill="#c0c0c0" stroke="#c0c0c0" stroke-width="2" points="1081.8924,-822.0596 1071.298,-822.1578 1079.6413,-828.6878 1081.8924,-822.0596"/>
</g>
<!-- 10 -->
<g id="node11" class="node">
<title>10</title>
<path fill="none" stroke="#56a2d8" stroke-width="2" d="M1497.5,-180C1497.5,-180 1381.5,-180 1381.5,-180 1375.5,-180 1369.5,-174 1369.5,-168 1369.5,-168 1369.5,-156 1369.5,-156 1369.5,-150 1375.5,-144 1381.5,-144 1381.5,-144 1497.5,-144 1497.5,-144 1503.5,-144 1509.5,-150 1509.5,-156 1509.5,-156 1509.5,-168 1509.5,-168 1509.5,-174 1503.5,-180 1497.5,-180"/>
<text text-anchor="middle" x="1439.5" y="-159.5" font-family="sans" font-size="10.00" fill="#000000">plotQualityProfileAfterQC</text>
</g>
<!-- 5&#45;&gt;10 -->
<g id="edge30" class="edge">
<title>5&#45;&gt;10</title>
<path fill="none" stroke="#c0c0c0" stroke-width="2" d="M1284.3261,-864.8425C1326.6959,-842.2587 1390.5,-798.2481 1390.5,-738 1390.5,-738 1390.5,-738 1390.5,-306 1390.5,-263.531 1409.8374,-217.5922 1424.2165,-189.303"/>
<polygon fill="#c0c0c0" stroke="#c0c0c0" stroke-width="2" points="1427.3314,-190.8993 1428.8677,-180.4164 1421.1295,-187.6532 1427.3314,-190.8993"/>
</g>
<!-- 20 -->
<g id="node21" class="node">
<title>20</title>
<path fill="none" stroke="#70d856" stroke-width="2" d="M1471,-828C1471,-828 1434,-828 1434,-828 1428,-828 1422,-822 1422,-816 1422,-816 1422,-804 1422,-804 1422,-798 1428,-792 1434,-792 1434,-792 1471,-792 1471,-792 1477,-792 1483,-798 1483,-804 1483,-804 1483,-816 1483,-816 1483,-822 1477,-828 1471,-828"/>
<text text-anchor="middle" x="1452.5" y="-807.5" font-family="sans" font-size="10.00" fill="#000000">fastqcFilt</text>
</g>
<!-- 5&#45;&gt;20 -->
<g id="edge41" class="edge">
<title>5&#45;&gt;20</title>
<path fill="none" stroke="#c0c0c0" stroke-width="2" d="M1284.0845,-867.4584C1287.2602,-866.2648 1290.4314,-865.0969 1293.5,-864 1342.3367,-846.5429 1355.5404,-845.1095 1404.5,-828 1407.0507,-827.1086 1409.6715,-826.1755 1412.3099,-825.2231"/>
<polygon fill="#c0c0c0" stroke="#c0c0c0" stroke-width="2" points="1413.661,-828.4557 1421.8472,-821.7299 1411.2535,-821.8827 1413.661,-828.4557"/>
</g>
<!-- 26 -->
<g id="node27" class="node">
<title>26</title>
<path fill="none" stroke="#56c9d8" stroke-width="2" d="M281.5,-108C281.5,-108 173.5,-108 173.5,-108 167.5,-108 161.5,-102 161.5,-96 161.5,-96 161.5,-84 161.5,-84 161.5,-78 167.5,-72 173.5,-72 173.5,-72 281.5,-72 281.5,-72 287.5,-72 293.5,-78 293.5,-84 293.5,-84 293.5,-96 293.5,-96 293.5,-102 287.5,-108 281.5,-108"/>
<text text-anchor="middle" x="227.5" y="-87.5" font-family="sans" font-size="10.00" fill="#000000">seqkit_counts_cutadapt</text>
</g>
<!-- 5&#45;&gt;26 -->
<g id="edge46" class="edge">
<title>5&#45;&gt;26</title>
<path fill="none" stroke="#c0c0c0" stroke-width="2" d="M1210.8252,-880.7789C1028.1833,-874.2231 225.5,-839.6304 225.5,-738 225.5,-738 225.5,-738 225.5,-234 225.5,-193.8721 226.2861,-147.4602 226.8726,-118.416"/>
<polygon fill="#c0c0c0" stroke="#c0c0c0" stroke-width="2" points="230.3766,-118.255 227.0856,-108.1843 223.3782,-118.1092 230.3766,-118.255"/>
</g>
<!-- 6 -->
<g id="node7" class="node">
<title>6</title>
<path fill="none" stroke="#56d892" stroke-width="2" d="M1297.5,-972C1297.5,-972 1261.5,-972 1261.5,-972 1255.5,-972 1249.5,-966 1249.5,-960 1249.5,-960 1249.5,-948 1249.5,-948 1249.5,-942 1255.5,-936 1261.5,-936 1261.5,-936 1297.5,-936 1297.5,-936 1303.5,-936 1309.5,-942 1309.5,-948 1309.5,-948 1309.5,-960 1309.5,-960 1309.5,-966 1303.5,-972 1297.5,-972"/>
<text text-anchor="middle" x="1279.5" y="-951.5" font-family="sans" font-size="10.00" fill="#000000">cutAdapt</text>
</g>
<!-- 6&#45;&gt;5 -->
<g id="edge26" class="edge">
<title>6&#45;&gt;5</title>
<path fill="none" stroke="#c0c0c0" stroke-width="2" d="M1271.425,-935.8314C1267.8898,-927.8771 1263.664,-918.369 1259.7544,-909.5723"/>
<polygon fill="#c0c0c0" stroke="#c0c0c0" stroke-width="2" points="1262.9435,-908.1299 1255.6837,-900.4133 1256.5468,-910.9729 1262.9435,-908.1299"/>
</g>
<!-- 34 -->
<g id="node35" class="node">
<title>34</title>
<path fill="none" stroke="#c6d856" stroke-width="2" d="M131,-108C131,-108 12,-108 12,-108 6,-108 0,-102 0,-96 0,-96 0,-84 0,-84 0,-78 6,-72 12,-72 12,-72 131,-72 131,-72 137,-72 143,-78 143,-84 143,-84 143,-96 143,-96 143,-102 137,-108 131,-108"/>
<text text-anchor="middle" x="71.5" y="-87.5" font-family="sans" font-size="10.00" fill="#000000">seqkit_counts_primerRMV</text>
</g>
<!-- 6&#45;&gt;34 -->
<g id="edge66" class="edge">
<title>6&#45;&gt;34</title>
<path fill="none" stroke="#c0c0c0" stroke-width="2" d="M1249.4363,-953.4731C1068.6218,-949.9178 133.5,-925.9273 133.5,-810 133.5,-810 133.5,-810 133.5,-234 133.5,-190.0364 108.8191,-144.2257 90.6013,-116.3997"/>
<polygon fill="#c0c0c0" stroke="#c0c0c0" stroke-width="2" points="93.4455,-114.3572 84.9531,-108.0224 87.6415,-118.2705 93.4455,-114.3572"/>
</g>
<!-- 35 -->
<g id="node36" class="node">
<title>35</title>
<path fill="none" stroke="#59d856" stroke-width="2" d="M1424.5,-900C1424.5,-900 1314.5,-900 1314.5,-900 1308.5,-900 1302.5,-894 1302.5,-888 1302.5,-888 1302.5,-876 1302.5,-876 1302.5,-870 1308.5,-864 1314.5,-864 1314.5,-864 1424.5,-864 1424.5,-864 1430.5,-864 1436.5,-870 1436.5,-876 1436.5,-876 1436.5,-888 1436.5,-888 1436.5,-894 1430.5,-900 1424.5,-900"/>
<text text-anchor="middle" x="1369.5" y="-879.5" font-family="sans" font-size="10.00" fill="#000000">primerRMVinvestigation</text>
</g>
<!-- 6&#45;&gt;35 -->
<g id="edge68" class="edge">
<title>6&#45;&gt;35</title>
<path fill="none" stroke="#c0c0c0" stroke-width="2" d="M1302.2108,-935.8314C1313.296,-926.9632 1326.7954,-916.1637 1338.7852,-906.5718"/>
<polygon fill="#c0c0c0" stroke="#c0c0c0" stroke-width="2" points="1341.1742,-909.1429 1346.7965,-900.1628 1336.8013,-903.6768 1341.1742,-909.1429"/>
</g>
<!-- 7 -->
<g id="node8" class="node">
<title>7</title>
<path fill="none" stroke="#80d856" stroke-width="2" d="M1333,-1044C1333,-1044 1284,-1044 1284,-1044 1278,-1044 1272,-1038 1272,-1032 1272,-1032 1272,-1020 1272,-1020 1272,-1014 1278,-1008 1284,-1008 1284,-1008 1333,-1008 1333,-1008 1339,-1008 1345,-1014 1345,-1020 1345,-1020 1345,-1032 1345,-1032 1345,-1038 1339,-1044 1333,-1044"/>
<text text-anchor="middle" x="1308.5" y="-1023.5" font-family="sans" font-size="10.00" fill="#000000">filterNsRaw</text>
</g>
<!-- 7&#45;&gt;6 -->
<g id="edge27" class="edge">
<title>7&#45;&gt;6</title>
<path fill="none" stroke="#c0c0c0" stroke-width="2" d="M1301.1821,-1007.8314C1298.0124,-999.9617 1294.23,-990.5712 1290.7187,-981.8533"/>
<polygon fill="#c0c0c0" stroke="#c0c0c0" stroke-width="2" points="1293.8992,-980.3815 1286.9165,-972.4133 1287.4061,-982.9968 1293.8992,-980.3815"/>
</g>
<!-- 7&#45;&gt;35 -->
<g id="edge69" class="edge">
<title>7&#45;&gt;35</title>
<path fill="none" stroke="#c0c0c0" stroke-width="2" d="M1316.2257,-1007.7623C1326.7218,-982.9846 1345.5781,-938.4714 1357.8109,-909.5939"/>
<polygon fill="#c0c0c0" stroke="#c0c0c0" stroke-width="2" points="1361.1592,-910.6628 1361.837,-900.0896 1354.7136,-907.9323 1361.1592,-910.6628"/>
</g>
<!-- 8 -->
<g id="node9" class="node">
<title>8</title>
<path fill="none" stroke="#d89c56" stroke-width="2" d="M1066.5,-684C1066.5,-684 998.5,-684 998.5,-684 992.5,-684 986.5,-678 986.5,-672 986.5,-672 986.5,-660 986.5,-660 986.5,-654 992.5,-648 998.5,-648 998.5,-648 1066.5,-648 1066.5,-648 1072.5,-648 1078.5,-654 1078.5,-660 1078.5,-660 1078.5,-672 1078.5,-672 1078.5,-678 1072.5,-684 1066.5,-684"/>
<text text-anchor="middle" x="1032.5" y="-663.5" font-family="sans" font-size="10.00" fill="#000000">learnErrorRates</text>
</g>
<!-- 8&#45;&gt;3 -->
<g id="edge24" class="edge">
<title>8&#45;&gt;3</title>
<path fill="none" stroke="#c0c0c0" stroke-width="2" d="M1012.8173,-647.8314C1003.3949,-639.1337 991.9599,-628.5783 981.7204,-619.1265"/>
<polygon fill="#c0c0c0" stroke="#c0c0c0" stroke-width="2" points="983.8984,-616.3738 974.1764,-612.1628 979.1505,-621.5175 983.8984,-616.3738"/>
</g>
<!-- 9&#45;&gt;8 -->
<g id="edge28" class="edge">
<title>9&#45;&gt;8</title>
<path fill="none" stroke="#c0c0c0" stroke-width="2" d="M1034.743,-719.8314C1034.4221,-712.131 1034.0406,-702.9743 1033.684,-694.4166"/>
<polygon fill="#c0c0c0" stroke="#c0c0c0" stroke-width="2" points="1037.1806,-694.2589 1033.2672,-684.4133 1030.1867,-694.5503 1037.1806,-694.2589"/>
</g>
<!-- 10&#45;&gt;0 -->
<g id="edge17" class="edge">
<title>10&#45;&gt;0</title>
<path fill="none" stroke="#c0c0c0" stroke-width="2" d="M1428.4329,-143.8546C1414.3775,-122.605 1387.999,-88.2483 1355.5,-72 1273.9748,-31.2404 993.2331,-21.0574 891.6005,-18.6793"/>
<polygon fill="#c0c0c0" stroke="#c0c0c0" stroke-width="2" points="891.5753,-15.178 881.5001,-18.4552 891.4199,-22.1763 891.5753,-15.178"/>
</g>
<!-- 10&#45;&gt;27 -->
<g id="edge52" class="edge">
<title>10&#45;&gt;27</title>
<path fill="none" stroke="#c0c0c0" stroke-width="2" d="M1369.2361,-148.9613C1288.3926,-133.9595 1158.3477,-109.8274 1092.514,-97.6108"/>
<polygon fill="#c0c0c0" stroke="#c0c0c0" stroke-width="2" points="1092.9875,-94.139 1082.5168,-95.7557 1091.7103,-101.0215 1092.9875,-94.139"/>
</g>
<!-- 11 -->
<g id="node12" class="node">
<title>11</title>
<path fill="none" stroke="#56b9d8" stroke-width="2" d="M1011.5,-180C1011.5,-180 913.5,-180 913.5,-180 907.5,-180 901.5,-174 901.5,-168 901.5,-168 901.5,-156 901.5,-156 901.5,-150 907.5,-144 913.5,-144 913.5,-144 1011.5,-144 1011.5,-144 1017.5,-144 1023.5,-150 1023.5,-156 1023.5,-156 1023.5,-168 1023.5,-168 1023.5,-174 1017.5,-180 1011.5,-180"/>
<text text-anchor="middle" x="962.5" y="-159.5" font-family="sans" font-size="10.00" fill="#000000">plotQualityProfileRaw</text>
</g>
<!-- 11&#45;&gt;0 -->
<g id="edge16" class="edge">
<title>11&#45;&gt;0</title>
<path fill="none" stroke="#c0c0c0" stroke-width="2" d="M948.8217,-143.7623C929.9139,-118.5518 895.6827,-72.9103 874.0714,-44.0952"/>
<polygon fill="#c0c0c0" stroke="#c0c0c0" stroke-width="2" points="876.8673,-41.9896 868.0672,-36.0896 871.2672,-46.1897 876.8673,-41.9896"/>
</g>
<!-- 11&#45;&gt;27 -->
<g id="edge50" class="edge">
<title>11&#45;&gt;27</title>
<path fill="none" stroke="#c0c0c0" stroke-width="2" d="M984.9585,-143.8314C995.9205,-134.9632 1009.2699,-124.1637 1021.1265,-114.5718"/>
<polygon fill="#c0c0c0" stroke="#c0c0c0" stroke-width="2" points="1023.4755,-117.1734 1029.0487,-108.1628 1019.0729,-111.7313 1023.4755,-117.1734"/>
</g>
<!-- 12&#45;&gt;0 -->
<g id="edge20" class="edge">
<title>12&#45;&gt;0</title>
<path fill="none" stroke="#c0c0c0" stroke-width="2" d="M621.7003,-143.9562C642.0501,-133.67 667.8402,-120.3949 690.5,-108 718.455,-92.7086 724.6364,-87.4573 752.5,-72 774.13,-60.0008 798.618,-47.017 818.1778,-36.7886"/>
<polygon fill="#c0c0c0" stroke="#c0c0c0" stroke-width="2" points="819.8214,-39.8789 827.0692,-32.1511 816.5842,-33.6724 819.8214,-39.8789"/>
</g>
<!-- 12&#45;&gt;27 -->
<g id="edge55" class="edge">
<title>12&#45;&gt;27</title>
<path fill="none" stroke="#c0c0c0" stroke-width="2" d="M663.2421,-145.6645C666.3661,-145.0876 669.4611,-144.5303 672.5,-144 794.8736,-122.6442 940.5813,-103.6877 1010.3202,-95.0106"/>
<polygon fill="#c0c0c0" stroke="#c0c0c0" stroke-width="2" points="1010.9522,-98.4592 1020.4463,-93.7567 1010.0919,-91.5123 1010.9522,-98.4592"/>
</g>
<!-- 13&#45;&gt;0 -->
<g id="edge14" class="edge">
<title>13&#45;&gt;0</title>
<path fill="none" stroke="#c0c0c0" stroke-width="2" d="M616.6437,-439.858C568.6086,-421.4274 479.5,-377.5894 479.5,-306 479.5,-306 479.5,-306 479.5,-234 479.5,-193.0242 470.6034,-173.0517 499.5,-144 550.2907,-92.9366 595.2296,-144.1878 657.5,-108 676.2663,-97.0942 672.2672,-83.7761 690.5,-72 729.8643,-46.5757 782.3083,-32.0658 817.1786,-24.6211"/>
<polygon fill="#c0c0c0" stroke="#c0c0c0" stroke-width="2" points="818.3048,-27.9634 827.4023,-22.5332 816.9042,-21.1049 818.3048,-27.9634"/>
</g>
<!-- 13&#45;&gt;30 -->
<g id="edge59" class="edge">
<title>13&#45;&gt;30</title>
<path fill="none" stroke="#c0c0c0" stroke-width="2" d="M676.3841,-438.432C703.302,-428.0121 743.5769,-412.4218 776.4769,-399.6864"/>
<polygon fill="#c0c0c0" stroke="#c0c0c0" stroke-width="2" points="777.9221,-402.8801 785.9842,-396.0061 775.3951,-396.3521 777.9221,-402.8801"/>
</g>
<!-- 14&#45;&gt;0 -->
<g id="edge9" class="edge">
<title>14&#45;&gt;0</title>
<path fill="none" stroke="#c0c0c0" stroke-width="2" d="M950.3304,-431.9875C934.765,-364.7447 879.9813,-128.0792 861.0182,-46.1585"/>
<polygon fill="#c0c0c0" stroke="#c0c0c0" stroke-width="2" points="864.3525,-45.0424 858.6874,-36.0894 857.5328,-46.6211 864.3525,-45.0424"/>
</g>
<!-- 15 -->
<g id="node16" class="node">
<title>15</title>
<path fill="none" stroke="#5673d8" stroke-width="2" d="M1265,-252C1265,-252 1218,-252 1218,-252 1212,-252 1206,-246 1206,-240 1206,-240 1206,-228 1206,-228 1206,-222 1212,-216 1218,-216 1218,-216 1265,-216 1265,-216 1271,-216 1277,-222 1277,-228 1277,-228 1277,-240 1277,-240 1277,-246 1271,-252 1265,-252"/>
<text text-anchor="middle" x="1241.5" y="-231.5" font-family="sans" font-size="10.00" fill="#000000">newickTree</text>
</g>
<!-- 14&#45;&gt;15 -->
<g id="edge34" class="edge">
<title>14&#45;&gt;15</title>
<path fill="none" stroke="#c0c0c0" stroke-width="2" d="M995.6789,-434.6532C1018.6637,-425.1685 1047.2604,-411.798 1070.5,-396 1129.9891,-355.5601 1188.4589,-294.211 1219.2246,-259.7784"/>
<polygon fill="#c0c0c0" stroke="#c0c0c0" stroke-width="2" points="1222.0671,-261.8479 1226.076,-252.0408 1216.8263,-257.2073 1222.0671,-261.8479"/>
</g>
<!-- 29 -->
<g id="node30" class="node">
<title>29</title>
<path fill="none" stroke="#d8bc56" stroke-width="2" d="M1049,-396C1049,-396 990,-396 990,-396 984,-396 978,-390 978,-384 978,-384 978,-372 978,-372 978,-366 984,-360 990,-360 990,-360 1049,-360 1049,-360 1055,-360 1061,-366 1061,-372 1061,-372 1061,-384 1061,-384 1061,-390 1055,-396 1049,-396"/>
<text text-anchor="middle" x="1019.5" y="-375.5" font-family="sans" font-size="10.00" fill="#000000">vsearchGTDB</text>
</g>
<!-- 14&#45;&gt;29 -->
<g id="edge58" class="edge">
<title>14&#45;&gt;29</title>
<path fill="none" stroke="#c0c0c0" stroke-width="2" d="M970.9022,-431.8314C978.5415,-423.3694 987.7683,-413.1489 996.1207,-403.8971"/>
<polygon fill="#c0c0c0" stroke="#c0c0c0" stroke-width="2" points="998.7738,-406.1813 1002.8769,-396.4133 993.5779,-401.4906 998.7738,-406.1813"/>
</g>
<!-- 15&#45;&gt;0 -->
<g id="edge19" class="edge">
<title>15&#45;&gt;0</title>
<path fill="none" stroke="#c0c0c0" stroke-width="2" d="M1246.4519,-215.7809C1250.5874,-196.6065 1254.0074,-166.1861 1241.5,-144 1211.1428,-90.1514 1180.0999,-94.4386 1122.5,-72 1043.6804,-41.295 944.7158,-27.1704 891.8562,-21.4221"/>
<polygon fill="#c0c0c0" stroke="#c0c0c0" stroke-width="2" points="891.9191,-17.9096 881.6093,-20.3506 891.1911,-24.8717 891.9191,-17.9096"/>
</g>
<!-- 16&#45;&gt;0 -->
<g id="edge10" class="edge">
<title>16&#45;&gt;0</title>
<path fill="none" stroke="#c0c0c0" stroke-width="2" d="M1115.6128,-431.8006C1162.604,-401.4105 1251.6017,-335.3642 1286.5,-252 1305.6058,-206.3605 1287.2425,-184.9677 1259.5,-144 1232.8629,-104.6648 1223.243,-92.7323 1180.5,-72 1130.0727,-47.5404 966.7133,-28.9608 892.1875,-21.5342"/>
<polygon fill="#c0c0c0" stroke="#c0c0c0" stroke-width="2" points="892.1547,-18.0143 881.8605,-20.5201 891.4705,-24.9808 892.1547,-18.0143"/>
</g>
<!-- 16&#45;&gt;27 -->
<g id="edge51" class="edge">
<title>16&#45;&gt;27</title>
<path fill="none" stroke="#c0c0c0" stroke-width="2" d="M1095.0675,-431.7307C1121.9678,-379.9777 1197.0553,-232.7289 1208.5,-180 1211.8937,-164.3641 1217.7935,-157.0243 1208.5,-144 1201.4957,-134.1839 1136.5616,-114.1266 1092.4265,-101.4116"/>
<polygon fill="#c0c0c0" stroke="#c0c0c0" stroke-width="2" points="1093.3805,-98.0442 1082.8036,-98.6603 1091.4562,-104.7745 1093.3805,-98.0442"/>
</g>
<!-- 17 -->
<g id="node18" class="node">
<title>17</title>
<path fill="none" stroke="#bed856" stroke-width="2" d="M1094,-540C1094,-540 1035,-540 1035,-540 1029,-540 1023,-534 1023,-528 1023,-528 1023,-516 1023,-516 1023,-510 1029,-504 1035,-504 1035,-504 1094,-504 1094,-504 1100,-504 1106,-510 1106,-516 1106,-516 1106,-528 1106,-528 1106,-534 1100,-540 1094,-540"/>
<text text-anchor="middle" x="1064.5" y="-519.5" font-family="sans" font-size="10.00" fill="#000000">numSeqParse</text>
</g>
<!-- 17&#45;&gt;16 -->
<g id="edge37" class="edge">
<title>17&#45;&gt;16</title>
<path fill="none" stroke="#c0c0c0" stroke-width="2" d="M1069.7992,-503.8314C1072.0698,-496.0463 1074.7746,-486.7729 1077.294,-478.1347"/>
<polygon fill="#c0c0c0" stroke="#c0c0c0" stroke-width="2" points="1080.6894,-478.9933 1080.1295,-468.4133 1073.9694,-477.0332 1080.6894,-478.9933"/>
</g>
<!-- 18 -->
<g id="node19" class="node">
<title>18</title>
<path fill="none" stroke="#d8ac56" stroke-width="2" d="M1095,-612C1095,-612 1032,-612 1032,-612 1026,-612 1020,-606 1020,-600 1020,-600 1020,-588 1020,-588 1020,-582 1026,-576 1032,-576 1032,-576 1095,-576 1095,-576 1101,-576 1107,-582 1107,-588 1107,-588 1107,-600 1107,-600 1107,-606 1101,-612 1095,-612"/>
<text text-anchor="middle" x="1063.5" y="-591.5" font-family="sans" font-size="10.00" fill="#000000">rawReadCount</text>
</g>
<!-- 18&#45;&gt;17 -->
<g id="edge39" class="edge">
<title>18&#45;&gt;17</title>
<path fill="none" stroke="#c0c0c0" stroke-width="2" d="M1063.7523,-575.8314C1063.8593,-568.131 1063.9865,-558.9743 1064.1053,-550.4166"/>
<polygon fill="#c0c0c0" stroke="#c0c0c0" stroke-width="2" points="1067.6049,-550.4609 1064.2443,-540.4133 1060.6056,-550.3637 1067.6049,-550.4609"/>
</g>
<!-- 19 -->
<g id="node20" class="node">
<title>19</title>
<path fill="none" stroke="#afd856" stroke-width="2" d="M1530.5,-684C1530.5,-684 1486.5,-684 1486.5,-684 1480.5,-684 1474.5,-678 1474.5,-672 1474.5,-672 1474.5,-660 1474.5,-660 1474.5,-654 1480.5,-648 1486.5,-648 1486.5,-648 1530.5,-648 1530.5,-648 1536.5,-648 1542.5,-654 1542.5,-660 1542.5,-660 1542.5,-672 1542.5,-672 1542.5,-678 1536.5,-684 1530.5,-684"/>
<text text-anchor="middle" x="1508.5" y="-663.5" font-family="sans" font-size="10.00" fill="#000000">multiqcFilt</text>
</g>
<!-- 19&#45;&gt;0 -->
<g id="edge6" class="edge">
<title>19&#45;&gt;0</title>
<path fill="none" stroke="#c0c0c0" stroke-width="2" d="M1514.6502,-647.5984C1523.1628,-620.4466 1537.5,-567.9035 1537.5,-522 1537.5,-522 1537.5,-522 1537.5,-162 1537.5,-124.4236 1616.0957,-143.4454 1391.5,-72 1297.9445,-42.2393 997.7338,-25.0181 891.8774,-19.7487"/>
<polygon fill="#c0c0c0" stroke="#c0c0c0" stroke-width="2" points="891.8344,-16.2425 881.6749,-19.2481 891.4913,-23.2341 891.8344,-16.2425"/>
</g>
<!-- 20&#45;&gt;19 -->
<g id="edge40" class="edge">
<title>20&#45;&gt;19</title>
<path fill="none" stroke="#c0c0c0" stroke-width="2" d="M1459.5924,-791.7623C1469.2282,-766.9846 1486.5389,-722.4714 1497.769,-693.5939"/>
<polygon fill="#c0c0c0" stroke="#c0c0c0" stroke-width="2" points="1501.1026,-694.6783 1501.4651,-684.0896 1494.5786,-692.1411 1501.1026,-694.6783"/>
</g>
<!-- 21 -->
<g id="node22" class="node">
<title>21</title>
<path fill="none" stroke="#d85656" stroke-width="2" d="M636.5,-108C636.5,-108 586.5,-108 586.5,-108 580.5,-108 574.5,-102 574.5,-96 574.5,-96 574.5,-84 574.5,-84 574.5,-78 580.5,-72 586.5,-72 586.5,-72 636.5,-72 636.5,-72 642.5,-72 648.5,-78 648.5,-84 648.5,-84 648.5,-96 648.5,-96 648.5,-102 642.5,-108 636.5,-108"/>
<text text-anchor="middle" x="611.5" y="-87.5" font-family="sans" font-size="10.00" fill="#000000">multiqcRaw</text>
</g>
<!-- 21&#45;&gt;0 -->
<g id="edge1" class="edge">
<title>21&#45;&gt;0</title>
<path fill="none" stroke="#c0c0c0" stroke-width="2" d="M648.7293,-76.5454C653.3516,-74.968 658.0244,-73.4175 662.5,-72 715.984,-55.0602 778.6755,-37.9326 817.4962,-27.6402"/>
<polygon fill="#c0c0c0" stroke="#c0c0c0" stroke-width="2" points="818.5327,-30.9866 827.308,-25.0498 816.7458,-24.2185 818.5327,-30.9866"/>
</g>
<!-- 22 -->
<g id="node23" class="node">
<title>22</title>
<path fill="none" stroke="#d6d856" stroke-width="2" d="M439.5,-180C439.5,-180 395.5,-180 395.5,-180 389.5,-180 383.5,-174 383.5,-168 383.5,-168 383.5,-156 383.5,-156 383.5,-150 389.5,-144 395.5,-144 395.5,-144 439.5,-144 439.5,-144 445.5,-144 451.5,-150 451.5,-156 451.5,-156 451.5,-168 451.5,-168 451.5,-174 445.5,-180 439.5,-180"/>
<text text-anchor="middle" x="417.5" y="-159.5" font-family="sans" font-size="10.00" fill="#000000">fastqcRaw</text>
</g>
<!-- 22&#45;&gt;21 -->
<g id="edge42" class="edge">
<title>22&#45;&gt;21</title>
<path fill="none" stroke="#c0c0c0" stroke-width="2" d="M451.5678,-149.1612C456.2453,-147.417 460.9889,-145.6577 465.5,-144 507.0666,-128.725 519.7205,-125.0469 564.8907,-108.1832"/>
<polygon fill="#c0c0c0" stroke="#c0c0c0" stroke-width="2" points="566.2414,-111.4148 574.3765,-104.6273 563.7842,-104.8602 566.2414,-111.4148"/>
</g>
<!-- 23 -->
<g id="node24" class="node">
<title>23</title>
<path fill="none" stroke="#56d882" stroke-width="2" d="M407,-108C407,-108 324,-108 324,-108 318,-108 312,-102 312,-96 312,-96 312,-84 312,-84 312,-78 318,-72 324,-72 324,-72 407,-72 407,-72 413,-72 419,-78 419,-84 419,-84 419,-96 419,-96 419,-102 413,-108 407,-108"/>
<text text-anchor="middle" x="365.5" y="-87.5" font-family="sans" font-size="10.00" fill="#000000">seqkit_counts_raw</text>
</g>
<!-- 23&#45;&gt;0 -->
<g id="edge11" class="edge">
<title>23&#45;&gt;0</title>
<path fill="none" stroke="#c0c0c0" stroke-width="2" d="M419.3228,-74.039C422.4164,-73.3037 425.4913,-72.6168 428.5,-72 570.5005,-42.8906 742.544,-26.8485 817.0776,-20.8163"/>
<polygon fill="#c0c0c0" stroke="#c0c0c0" stroke-width="2" points="817.6609,-24.2811 827.3517,-19.9986 817.1055,-17.3031 817.6609,-24.2811"/>
</g>
<!-- 24 -->
<g id="node25" class="node">
<title>24</title>
<path fill="none" stroke="#d8cb56" stroke-width="2" d="M315,-180C315,-180 266,-180 266,-180 260,-180 254,-174 254,-168 254,-168 254,-156 254,-156 254,-150 260,-144 266,-144 266,-144 315,-144 315,-144 321,-144 327,-150 327,-156 327,-156 327,-168 327,-168 327,-174 321,-180 315,-180"/>
<text text-anchor="middle" x="290.5" y="-159.5" font-family="sans" font-size="10.00" fill="#000000">list_sample</text>
</g>
<!-- 24&#45;&gt;23 -->
<g id="edge43" class="edge">
<title>24&#45;&gt;23</title>
<path fill="none" stroke="#c0c0c0" stroke-width="2" d="M309.4257,-143.8314C318.4857,-135.1337 329.4809,-124.5783 339.3265,-115.1265"/>
<polygon fill="#c0c0c0" stroke="#c0c0c0" stroke-width="2" points="341.7904,-117.613 346.5804,-108.1628 336.9426,-112.5633 341.7904,-117.613"/>
</g>
<!-- 24&#45;&gt;25 -->
<g id="edge44" class="edge">
<title>24&#45;&gt;25</title>
<path fill="none" stroke="#c0c0c0" stroke-width="2" d="M327.2648,-149.0042C332.0526,-147.3176 336.8925,-145.6157 341.5,-144 372.1695,-133.2453 406.2768,-121.3552 434.6712,-111.476"/>
<polygon fill="#c0c0c0" stroke="#c0c0c0" stroke-width="2" points="436.1663,-114.6617 444.4614,-108.0706 433.8666,-108.0502 436.1663,-114.6617"/>
</g>
<!-- 24&#45;&gt;26 -->
<g id="edge47" class="edge">
<title>24&#45;&gt;26</title>
<path fill="none" stroke="#c0c0c0" stroke-width="2" d="M274.6024,-143.8314C267.2722,-135.454 258.434,-125.3531 250.4031,-116.1749"/>
<polygon fill="#c0c0c0" stroke="#c0c0c0" stroke-width="2" points="252.8307,-113.6343 243.6116,-108.4133 247.5627,-118.2438 252.8307,-113.6343"/>
</g>
<!-- 24&#45;&gt;34 -->
<g id="edge67" class="edge">
<title>24&#45;&gt;34</title>
<path fill="none" stroke="#c0c0c0" stroke-width="2" d="M253.8443,-149.9488C221.7401,-139.394 174.3467,-123.8126 135.9238,-111.1804"/>
<polygon fill="#c0c0c0" stroke="#c0c0c0" stroke-width="2" points="136.9563,-107.8356 126.3633,-108.0373 134.77,-114.4855 136.9563,-107.8356"/>
</g>
<!-- 25&#45;&gt;0 -->
<g id="edge18" class="edge">
<title>25&#45;&gt;0</title>
<path fill="none" stroke="#c0c0c0" stroke-width="2" d="M556.2764,-74.1309C559.391,-73.3903 562.4795,-72.6753 565.5,-72 655.3489,-51.9126 762.0577,-33.3238 817.2625,-24.0942"/>
<polygon fill="#c0c0c0" stroke="#c0c0c0" stroke-width="2" points="817.9861,-27.522 827.2762,-22.4284 816.8373,-20.6169 817.9861,-27.522"/>
</g>
<!-- 26&#45;&gt;0 -->
<g id="edge15" class="edge">
<title>26&#45;&gt;0</title>
<path fill="none" stroke="#c0c0c0" stroke-width="2" d="M293.7123,-73.7629C297.0139,-73.1277 300.29,-72.5349 303.5,-72 495.2804,-40.0414 727.9979,-24.8729 817.2256,-19.9139"/>
<polygon fill="#c0c0c0" stroke="#c0c0c0" stroke-width="2" points="817.589,-23.3994 827.3833,-19.3593 817.2074,-16.4098 817.589,-23.3994"/>
</g>
<!-- 27&#45;&gt;0 -->
<g id="edge3" class="edge">
<title>27&#45;&gt;0</title>
<path fill="none" stroke="#c0c0c0" stroke-width="2" d="M1020.2848,-78.5914C985.2278,-65.7787 928.3893,-45.0052 891.225,-31.4223"/>
<polygon fill="#c0c0c0" stroke="#c0c0c0" stroke-width="2" points="892.3565,-28.1095 881.7627,-27.964 889.9535,-34.6841 892.3565,-28.1095"/>
</g>
<!-- 28 -->
<g id="node29" class="node">
<title>28</title>
<path fill="none" stroke="#9fd856" stroke-width="2" d="M1099.5,-324C1099.5,-324 997.5,-324 997.5,-324 991.5,-324 985.5,-318 985.5,-312 985.5,-312 985.5,-300 985.5,-300 985.5,-294 991.5,-288 997.5,-288 997.5,-288 1099.5,-288 1099.5,-288 1105.5,-288 1111.5,-294 1111.5,-300 1111.5,-300 1111.5,-312 1111.5,-312 1111.5,-318 1105.5,-324 1099.5,-324"/>
<text text-anchor="middle" x="1048.5" y="-303.5" font-family="sans" font-size="10.00" fill="#000000">separate_vsearch_hits</text>
</g>
<!-- 28&#45;&gt;27 -->
<g id="edge49" class="edge">
<title>28&#45;&gt;27</title>
<path fill="none" stroke="#c0c0c0" stroke-width="2" d="M1047.6458,-287.5103C1047.2067,-277.0847 1046.7188,-263.8186 1046.5,-252 1046.2039,-236.0027 1042.6531,-231.5307 1046.5,-216 1050.8498,-198.439 1061.1502,-197.561 1065.5,-180 1069.3469,-164.4693 1067.524,-159.8715 1065.5,-144 1064.4146,-135.4887 1062.4038,-126.4011 1060.238,-118.1555"/>
<polygon fill="#c0c0c0" stroke="#c0c0c0" stroke-width="2" points="1063.5363,-116.9542 1057.4698,-108.2681 1056.7955,-118.8414 1063.5363,-116.9542"/>
</g>
<!-- 31 -->
<g id="node32" class="node">
<title>31</title>
<path fill="none" stroke="#56d8a9" stroke-width="2" d="M1187,-180C1187,-180 1130,-180 1130,-180 1124,-180 1118,-174 1118,-168 1118,-168 1118,-156 1118,-156 1118,-150 1124,-144 1130,-144 1130,-144 1187,-144 1187,-144 1193,-144 1199,-150 1199,-156 1199,-156 1199,-168 1199,-168 1199,-174 1193,-180 1187,-180"/>
<text text-anchor="middle" x="1158.5" y="-159.5" font-family="sans" font-size="10.00" fill="#000000">vsearchParse</text>
</g>
<!-- 28&#45;&gt;31 -->
<g id="edge63" class="edge">
<title>28&#45;&gt;31</title>
<path fill="none" stroke="#c0c0c0" stroke-width="2" d="M1047.6732,-287.7324C1047.698,-268.2377 1050.4389,-237.2892 1065.5,-216 1076.1362,-200.9655 1092.3833,-189.4997 1108.3383,-181.0847"/>
<polygon fill="#c0c0c0" stroke="#c0c0c0" stroke-width="2" points="1110.2411,-184.0484 1117.6539,-176.4787 1107.1385,-177.7735 1110.2411,-184.0484"/>
</g>
<!-- 32 -->
<g id="node33" class="node">
<title>32</title>
<path fill="none" stroke="#d88556" stroke-width="2" d="M1137,-252C1137,-252 1086,-252 1086,-252 1080,-252 1074,-246 1074,-240 1074,-240 1074,-228 1074,-228 1074,-222 1080,-216 1086,-216 1086,-216 1137,-216 1137,-216 1143,-216 1149,-222 1149,-228 1149,-228 1149,-240 1149,-240 1149,-246 1143,-252 1137,-252"/>
<text text-anchor="middle" x="1111.5" y="-231.5" font-family="sans" font-size="10.00" fill="#000000">vsearchURE</text>
</g>
<!-- 28&#45;&gt;32 -->
<g id="edge64" class="edge">
<title>28&#45;&gt;32</title>
<path fill="none" stroke="#c0c0c0" stroke-width="2" d="M1064.3976,-287.8314C1071.7278,-279.454 1080.566,-269.3531 1088.5969,-260.1749"/>
<polygon fill="#c0c0c0" stroke="#c0c0c0" stroke-width="2" points="1091.4373,-262.2438 1095.3884,-252.4133 1086.1693,-257.6343 1091.4373,-262.2438"/>
</g>
<!-- 29&#45;&gt;28 -->
<g id="edge56" class="edge">
<title>29&#45;&gt;28</title>
<path fill="none" stroke="#c0c0c0" stroke-width="2" d="M1026.8179,-359.8314C1029.9876,-351.9617 1033.77,-342.5712 1037.2813,-333.8533"/>
<polygon fill="#c0c0c0" stroke="#c0c0c0" stroke-width="2" points="1040.5939,-334.9968 1041.0835,-324.4133 1034.1008,-332.3815 1040.5939,-334.9968"/>
</g>
<!-- 30&#45;&gt;0 -->
<g id="edge7" class="edge">
<title>30&#45;&gt;0</title>
<path fill="none" stroke="#c0c0c0" stroke-width="2" d="M833.6212,-359.6526C837.2109,-300.9129 848.4377,-117.2013 852.7703,-46.3047"/>
<polygon fill="#c0c0c0" stroke="#c0c0c0" stroke-width="2" points="856.2644,-46.5053 853.381,-36.3104 849.2775,-46.0783 856.2644,-46.5053"/>
</g>
<!-- 30&#45;&gt;27 -->
<g id="edge48" class="edge">
<title>30&#45;&gt;27</title>
<path fill="none" stroke="#c0c0c0" stroke-width="2" d="M842.9495,-359.9444C854.4476,-340.9065 874.1508,-310.5989 895.5,-288 948.7441,-231.6394 991.6022,-245.8698 1032.5,-180 1044.0315,-161.4275 1048.6632,-136.9824 1050.477,-118.2563"/>
<polygon fill="#c0c0c0" stroke="#c0c0c0" stroke-width="2" points="1053.9697,-118.4834 1051.2355,-108.2475 1046.9898,-117.9544 1053.9697,-118.4834"/>
</g>
<!-- 30&#45;&gt;28 -->
<g id="edge57" class="edge">
<title>30&#45;&gt;28</title>
<path fill="none" stroke="#c0c0c0" stroke-width="2" d="M886.7271,-359.9243C916.384,-350.0387 953.3037,-337.7321 984.3821,-327.3726"/>
<polygon fill="#c0c0c0" stroke="#c0c0c0" stroke-width="2" points="985.8706,-330.5659 994.2506,-324.0831 983.6569,-323.9251 985.8706,-330.5659"/>
</g>
<!-- 30&#45;&gt;31 -->
<g id="edge62" class="edge">
<title>30&#45;&gt;31</title>
<path fill="none" stroke="#c0c0c0" stroke-width="2" d="M853.3606,-359.9568C890.5235,-328.3405 971.3548,-261.9289 1046.5,-216 1066.1371,-203.9978 1088.8435,-192.6266 1108.6568,-183.4426"/>
<polygon fill="#c0c0c0" stroke="#c0c0c0" stroke-width="2" points="1110.1892,-186.5905 1117.829,-179.2499 1107.279,-180.2241 1110.1892,-186.5905"/>
</g>
<!-- 33 -->
<g id="node34" class="node">
<title>33</title>
<path fill="none" stroke="#56d8a2" stroke-width="2" d="M800.5,-324C800.5,-324 744.5,-324 744.5,-324 738.5,-324 732.5,-318 732.5,-312 732.5,-312 732.5,-300 732.5,-300 732.5,-294 738.5,-288 744.5,-288 744.5,-288 800.5,-288 800.5,-288 806.5,-288 812.5,-294 812.5,-300 812.5,-300 812.5,-312 812.5,-312 812.5,-318 806.5,-324 800.5,-324"/>
<text text-anchor="middle" x="772.5" y="-303.5" font-family="sans" font-size="10.00" fill="#000000">prepareFasta</text>
</g>
<!-- 30&#45;&gt;33 -->
<g id="edge65" class="edge">
<title>30&#45;&gt;33</title>
<path fill="none" stroke="#c0c0c0" stroke-width="2" d="M817.3595,-359.8314C810.3783,-351.454 801.9609,-341.3531 794.3124,-332.1749"/>
<polygon fill="#c0c0c0" stroke="#c0c0c0" stroke-width="2" points="796.9351,-329.8548 787.8444,-324.4133 791.5575,-334.3362 796.9351,-329.8548"/>
</g>
<!-- 31&#45;&gt;0 -->
<g id="edge12" class="edge">
<title>31&#45;&gt;0</title>
<path fill="none" stroke="#c0c0c0" stroke-width="2" d="M1149.9118,-143.7398C1139.2052,-123.0413 1118.9192,-89.8641 1091.5,-72 1058.8794,-50.7471 950.1606,-32.0778 891.9877,-23.3087"/>
<polygon fill="#c0c0c0" stroke="#c0c0c0" stroke-width="2" points="892.1491,-19.7944 881.7435,-21.7881 891.1213,-26.7185 892.1491,-19.7944"/>
</g>
<!-- 31&#45;&gt;27 -->
<g id="edge53" class="edge">
<title>31&#45;&gt;27</title>
<path fill="none" stroke="#c0c0c0" stroke-width="2" d="M1131.4994,-143.8314C1118.0669,-134.7927 1101.6527,-123.7476 1087.1961,-114.0198"/>
<polygon fill="#c0c0c0" stroke="#c0c0c0" stroke-width="2" points="1088.7425,-110.8418 1078.492,-108.1628 1084.8346,-116.6494 1088.7425,-110.8418"/>
</g>
<!-- 32&#45;&gt;31 -->
<g id="edge61" class="edge">
<title>32&#45;&gt;31</title>
<path fill="none" stroke="#c0c0c0" stroke-width="2" d="M1123.3601,-215.8314C1128.6629,-207.7079 1135.0237,-197.9637 1140.8673,-189.0118"/>
<polygon fill="#c0c0c0" stroke="#c0c0c0" stroke-width="2" points="1143.9448,-190.7003 1146.4802,-180.4133 1138.0831,-186.8739 1143.9448,-190.7003"/>
</g>
<!-- 33&#45;&gt;0 -->
<g id="edge13" class="edge">
<title>33&#45;&gt;0</title>
<path fill="none" stroke="#c0c0c0" stroke-width="2" d="M774.178,-287.7833C778.334,-247.5896 791.0561,-148.7819 821.5,-72 825.1877,-62.6994 830.4274,-53.1827 835.6484,-44.7806"/>
<polygon fill="#c0c0c0" stroke="#c0c0c0" stroke-width="2" points="838.7312,-46.4592 841.232,-36.1638 832.8567,-42.6526 838.7312,-46.4592"/>
</g>
<!-- 34&#45;&gt;0 -->
<g id="edge5" class="edge">
<title>34&#45;&gt;0</title>
<path fill="none" stroke="#c0c0c0" stroke-width="2" d="M143.3899,-73.4691C146.4614,-72.9386 149.5078,-72.4453 152.5,-72 404.6889,-34.4732 711.962,-22.2496 817.1309,-19.0091"/>
<polygon fill="#c0c0c0" stroke="#c0c0c0" stroke-width="2" points="817.3502,-22.5042 827.2409,-18.7063 817.1406,-15.5073 817.3502,-22.5042"/>
</g>
<!-- 35&#45;&gt;0 -->
<g id="edge8" class="edge">
<title>35&#45;&gt;0</title>
<path fill="none" stroke="#c0c0c0" stroke-width="2" d="M1436.6671,-865.2518C1496.7819,-845.7602 1575.5,-807.0532 1575.5,-738 1575.5,-738 1575.5,-738 1575.5,-162 1575.5,-96.7468 1520.2321,-95.8661 1459.5,-72 1355.1647,-30.999 1006.8294,-20.8551 891.753,-18.5944"/>
<polygon fill="#c0c0c0" stroke="#c0c0c0" stroke-width="2" points="891.736,-15.0935 881.672,-18.405 891.6045,-22.0923 891.736,-15.0935"/>
</g>
</g>
</svg>
