<?xml version="1.0" encoding="UTF-8" standalone="no"?>
<!DOCTYPE svg PUBLIC "-//W3C//DTD SVG 1.1//EN"
 "http://www.w3.org/Graphics/SVG/1.1/DTD/svg11.dtd">
<!-- Generated by graphviz version 2.40.1 (0)
 -->
<!-- Title: snakemake_dag Pages: 1 -->
<svg width="1530pt" height="836pt"
 viewBox="0.00 0.00 1530.00 836.00" xmlns="http://www.w3.org/2000/svg" xmlns:xlink="http://www.w3.org/1999/xlink">
<g id="graph0" class="graph" transform="scale(1 1) rotate(0) translate(4 832)">
<title>snakemake_dag</title>
<polygon fill="#ffffff" stroke="transparent" points="-4,4 -4,-832 1526,-832 1526,4 -4,4"/>
<!-- 0 -->
<g id="node1" class="node">
<title>0</title>
<path fill="none" stroke="#56d8c9" stroke-width="2" d="M785,-36C785,-36 755,-36 755,-36 749,-36 743,-30 743,-24 743,-24 743,-12 743,-12 743,-6 749,0 755,0 755,0 785,0 785,0 791,0 797,-6 797,-12 797,-12 797,-24 797,-24 797,-30 791,-36 785,-36"/>
<text text-anchor="middle" x="770" y="-15.5" font-family="sans" font-size="10.00" fill="#000000">all</text>
</g>
<!-- 1 -->
<g id="node2" class="node">
<title>1</title>
<path fill="none" stroke="#d85656" stroke-width="2" d="M624,-180C624,-180 560,-180 560,-180 554,-180 548,-174 548,-168 548,-168 548,-156 548,-156 548,-150 554,-144 560,-144 560,-144 624,-144 624,-144 630,-144 636,-150 636,-156 636,-156 636,-168 636,-168 636,-174 630,-180 624,-180"/>
<text text-anchor="middle" x="592" y="-159.5" font-family="sans" font-size="10.00" fill="#000000">plotASVLength</text>
</g>
<!-- 1&#45;&gt;0 -->
<g id="edge1" class="edge">
<title>1&#45;&gt;0</title>
<path fill="none" stroke="#c0c0c0" stroke-width="2" d="M599.793,-143.9134C609.1674,-123.9946 626.6112,-92.1276 650,-72 674.1536,-51.2143 707.6113,-37.0481 733.0636,-28.4587"/>
<polygon fill="#c0c0c0" stroke="#c0c0c0" stroke-width="2" points="734.2982,-31.738 742.7359,-25.3305 732.144,-25.0776 734.2982,-31.738"/>
</g>
<!-- 26 -->
<g id="node27" class="node">
<title>26</title>
<path fill="none" stroke="#d8cb56" stroke-width="2" d="M539,-108C539,-108 501,-108 501,-108 495,-108 489,-102 489,-96 489,-96 489,-84 489,-84 489,-78 495,-72 501,-72 501,-72 539,-72 539,-72 545,-72 551,-78 551,-84 551,-84 551,-96 551,-96 551,-102 545,-108 539,-108"/>
<text text-anchor="middle" x="520" y="-87.5" font-family="sans" font-size="10.00" fill="#000000">qc_report</text>
</g>
<!-- 1&#45;&gt;26 -->
<g id="edge46" class="edge">
<title>1&#45;&gt;26</title>
<path fill="none" stroke="#c0c0c0" stroke-width="2" d="M573.8314,-143.8314C565.2848,-135.2848 554.9443,-124.9443 545.6198,-115.6198"/>
<polygon fill="#c0c0c0" stroke="#c0c0c0" stroke-width="2" points="547.9592,-113.0095 538.4133,-108.4133 543.0095,-117.9592 547.9592,-113.0095"/>
</g>
<!-- 2 -->
<g id="node3" class="node">
<title>2</title>
<path fill="none" stroke="#97d856" stroke-width="2" d="M539.5,-468C539.5,-468 462.5,-468 462.5,-468 456.5,-468 450.5,-462 450.5,-456 450.5,-456 450.5,-444 450.5,-444 450.5,-438 456.5,-432 462.5,-432 462.5,-432 539.5,-432 539.5,-432 545.5,-432 551.5,-438 551.5,-444 551.5,-444 551.5,-456 551.5,-456 551.5,-462 545.5,-468 539.5,-468"/>
<text text-anchor="middle" x="501" y="-447.5" font-family="sans" font-size="10.00" fill="#000000">removeChimeras</text>
</g>
<!-- 2&#45;&gt;1 -->
<g id="edge20" class="edge">
<title>2&#45;&gt;1</title>
<path fill="none" stroke="#c0c0c0" stroke-width="2" d="M506.6925,-431.9843C522.1092,-383.1929 564.7513,-248.2377 583.2499,-189.6927"/>
<polygon fill="#c0c0c0" stroke="#c0c0c0" stroke-width="2" points="586.6341,-190.5987 586.3097,-180.0089 579.9594,-188.4897 586.6341,-190.5987"/>
</g>
<!-- 11 -->
<g id="node12" class="node">
<title>11</title>
<path fill="none" stroke="#a7d856" stroke-width="2" d="M441.5,-396C441.5,-396 406.5,-396 406.5,-396 400.5,-396 394.5,-390 394.5,-384 394.5,-384 394.5,-372 394.5,-372 394.5,-366 400.5,-360 406.5,-360 406.5,-360 441.5,-360 441.5,-360 447.5,-360 453.5,-366 453.5,-372 453.5,-372 453.5,-384 453.5,-384 453.5,-390 447.5,-396 441.5,-396"/>
<text text-anchor="middle" x="424" y="-375.5" font-family="sans" font-size="10.00" fill="#000000">RDPtaxa</text>
</g>
<!-- 2&#45;&gt;11 -->
<g id="edge29" class="edge">
<title>2&#45;&gt;11</title>
<path fill="none" stroke="#c0c0c0" stroke-width="2" d="M481.5696,-431.8314C472.268,-423.1337 460.9796,-412.5783 450.8714,-403.1265"/>
<polygon fill="#c0c0c0" stroke="#c0c0c0" stroke-width="2" points="453.1189,-400.4363 443.4241,-396.1628 448.3379,-405.5493 453.1189,-400.4363"/>
</g>
<!-- 12 -->
<g id="node13" class="node">
<title>12</title>
<path fill="none" stroke="#d89556" stroke-width="2" d="M102,-396C102,-396 44,-396 44,-396 38,-396 32,-390 32,-384 32,-384 32,-372 32,-372 32,-366 38,-360 44,-360 44,-360 102,-360 102,-360 108,-360 114,-366 114,-372 114,-372 114,-384 114,-384 114,-390 108,-396 102,-396"/>
<text text-anchor="middle" x="73" y="-375.5" font-family="sans" font-size="10.00" fill="#000000">multipleAlign</text>
</g>
<!-- 2&#45;&gt;12 -->
<g id="edge30" class="edge">
<title>2&#45;&gt;12</title>
<path fill="none" stroke="#c0c0c0" stroke-width="2" d="M450.2221,-441.4579C367.9593,-427.6193 206.4723,-400.4533 124.041,-386.5863"/>
<polygon fill="#c0c0c0" stroke="#c0c0c0" stroke-width="2" points="124.5928,-383.1301 114.1507,-384.9225 123.4315,-390.0331 124.5928,-383.1301"/>
</g>
<!-- 14 -->
<g id="node15" class="node">
<title>14</title>
<path fill="none" stroke="#59d856" stroke-width="2" d="M681,-396C681,-396 589,-396 589,-396 583,-396 577,-390 577,-384 577,-384 577,-372 577,-372 577,-366 583,-360 589,-360 589,-360 681,-360 681,-360 687,-360 693,-366 693,-372 693,-372 693,-384 693,-384 693,-390 687,-396 681,-396"/>
<text text-anchor="middle" x="635" y="-375.5" font-family="sans" font-size="10.00" fill="#000000">combineReadCounts</text>
</g>
<!-- 2&#45;&gt;14 -->
<g id="edge34" class="edge">
<title>2&#45;&gt;14</title>
<path fill="none" stroke="#c0c0c0" stroke-width="2" d="M534.8139,-431.8314C552.2707,-422.4516 573.7487,-410.9112 592.3352,-400.9244"/>
<polygon fill="#c0c0c0" stroke="#c0c0c0" stroke-width="2" points="594.0446,-403.9792 601.197,-396.1628 590.7314,-397.8129 594.0446,-403.9792"/>
</g>
<!-- 29 -->
<g id="node30" class="node">
<title>29</title>
<path fill="none" stroke="#d86656" stroke-width="2" d="M478.5,-324C478.5,-324 371.5,-324 371.5,-324 365.5,-324 359.5,-318 359.5,-312 359.5,-312 359.5,-300 359.5,-300 359.5,-294 365.5,-288 371.5,-288 371.5,-288 478.5,-288 478.5,-288 484.5,-288 490.5,-294 490.5,-300 490.5,-300 490.5,-312 490.5,-312 490.5,-318 484.5,-324 478.5,-324"/>
<text text-anchor="middle" x="425" y="-303.5" font-family="sans" font-size="10.00" fill="#000000">combining_annotations</text>
</g>
<!-- 2&#45;&gt;29 -->
<g id="edge58" class="edge">
<title>2&#45;&gt;29</title>
<path fill="none" stroke="#c0c0c0" stroke-width="2" d="M494.352,-431.9306C487.2667,-413.4072 475.2598,-383.9968 462,-360 456.9416,-350.8456 450.7384,-341.2943 444.8671,-332.8146"/>
<polygon fill="#c0c0c0" stroke="#c0c0c0" stroke-width="2" points="447.5648,-330.5677 438.9308,-324.4273 441.8511,-334.6117 447.5648,-330.5677"/>
</g>
<!-- 3 -->
<g id="node4" class="node">
<title>3</title>
<path fill="none" stroke="#56b9d8" stroke-width="2" d="M588,-540C588,-540 518,-540 518,-540 512,-540 506,-534 506,-528 506,-528 506,-516 506,-516 506,-510 512,-504 518,-504 518,-504 588,-504 588,-504 594,-504 600,-510 600,-516 600,-516 600,-528 600,-528 600,-534 594,-540 588,-540"/>
<text text-anchor="middle" x="553" y="-519.5" font-family="sans" font-size="10.00" fill="#000000">generateSeqtab</text>
</g>
<!-- 3&#45;&gt;2 -->
<g id="edge21" class="edge">
<title>3&#45;&gt;2</title>
<path fill="none" stroke="#c0c0c0" stroke-width="2" d="M539.8782,-503.8314C533.9501,-495.6232 526.8271,-485.7606 520.3067,-476.7323"/>
<polygon fill="#c0c0c0" stroke="#c0c0c0" stroke-width="2" points="522.9908,-474.4708 514.2985,-468.4133 517.316,-478.5693 522.9908,-474.4708"/>
</g>
<!-- 3&#45;&gt;14 -->
<g id="edge33" class="edge">
<title>3&#45;&gt;14</title>
<path fill="none" stroke="#c0c0c0" stroke-width="2" d="M563.3854,-503.7623C577.6181,-478.7682 603.2863,-433.6924 619.7156,-404.8409"/>
<polygon fill="#c0c0c0" stroke="#c0c0c0" stroke-width="2" points="622.792,-406.5114 624.699,-396.0896 616.7091,-403.0475 622.792,-406.5114"/>
</g>
<!-- 4 -->
<g id="node5" class="node">
<title>4</title>
<path fill="none" stroke="#c6d856" stroke-width="2" d="M842.5,-684C842.5,-684 795.5,-684 795.5,-684 789.5,-684 783.5,-678 783.5,-672 783.5,-672 783.5,-660 783.5,-660 783.5,-654 789.5,-648 795.5,-648 795.5,-648 842.5,-648 842.5,-648 848.5,-648 854.5,-654 854.5,-660 854.5,-660 854.5,-672 854.5,-672 854.5,-678 848.5,-684 842.5,-684"/>
<text text-anchor="middle" x="819" y="-663.5" font-family="sans" font-size="10.00" fill="#000000">dada2Filter</text>
</g>
<!-- 4&#45;&gt;0 -->
<g id="edge10" class="edge">
<title>4&#45;&gt;0</title>
<path fill="none" stroke="#c0c0c0" stroke-width="2" d="M831.3682,-647.8166C848.1323,-621.3548 876,-570.1283 876,-522 876,-522 876,-522 876,-162 876,-112.2737 834.4977,-68.3969 803.4311,-42.5185"/>
<polygon fill="#c0c0c0" stroke="#c0c0c0" stroke-width="2" points="805.3675,-39.5835 795.3896,-36.0208 800.968,-45.0282 805.3675,-39.5835"/>
</g>
<!-- 4&#45;&gt;3 -->
<g id="edge23" class="edge">
<title>4&#45;&gt;3</title>
<path fill="none" stroke="#c0c0c0" stroke-width="2" d="M783.4351,-664.374C716.4602,-660.4871 575.6733,-648.1177 546,-612 531.9364,-594.8822 535.5386,-569.227 541.5851,-549.6822"/>
<polygon fill="#c0c0c0" stroke="#c0c0c0" stroke-width="2" points="544.9395,-550.6909 544.8892,-540.0962 538.3216,-548.4098 544.9395,-550.6909"/>
</g>
<!-- 7 -->
<g id="node8" class="node">
<title>7</title>
<path fill="none" stroke="#56a9d8" stroke-width="2" d="M635,-612C635,-612 567,-612 567,-612 561,-612 555,-606 555,-600 555,-600 555,-588 555,-588 555,-582 561,-576 567,-576 567,-576 635,-576 635,-576 641,-576 647,-582 647,-588 647,-588 647,-600 647,-600 647,-606 641,-612 635,-612"/>
<text text-anchor="middle" x="601" y="-591.5" font-family="sans" font-size="10.00" fill="#000000">learnErrorRates</text>
</g>
<!-- 4&#45;&gt;7 -->
<g id="edge26" class="edge">
<title>4&#45;&gt;7</title>
<path fill="none" stroke="#c0c0c0" stroke-width="2" d="M783.4893,-654.2717C749.1597,-642.9335 696.6254,-625.5827 656.7232,-612.404"/>
<polygon fill="#c0c0c0" stroke="#c0c0c0" stroke-width="2" points="657.7213,-609.0477 647.1281,-609.235 655.5259,-615.6946 657.7213,-609.0477"/>
</g>
<!-- 10 -->
<g id="node11" class="node">
<title>10</title>
<path fill="none" stroke="#56c9d8" stroke-width="2" d="M835.5,-180C835.5,-180 704.5,-180 704.5,-180 698.5,-180 692.5,-174 692.5,-168 692.5,-168 692.5,-156 692.5,-156 692.5,-150 698.5,-144 704.5,-144 704.5,-144 835.5,-144 835.5,-144 841.5,-144 847.5,-150 847.5,-156 847.5,-156 847.5,-168 847.5,-168 847.5,-174 841.5,-180 835.5,-180"/>
<text text-anchor="middle" x="770" y="-159.5" font-family="sans" font-size="10.00" fill="#000000">plotQualityProfileAfterdada2</text>
</g>
<!-- 4&#45;&gt;10 -->
<g id="edge28" class="edge">
<title>4&#45;&gt;10</title>
<path fill="none" stroke="#c0c0c0" stroke-width="2" d="M819,-647.8146C819,-620.4983 819,-567.25 819,-522 819,-522 819,-522 819,-306 819,-263.531 799.6626,-217.5922 785.2835,-189.303"/>
<polygon fill="#c0c0c0" stroke="#c0c0c0" stroke-width="2" points="788.3705,-187.6532 780.6323,-180.4164 782.1686,-190.8993 788.3705,-187.6532"/>
</g>
<!-- 4&#45;&gt;14 -->
<g id="edge32" class="edge">
<title>4&#45;&gt;14</title>
<path fill="none" stroke="#c0c0c0" stroke-width="2" d="M795.8941,-647.8043C768.4817,-625.1509 722.9818,-584.0373 695,-540 667.7136,-497.0571 650.2433,-439.8903 641.5616,-406.2077"/>
<polygon fill="#c0c0c0" stroke="#c0c0c0" stroke-width="2" points="644.8676,-404.9998 639.0504,-396.1448 638.0759,-406.6947 644.8676,-404.9998"/>
</g>
<!-- 23 -->
<g id="node24" class="node">
<title>23</title>
<path fill="none" stroke="#56d8b9" stroke-width="2" d="M1169.5,-180C1169.5,-180 1074.5,-180 1074.5,-180 1068.5,-180 1062.5,-174 1062.5,-168 1062.5,-168 1062.5,-156 1062.5,-156 1062.5,-150 1068.5,-144 1074.5,-144 1074.5,-144 1169.5,-144 1169.5,-144 1175.5,-144 1181.5,-150 1181.5,-156 1181.5,-156 1181.5,-168 1181.5,-168 1181.5,-174 1175.5,-180 1169.5,-180"/>
<text text-anchor="middle" x="1122" y="-159.5" font-family="sans" font-size="10.00" fill="#000000">seqkit_counts_dada2</text>
</g>
<!-- 4&#45;&gt;23 -->
<g id="edge42" class="edge">
<title>4&#45;&gt;23</title>
<path fill="none" stroke="#c0c0c0" stroke-width="2" d="M854.6236,-658.7411C914.5376,-644.2218 1029,-605.5502 1029,-522 1029,-522 1029,-522 1029,-378 1029,-304.5524 1074.9239,-227.668 1102.2291,-188.4457"/>
<polygon fill="#c0c0c0" stroke="#c0c0c0" stroke-width="2" points="1105.1408,-190.3905 1108.077,-180.2106 1099.4334,-186.3376 1105.1408,-190.3905"/>
</g>
<!-- 5 -->
<g id="node6" class="node">
<title>5</title>
<path fill="none" stroke="#568ad8" stroke-width="2" d="M1290.5,-756C1290.5,-756 1241.5,-756 1241.5,-756 1235.5,-756 1229.5,-750 1229.5,-744 1229.5,-744 1229.5,-732 1229.5,-732 1229.5,-726 1235.5,-720 1241.5,-720 1241.5,-720 1290.5,-720 1290.5,-720 1296.5,-720 1302.5,-726 1302.5,-732 1302.5,-732 1302.5,-744 1302.5,-744 1302.5,-750 1296.5,-756 1290.5,-756"/>
<text text-anchor="middle" x="1266" y="-735.5" font-family="sans" font-size="10.00" fill="#000000">cutAdaptQc</text>
</g>
<!-- 5&#45;&gt;4 -->
<g id="edge24" class="edge">
<title>5&#45;&gt;4</title>
<path fill="none" stroke="#c0c0c0" stroke-width="2" d="M1229.4201,-732.1079C1148.2904,-719.0401 953.4424,-687.6552 864.5708,-673.3403"/>
<polygon fill="#c0c0c0" stroke="#c0c0c0" stroke-width="2" points="864.9559,-669.8573 854.5265,-671.7224 863.8427,-676.7682 864.9559,-669.8573"/>
</g>
<!-- 8 -->
<g id="node9" class="node">
<title>8</title>
<path fill="none" stroke="#569ad8" stroke-width="2" d="M1032,-180C1032,-180 916,-180 916,-180 910,-180 904,-174 904,-168 904,-168 904,-156 904,-156 904,-150 910,-144 916,-144 916,-144 1032,-144 1032,-144 1038,-144 1044,-150 1044,-156 1044,-156 1044,-168 1044,-168 1044,-174 1038,-180 1032,-180"/>
<text text-anchor="middle" x="974" y="-159.5" font-family="sans" font-size="10.00" fill="#000000">plotQualityProfileAfterQC</text>
</g>
<!-- 5&#45;&gt;8 -->
<g id="edge27" class="edge">
<title>5&#45;&gt;8</title>
<path fill="none" stroke="#c0c0c0" stroke-width="2" d="M1229.036,-729.2505C1171.4867,-713.1789 1067,-673.1067 1067,-594 1067,-594 1067,-594 1067,-378 1067,-304.5524 1021.0761,-227.668 993.7709,-188.4457"/>
<polygon fill="#c0c0c0" stroke="#c0c0c0" stroke-width="2" points="996.5666,-186.3376 987.923,-180.2106 990.8592,-190.3905 996.5666,-186.3376"/>
</g>
<!-- 18 -->
<g id="node19" class="node">
<title>18</title>
<path fill="none" stroke="#56d88a" stroke-width="2" d="M1490.5,-684C1490.5,-684 1453.5,-684 1453.5,-684 1447.5,-684 1441.5,-678 1441.5,-672 1441.5,-672 1441.5,-660 1441.5,-660 1441.5,-654 1447.5,-648 1453.5,-648 1453.5,-648 1490.5,-648 1490.5,-648 1496.5,-648 1502.5,-654 1502.5,-660 1502.5,-660 1502.5,-672 1502.5,-672 1502.5,-678 1496.5,-684 1490.5,-684"/>
<text text-anchor="middle" x="1472" y="-663.5" font-family="sans" font-size="10.00" fill="#000000">fastqcFilt</text>
</g>
<!-- 5&#45;&gt;18 -->
<g id="edge38" class="edge">
<title>5&#45;&gt;18</title>
<path fill="none" stroke="#c0c0c0" stroke-width="2" d="M1302.8287,-725.1278C1339.0548,-712.4663 1394.2191,-693.1856 1431.6237,-680.1121"/>
<polygon fill="#c0c0c0" stroke="#c0c0c0" stroke-width="2" points="1432.9145,-683.3686 1441.1997,-676.7651 1430.6049,-676.7606 1432.9145,-683.3686"/>
</g>
<!-- 24 -->
<g id="node25" class="node">
<title>24</title>
<path fill="none" stroke="#d87556" stroke-width="2" d="M1482,-180C1482,-180 1374,-180 1374,-180 1368,-180 1362,-174 1362,-168 1362,-168 1362,-156 1362,-156 1362,-150 1368,-144 1374,-144 1374,-144 1482,-144 1482,-144 1488,-144 1494,-150 1494,-156 1494,-156 1494,-168 1494,-168 1494,-174 1488,-180 1482,-180"/>
<text text-anchor="middle" x="1428" y="-159.5" font-family="sans" font-size="10.00" fill="#000000">seqkit_counts_cutadapt</text>
</g>
<!-- 5&#45;&gt;24 -->
<g id="edge43" class="edge">
<title>5&#45;&gt;24</title>
<path fill="none" stroke="#c0c0c0" stroke-width="2" d="M1297.2904,-719.9914C1334.0244,-696.2432 1390,-650.7455 1390,-594 1390,-594 1390,-594 1390,-306 1390,-264.3681 1405.0328,-218.14 1416.1881,-189.567"/>
<polygon fill="#c0c0c0" stroke="#c0c0c0" stroke-width="2" points="1419.4578,-190.817 1419.9412,-180.2332 1412.9632,-188.2055 1419.4578,-190.817"/>
</g>
<!-- 6 -->
<g id="node7" class="node">
<title>6</title>
<path fill="none" stroke="#56d8a9" stroke-width="2" d="M1284,-828C1284,-828 1248,-828 1248,-828 1242,-828 1236,-822 1236,-816 1236,-816 1236,-804 1236,-804 1236,-798 1242,-792 1248,-792 1248,-792 1284,-792 1284,-792 1290,-792 1296,-798 1296,-804 1296,-804 1296,-816 1296,-816 1296,-822 1290,-828 1284,-828"/>
<text text-anchor="middle" x="1266" y="-807.5" font-family="sans" font-size="10.00" fill="#000000">cutAdapt</text>
</g>
<!-- 6&#45;&gt;5 -->
<g id="edge25" class="edge">
<title>6&#45;&gt;5</title>
<path fill="none" stroke="#c0c0c0" stroke-width="2" d="M1266,-791.8314C1266,-784.131 1266,-774.9743 1266,-766.4166"/>
<polygon fill="#c0c0c0" stroke="#c0c0c0" stroke-width="2" points="1269.5001,-766.4132 1266,-756.4133 1262.5001,-766.4133 1269.5001,-766.4132"/>
</g>
<!-- 7&#45;&gt;3 -->
<g id="edge22" class="edge">
<title>7&#45;&gt;3</title>
<path fill="none" stroke="#c0c0c0" stroke-width="2" d="M588.8876,-575.8314C583.4719,-567.7079 576.9758,-557.9637 571.0079,-549.0118"/>
<polygon fill="#c0c0c0" stroke="#c0c0c0" stroke-width="2" points="573.7347,-546.7923 565.2755,-540.4133 567.9104,-550.6753 573.7347,-546.7923"/>
</g>
<!-- 8&#45;&gt;0 -->
<g id="edge19" class="edge">
<title>8&#45;&gt;0</title>
<path fill="none" stroke="#c0c0c0" stroke-width="2" d="M960.5734,-143.7505C945.2809,-123.9832 918.6742,-92.5297 890,-72 864.4182,-53.6843 831.6319,-39.4471 806.7962,-30.2009"/>
<polygon fill="#c0c0c0" stroke="#c0c0c0" stroke-width="2" points="807.9558,-26.8984 797.3616,-26.7847 805.5726,-33.4803 807.9558,-26.8984"/>
</g>
<!-- 8&#45;&gt;26 -->
<g id="edge52" class="edge">
<title>8&#45;&gt;26</title>
<path fill="none" stroke="#c0c0c0" stroke-width="2" d="M903.5606,-150.829C807.6972,-135.626 639.2032,-108.9045 561.4541,-96.5742"/>
<polygon fill="#c0c0c0" stroke="#c0c0c0" stroke-width="2" points="561.5274,-93.0422 551.1026,-94.9326 560.4309,-99.9558 561.5274,-93.0422"/>
</g>
<!-- 9 -->
<g id="node10" class="node">
<title>9</title>
<path fill="none" stroke="#68d856" stroke-width="2" d="M304,-180C304,-180 206,-180 206,-180 200,-180 194,-174 194,-168 194,-168 194,-156 194,-156 194,-150 200,-144 206,-144 206,-144 304,-144 304,-144 310,-144 316,-150 316,-156 316,-156 316,-168 316,-168 316,-174 310,-180 304,-180"/>
<text text-anchor="middle" x="255" y="-159.5" font-family="sans" font-size="10.00" fill="#000000">plotQualityProfileRaw</text>
</g>
<!-- 9&#45;&gt;0 -->
<g id="edge13" class="edge">
<title>9&#45;&gt;0</title>
<path fill="none" stroke="#c0c0c0" stroke-width="2" d="M282.1125,-143.8587C314.4635,-123.111 370.8684,-89.7301 424,-72 532.4389,-35.8138 668.2449,-23.6527 732.7139,-19.7459"/>
<polygon fill="#c0c0c0" stroke="#c0c0c0" stroke-width="2" points="733.0174,-23.2343 742.8006,-19.1674 732.6165,-16.2458 733.0174,-23.2343"/>
</g>
<!-- 9&#45;&gt;26 -->
<g id="edge48" class="edge">
<title>9&#45;&gt;26</title>
<path fill="none" stroke="#c0c0c0" stroke-width="2" d="M316.1291,-145.3913C366.1871,-131.7907 435.6168,-112.9268 479.1568,-101.097"/>
<polygon fill="#c0c0c0" stroke="#c0c0c0" stroke-width="2" points="480.1062,-104.466 488.8387,-98.4665 478.2708,-97.7109 480.1062,-104.466"/>
</g>
<!-- 10&#45;&gt;0 -->
<g id="edge18" class="edge">
<title>10&#45;&gt;0</title>
<path fill="none" stroke="#c0c0c0" stroke-width="2" d="M770,-143.7623C770,-119.201 770,-75.2474 770,-46.3541"/>
<polygon fill="#c0c0c0" stroke="#c0c0c0" stroke-width="2" points="773.5001,-46.0896 770,-36.0896 766.5001,-46.0897 773.5001,-46.0896"/>
</g>
<!-- 10&#45;&gt;26 -->
<g id="edge49" class="edge">
<title>10&#45;&gt;26</title>
<path fill="none" stroke="#c0c0c0" stroke-width="2" d="M707.2371,-143.9243C661.3687,-130.7142 600.4895,-113.181 560.7913,-101.7479"/>
<polygon fill="#c0c0c0" stroke="#c0c0c0" stroke-width="2" points="561.755,-98.3832 551.1769,-98.9789 559.8176,-105.1098 561.755,-98.3832"/>
</g>
<!-- 11&#45;&gt;0 -->
<g id="edge11" class="edge">
<title>11&#45;&gt;0</title>
<path fill="none" stroke="#c0c0c0" stroke-width="2" d="M394.4254,-370.2462C344.7546,-355.6744 244.7482,-319.4247 191,-252 160.571,-213.8282 155.3587,-190.2424 171,-144 183.9025,-105.8548 190.8307,-91.6124 226,-72 270.1094,-47.4021 616.9535,-26.3767 732.6115,-19.9884"/>
<polygon fill="#c0c0c0" stroke="#c0c0c0" stroke-width="2" points="732.9577,-23.4748 742.7513,-19.4332 732.5749,-16.4853 732.9577,-23.4748"/>
</g>
<!-- 11&#45;&gt;29 -->
<g id="edge57" class="edge">
<title>11&#45;&gt;29</title>
<path fill="none" stroke="#c0c0c0" stroke-width="2" d="M424.2523,-359.8314C424.3593,-352.131 424.4865,-342.9743 424.6053,-334.4166"/>
<polygon fill="#c0c0c0" stroke="#c0c0c0" stroke-width="2" points="428.1049,-334.4609 424.7443,-324.4133 421.1056,-334.3637 428.1049,-334.4609"/>
</g>
<!-- 12&#45;&gt;0 -->
<g id="edge5" class="edge">
<title>12&#45;&gt;0</title>
<path fill="none" stroke="#c0c0c0" stroke-width="2" d="M56.7989,-359.9367C35.2925,-334.0208 0,-283.8915 0,-234 0,-234 0,-234 0,-162 0,-107.5869 34.0546,-95.7726 83,-72 141.6109,-43.5329 597.9689,-24.4107 732.6821,-19.3437"/>
<polygon fill="#c0c0c0" stroke="#c0c0c0" stroke-width="2" points="733.042,-22.8328 742.9048,-18.963 732.7814,-15.8376 733.042,-22.8328"/>
</g>
<!-- 13 -->
<g id="node14" class="node">
<title>13</title>
<path fill="none" stroke="#d8b456" stroke-width="2" d="M87.5,-252C87.5,-252 40.5,-252 40.5,-252 34.5,-252 28.5,-246 28.5,-240 28.5,-240 28.5,-228 28.5,-228 28.5,-222 34.5,-216 40.5,-216 40.5,-216 87.5,-216 87.5,-216 93.5,-216 99.5,-222 99.5,-228 99.5,-228 99.5,-240 99.5,-240 99.5,-246 93.5,-252 87.5,-252"/>
<text text-anchor="middle" x="64" y="-231.5" font-family="sans" font-size="10.00" fill="#000000">newickTree</text>
</g>
<!-- 12&#45;&gt;13 -->
<g id="edge31" class="edge">
<title>12&#45;&gt;13</title>
<path fill="none" stroke="#c0c0c0" stroke-width="2" d="M66.1805,-359.7996C62.6719,-349.4645 58.7683,-336.1925 57,-324 54.0054,-303.3524 56.0183,-279.8413 58.6404,-262.0284"/>
<polygon fill="#c0c0c0" stroke="#c0c0c0" stroke-width="2" points="62.1195,-262.4389 60.2668,-252.0074 55.2099,-261.3175 62.1195,-262.4389"/>
</g>
<!-- 28 -->
<g id="node29" class="node">
<title>28</title>
<path fill="none" stroke="#b6d856" stroke-width="2" d="M137.5,-324C137.5,-324 78.5,-324 78.5,-324 72.5,-324 66.5,-318 66.5,-312 66.5,-312 66.5,-300 66.5,-300 66.5,-294 72.5,-288 78.5,-288 78.5,-288 137.5,-288 137.5,-288 143.5,-288 149.5,-294 149.5,-300 149.5,-300 149.5,-312 149.5,-312 149.5,-318 143.5,-324 137.5,-324"/>
<text text-anchor="middle" x="108" y="-303.5" font-family="sans" font-size="10.00" fill="#000000">vsearchGTDB</text>
</g>
<!-- 12&#45;&gt;28 -->
<g id="edge56" class="edge">
<title>12&#45;&gt;28</title>
<path fill="none" stroke="#c0c0c0" stroke-width="2" d="M81.832,-359.8314C85.6986,-351.8771 90.3206,-342.369 94.5968,-333.5723"/>
<polygon fill="#c0c0c0" stroke="#c0c0c0" stroke-width="2" points="97.8249,-334.9371 99.0491,-324.4133 91.5293,-331.8768 97.8249,-334.9371"/>
</g>
<!-- 13&#45;&gt;0 -->
<g id="edge7" class="edge">
<title>13&#45;&gt;0</title>
<path fill="none" stroke="#c0c0c0" stroke-width="2" d="M63.5476,-215.8597C63.7838,-181.5877 69.713,-107.578 114,-72 162.3622,-33.1481 600.6626,-21.3543 732.5949,-18.6693"/>
<polygon fill="#c0c0c0" stroke="#c0c0c0" stroke-width="2" points="733.051,-22.161 742.9799,-18.464 732.9126,-15.1624 733.051,-22.161"/>
</g>
<!-- 14&#45;&gt;0 -->
<g id="edge14" class="edge">
<title>14&#45;&gt;0</title>
<path fill="none" stroke="#c0c0c0" stroke-width="2" d="M641.1502,-359.5984C649.6628,-332.4466 664,-279.9035 664,-234 664,-234 664,-234 664,-162 664,-112.2737 705.5023,-68.3969 736.5689,-42.5185"/>
<polygon fill="#c0c0c0" stroke="#c0c0c0" stroke-width="2" points="739.032,-45.0282 744.6104,-36.0208 734.6325,-39.5835 739.032,-45.0282"/>
</g>
<!-- 14&#45;&gt;26 -->
<g id="edge50" class="edge">
<title>14&#45;&gt;26</title>
<path fill="none" stroke="#c0c0c0" stroke-width="2" d="M624.2999,-359.8079C604.6562,-325.674 562.6892,-249.2159 539,-180 532.116,-159.8862 527.2537,-136.3537 524.1719,-118.3973"/>
<polygon fill="#c0c0c0" stroke="#c0c0c0" stroke-width="2" points="527.5856,-117.584 522.5213,-108.278 520.6769,-118.7111 527.5856,-117.584"/>
</g>
<!-- 15 -->
<g id="node16" class="node">
<title>15</title>
<path fill="none" stroke="#5663d8" stroke-width="2" d="M775.5,-468C775.5,-468 716.5,-468 716.5,-468 710.5,-468 704.5,-462 704.5,-456 704.5,-456 704.5,-444 704.5,-444 704.5,-438 710.5,-432 716.5,-432 716.5,-432 775.5,-432 775.5,-432 781.5,-432 787.5,-438 787.5,-444 787.5,-444 787.5,-456 787.5,-456 787.5,-462 781.5,-468 775.5,-468"/>
<text text-anchor="middle" x="746" y="-447.5" font-family="sans" font-size="10.00" fill="#000000">numSeqParse</text>
</g>
<!-- 15&#45;&gt;14 -->
<g id="edge35" class="edge">
<title>15&#45;&gt;14</title>
<path fill="none" stroke="#c0c0c0" stroke-width="2" d="M717.99,-431.8314C703.9239,-422.7074 686.706,-411.539 671.6067,-401.7449"/>
<polygon fill="#c0c0c0" stroke="#c0c0c0" stroke-width="2" points="673.2953,-398.6684 663.001,-396.1628 669.486,-404.5412 673.2953,-398.6684"/>
</g>
<!-- 16 -->
<g id="node17" class="node">
<title>16</title>
<path fill="none" stroke="#56d89a" stroke-width="2" d="M778.5,-540C778.5,-540 715.5,-540 715.5,-540 709.5,-540 703.5,-534 703.5,-528 703.5,-528 703.5,-516 703.5,-516 703.5,-510 709.5,-504 715.5,-504 715.5,-504 778.5,-504 778.5,-504 784.5,-504 790.5,-510 790.5,-516 790.5,-516 790.5,-528 790.5,-528 790.5,-534 784.5,-540 778.5,-540"/>
<text text-anchor="middle" x="747" y="-519.5" font-family="sans" font-size="10.00" fill="#000000">rawReadCount</text>
</g>
<!-- 16&#45;&gt;15 -->
<g id="edge36" class="edge">
<title>16&#45;&gt;15</title>
<path fill="none" stroke="#c0c0c0" stroke-width="2" d="M746.7477,-503.8314C746.6407,-496.131 746.5135,-486.9743 746.3947,-478.4166"/>
<polygon fill="#c0c0c0" stroke="#c0c0c0" stroke-width="2" points="749.8944,-478.3637 746.2557,-468.4133 742.8951,-478.4609 749.8944,-478.3637"/>
</g>
<!-- 17 -->
<g id="node18" class="node">
<title>17</title>
<path fill="none" stroke="#d88556" stroke-width="2" d="M1500,-612C1500,-612 1456,-612 1456,-612 1450,-612 1444,-606 1444,-600 1444,-600 1444,-588 1444,-588 1444,-582 1450,-576 1456,-576 1456,-576 1500,-576 1500,-576 1506,-576 1512,-582 1512,-588 1512,-588 1512,-600 1512,-600 1512,-606 1506,-612 1500,-612"/>
<text text-anchor="middle" x="1478" y="-591.5" font-family="sans" font-size="10.00" fill="#000000">multiqcFilt</text>
</g>
<!-- 17&#45;&gt;0 -->
<g id="edge4" class="edge">
<title>17&#45;&gt;0</title>
<path fill="none" stroke="#c0c0c0" stroke-width="2" d="M1487.3313,-575.9025C1500.2471,-549.1296 1522,-497.0538 1522,-450 1522,-450 1522,-450 1522,-162 1522,-105.4315 1483.3385,-95.7562 1432,-72 1375.2523,-45.7408 939.4334,-25.2139 807.636,-19.5564"/>
<polygon fill="#c0c0c0" stroke="#c0c0c0" stroke-width="2" points="807.3963,-16.0432 797.2566,-19.1148 807.0987,-23.0368 807.3963,-16.0432"/>
</g>
<!-- 18&#45;&gt;17 -->
<g id="edge37" class="edge">
<title>18&#45;&gt;17</title>
<path fill="none" stroke="#c0c0c0" stroke-width="2" d="M1473.5141,-647.8314C1474.1558,-640.131 1474.9188,-630.9743 1475.6319,-622.4166"/>
<polygon fill="#c0c0c0" stroke="#c0c0c0" stroke-width="2" points="1479.1229,-622.6694 1476.4656,-612.4133 1472.1471,-622.088 1479.1229,-622.6694"/>
</g>
<!-- 19 -->
<g id="node20" class="node">
<title>19</title>
<path fill="none" stroke="#d6d856" stroke-width="2" d="M1222,-108C1222,-108 1172,-108 1172,-108 1166,-108 1160,-102 1160,-96 1160,-96 1160,-84 1160,-84 1160,-78 1166,-72 1172,-72 1172,-72 1222,-72 1222,-72 1228,-72 1234,-78 1234,-84 1234,-84 1234,-96 1234,-96 1234,-102 1228,-108 1222,-108"/>
<text text-anchor="middle" x="1197" y="-87.5" font-family="sans" font-size="10.00" fill="#000000">multiqcRaw</text>
</g>
<!-- 19&#45;&gt;0 -->
<g id="edge9" class="edge">
<title>19&#45;&gt;0</title>
<path fill="none" stroke="#c0c0c0" stroke-width="2" d="M1159.7918,-74.8833C1156.5098,-73.8146 1153.2142,-72.8326 1150,-72 1026.9268,-40.1211 876.2319,-25.7656 807.4484,-20.5208"/>
<polygon fill="#c0c0c0" stroke="#c0c0c0" stroke-width="2" points="807.3605,-17.0048 797.1291,-19.756 806.843,-23.9857 807.3605,-17.0048"/>
</g>
<!-- 20 -->
<g id="node21" class="node">
<title>20</title>
<path fill="none" stroke="#88d856" stroke-width="2" d="M1256,-180C1256,-180 1212,-180 1212,-180 1206,-180 1200,-174 1200,-168 1200,-168 1200,-156 1200,-156 1200,-150 1206,-144 1212,-144 1212,-144 1256,-144 1256,-144 1262,-144 1268,-150 1268,-156 1268,-156 1268,-168 1268,-168 1268,-174 1262,-180 1256,-180"/>
<text text-anchor="middle" x="1234" y="-159.5" font-family="sans" font-size="10.00" fill="#000000">fastqcRaw</text>
</g>
<!-- 20&#45;&gt;19 -->
<g id="edge39" class="edge">
<title>20&#45;&gt;19</title>
<path fill="none" stroke="#c0c0c0" stroke-width="2" d="M1224.6633,-143.8314C1220.5757,-135.8771 1215.6896,-126.369 1211.1691,-117.5723"/>
<polygon fill="#c0c0c0" stroke="#c0c0c0" stroke-width="2" points="1214.1461,-115.7078 1206.4624,-108.4133 1207.9201,-118.9074 1214.1461,-115.7078"/>
</g>
<!-- 21 -->
<g id="node22" class="node">
<title>21</title>
<path fill="none" stroke="#78d856" stroke-width="2" d="M1387.5,-108C1387.5,-108 1304.5,-108 1304.5,-108 1298.5,-108 1292.5,-102 1292.5,-96 1292.5,-96 1292.5,-84 1292.5,-84 1292.5,-78 1298.5,-72 1304.5,-72 1304.5,-72 1387.5,-72 1387.5,-72 1393.5,-72 1399.5,-78 1399.5,-84 1399.5,-84 1399.5,-96 1399.5,-96 1399.5,-102 1393.5,-108 1387.5,-108"/>
<text text-anchor="middle" x="1346" y="-87.5" font-family="sans" font-size="10.00" fill="#000000">seqkit_counts_raw</text>
</g>
<!-- 21&#45;&gt;0 -->
<g id="edge12" class="edge">
<title>21&#45;&gt;0</title>
<path fill="none" stroke="#c0c0c0" stroke-width="2" d="M1292.3499,-74.9876C1287.5187,-73.8819 1282.6838,-72.8636 1278,-72 1103.603,-39.844 891.7327,-24.9768 807.3143,-20.008"/>
<polygon fill="#c0c0c0" stroke="#c0c0c0" stroke-width="2" points="807.38,-16.506 797.195,-19.4242 806.9767,-23.4944 807.38,-16.506"/>
</g>
<!-- 22 -->
<g id="node23" class="node">
<title>22</title>
<path fill="none" stroke="#56d863" stroke-width="2" d="M1337.5,-252C1337.5,-252 1266.5,-252 1266.5,-252 1260.5,-252 1254.5,-246 1254.5,-240 1254.5,-240 1254.5,-228 1254.5,-228 1254.5,-222 1260.5,-216 1266.5,-216 1266.5,-216 1337.5,-216 1337.5,-216 1343.5,-216 1349.5,-222 1349.5,-228 1349.5,-228 1349.5,-240 1349.5,-240 1349.5,-246 1343.5,-252 1337.5,-252"/>
<text text-anchor="middle" x="1302" y="-231.5" font-family="sans" font-size="10.00" fill="#000000">random_sample</text>
</g>
<!-- 22&#45;&gt;0 -->
<g id="edge15" class="edge">
<title>22&#45;&gt;0</title>
<path fill="none" stroke="#c0c0c0" stroke-width="2" d="M1301.5863,-215.7784C1299.698,-181.0243 1290.0834,-105.7303 1243,-72 1207.7601,-46.7543 912.6129,-26.6205 807.2195,-20.1751"/>
<polygon fill="#c0c0c0" stroke="#c0c0c0" stroke-width="2" points="807.2436,-16.6703 797.0504,-19.5598 806.8207,-23.6575 807.2436,-16.6703"/>
</g>
<!-- 22&#45;&gt;21 -->
<g id="edge40" class="edge">
<title>22&#45;&gt;21</title>
<path fill="none" stroke="#c0c0c0" stroke-width="2" d="M1307.5726,-215.7623C1315.1105,-191.0928 1328.6262,-146.8598 1337.4527,-117.9731"/>
<polygon fill="#c0c0c0" stroke="#c0c0c0" stroke-width="2" points="1340.8976,-118.6759 1340.4726,-108.0896 1334.2031,-116.6303 1340.8976,-118.6759"/>
</g>
<!-- 22&#45;&gt;23 -->
<g id="edge41" class="edge">
<title>22&#45;&gt;23</title>
<path fill="none" stroke="#c0c0c0" stroke-width="2" d="M1256.5784,-215.8314C1232.2905,-206.1162 1202.2078,-194.0831 1176.648,-183.8592"/>
<polygon fill="#c0c0c0" stroke="#c0c0c0" stroke-width="2" points="1177.6796,-180.5023 1167.095,-180.038 1175.0799,-187.0016 1177.6796,-180.5023"/>
</g>
<!-- 22&#45;&gt;24 -->
<g id="edge44" class="edge">
<title>22&#45;&gt;24</title>
<path fill="none" stroke="#c0c0c0" stroke-width="2" d="M1333.7951,-215.8314C1350.0605,-206.5368 1370.0386,-195.1208 1387.4051,-185.1971"/>
<polygon fill="#c0c0c0" stroke="#c0c0c0" stroke-width="2" points="1389.2691,-188.1631 1396.2151,-180.1628 1385.7961,-182.0854 1389.2691,-188.1631"/>
</g>
<!-- 23&#45;&gt;0 -->
<g id="edge17" class="edge">
<title>23&#45;&gt;0</title>
<path fill="none" stroke="#c0c0c0" stroke-width="2" d="M1072.9652,-143.9918C1047.3096,-134.1324 1015.5837,-121.2474 988,-108 958.5812,-93.8713 953.7348,-85.451 924,-72 885.1009,-54.4033 838.6365,-38.812 806.9917,-28.9624"/>
<polygon fill="#c0c0c0" stroke="#c0c0c0" stroke-width="2" points="807.8536,-25.5658 797.2665,-25.971 805.7955,-32.2564 807.8536,-25.5658"/>
</g>
<!-- 25 -->
<g id="node26" class="node">
<title>25</title>
<path fill="none" stroke="#56d87b" stroke-width="2" d="M1129,-108C1129,-108 1009,-108 1009,-108 1003,-108 997,-102 997,-96 997,-96 997,-84 997,-84 997,-78 1003,-72 1009,-72 1009,-72 1129,-72 1129,-72 1135,-72 1141,-78 1141,-84 1141,-84 1141,-96 1141,-96 1141,-102 1135,-108 1129,-108"/>
<text text-anchor="middle" x="1069" y="-87.5" font-family="sans" font-size="10.00" fill="#000000">reads_Length_Distribution</text>
</g>
<!-- 23&#45;&gt;25 -->
<g id="edge45" class="edge">
<title>23&#45;&gt;25</title>
<path fill="none" stroke="#c0c0c0" stroke-width="2" d="M1108.6259,-143.8314C1102.5838,-135.6232 1095.3237,-125.7606 1088.6779,-116.7323"/>
<polygon fill="#c0c0c0" stroke="#c0c0c0" stroke-width="2" points="1091.3011,-114.3918 1082.5542,-108.4133 1085.6637,-118.5415 1091.3011,-114.3918"/>
</g>
<!-- 24&#45;&gt;0 -->
<g id="edge3" class="edge">
<title>24&#45;&gt;0</title>
<path fill="none" stroke="#c0c0c0" stroke-width="2" d="M1429.9361,-143.7034C1431.0065,-122.9707 1429.1074,-89.7613 1409,-72 1363.8041,-32.0775 937.4151,-21.0514 807.4318,-18.6054"/>
<polygon fill="#c0c0c0" stroke="#c0c0c0" stroke-width="2" points="807.2492,-15.1016 797.1871,-18.419 807.1218,-22.1004 807.2492,-15.1016"/>
</g>
<!-- 25&#45;&gt;0 -->
<g id="edge16" class="edge">
<title>25&#45;&gt;0</title>
<path fill="none" stroke="#c0c0c0" stroke-width="2" d="M996.6204,-72.5708C936.7221,-58.1471 854.079,-38.2464 806.9274,-26.8922"/>
<polygon fill="#c0c0c0" stroke="#c0c0c0" stroke-width="2" points="807.6859,-23.4749 797.1444,-24.5364 806.0471,-30.2804 807.6859,-23.4749"/>
</g>
<!-- 26&#45;&gt;0 -->
<g id="edge8" class="edge">
<title>26&#45;&gt;0</title>
<path fill="none" stroke="#c0c0c0" stroke-width="2" d="M551.1572,-81.0267C597.3231,-67.7309 683.7344,-42.8445 733.0358,-28.6457"/>
<polygon fill="#c0c0c0" stroke="#c0c0c0" stroke-width="2" points="734.0309,-32.0014 742.6717,-25.8706 732.0936,-25.2748 734.0309,-32.0014"/>
</g>
<!-- 27 -->
<g id="node28" class="node">
<title>27</title>
<path fill="none" stroke="#567bd8" stroke-width="2" d="M394.5,-252C394.5,-252 335.5,-252 335.5,-252 329.5,-252 323.5,-246 323.5,-240 323.5,-240 323.5,-228 323.5,-228 323.5,-222 329.5,-216 335.5,-216 335.5,-216 394.5,-216 394.5,-216 400.5,-216 406.5,-222 406.5,-228 406.5,-228 406.5,-240 406.5,-240 406.5,-246 400.5,-252 394.5,-252"/>
<text text-anchor="middle" x="365" y="-231.5" font-family="sans" font-size="10.00" fill="#000000">GTDB_NoHITs</text>
</g>
<!-- 27&#45;&gt;26 -->
<g id="edge53" class="edge">
<title>27&#45;&gt;26</title>
<path fill="none" stroke="#c0c0c0" stroke-width="2" d="M384.9906,-215.8125C396.4413,-205.3674 411.0628,-191.9839 424,-180 447.4213,-158.3045 473.8789,-133.4764 493.0786,-115.4009"/>
<polygon fill="#c0c0c0" stroke="#c0c0c0" stroke-width="2" points="495.6951,-117.7445 500.5742,-108.34 490.8953,-112.6492 495.6951,-117.7445"/>
</g>
<!-- 30 -->
<g id="node31" class="node">
<title>30</title>
<path fill="none" stroke="#d8a456" stroke-width="2" d="M403.5,-180C403.5,-180 346.5,-180 346.5,-180 340.5,-180 334.5,-174 334.5,-168 334.5,-168 334.5,-156 334.5,-156 334.5,-150 340.5,-144 346.5,-144 346.5,-144 403.5,-144 403.5,-144 409.5,-144 415.5,-150 415.5,-156 415.5,-156 415.5,-168 415.5,-168 415.5,-174 409.5,-180 403.5,-180"/>
<text text-anchor="middle" x="375" y="-159.5" font-family="sans" font-size="10.00" fill="#000000">vsearchParse</text>
</g>
<!-- 27&#45;&gt;30 -->
<g id="edge59" class="edge">
<title>27&#45;&gt;30</title>
<path fill="none" stroke="#c0c0c0" stroke-width="2" d="M367.5234,-215.8314C368.5929,-208.131 369.8647,-198.9743 371.0532,-190.4166"/>
<polygon fill="#c0c0c0" stroke="#c0c0c0" stroke-width="2" points="374.5336,-190.7997 372.4426,-180.4133 367.6001,-189.8367 374.5336,-190.7997"/>
</g>
<!-- 28&#45;&gt;27 -->
<g id="edge54" class="edge">
<title>28&#45;&gt;27</title>
<path fill="none" stroke="#c0c0c0" stroke-width="2" d="M149.5771,-294.3519C194.2733,-281.83 265.3828,-261.9083 313.5665,-248.4094"/>
<polygon fill="#c0c0c0" stroke="#c0c0c0" stroke-width="2" points="314.7976,-251.6993 323.4826,-245.6313 312.9092,-244.9588 314.7976,-251.6993"/>
</g>
<!-- 29&#45;&gt;0 -->
<g id="edge2" class="edge">
<title>29&#45;&gt;0</title>
<path fill="none" stroke="#c0c0c0" stroke-width="2" d="M359.3235,-291.2776C272.6178,-268.557 136.2981,-219.5162 185,-144 245.2603,-50.5615 613.7001,-25.2891 732.8602,-19.5147"/>
<polygon fill="#c0c0c0" stroke="#c0c0c0" stroke-width="2" points="733.1269,-23.0061 742.9528,-19.0438 732.8006,-16.0137 733.1269,-23.0061"/>
</g>
<!-- 29&#45;&gt;26 -->
<g id="edge47" class="edge">
<title>29&#45;&gt;26</title>
<path fill="none" stroke="#c0c0c0" stroke-width="2" d="M432.9362,-287.9555C449.5612,-250.1556 488.1352,-162.4506 507.8803,-117.5564"/>
<polygon fill="#c0c0c0" stroke="#c0c0c0" stroke-width="2" points="511.1973,-118.708 512.0195,-108.1451 504.7897,-115.8897 511.1973,-118.708"/>
</g>
<!-- 29&#45;&gt;27 -->
<g id="edge55" class="edge">
<title>29&#45;&gt;27</title>
<path fill="none" stroke="#c0c0c0" stroke-width="2" d="M409.8595,-287.8314C402.8783,-279.454 394.4609,-269.3531 386.8124,-260.1749"/>
<polygon fill="#c0c0c0" stroke="#c0c0c0" stroke-width="2" points="389.4351,-257.8548 380.3444,-252.4133 384.0575,-262.3362 389.4351,-257.8548"/>
</g>
<!-- 29&#45;&gt;30 -->
<g id="edge60" class="edge">
<title>29&#45;&gt;30</title>
<path fill="none" stroke="#c0c0c0" stroke-width="2" d="M425.7121,-287.7503C425.8202,-269.0833 424.2496,-239.5604 415,-216 411.0989,-206.0632 404.8764,-196.3311 398.4904,-187.9268"/>
<polygon fill="#c0c0c0" stroke="#c0c0c0" stroke-width="2" points="401.1204,-185.6121 392.1298,-180.0068 395.6626,-189.9953 401.1204,-185.6121"/>
</g>
<!-- 30&#45;&gt;0 -->
<g id="edge6" class="edge">
<title>30&#45;&gt;0</title>
<path fill="none" stroke="#c0c0c0" stroke-width="2" d="M390.4568,-143.9506C409.3637,-123.1279 443.3999,-89.516 480,-72 524.2876,-50.805 664.9202,-31.0663 732.7295,-22.4926"/>
<polygon fill="#c0c0c0" stroke="#c0c0c0" stroke-width="2" points="733.4725,-25.9271 742.9613,-21.2139 732.6044,-18.9811 733.4725,-25.9271"/>
</g>
<!-- 30&#45;&gt;26 -->
<g id="edge51" class="edge">
<title>30&#45;&gt;26</title>
<path fill="none" stroke="#c0c0c0" stroke-width="2" d="M411.5896,-143.8314C432.3449,-133.5253 458.3532,-120.6108 479.6925,-110.0148"/>
<polygon fill="#c0c0c0" stroke="#c0c0c0" stroke-width="2" points="481.4271,-113.0612 488.8271,-105.479 478.3139,-106.7916 481.4271,-113.0612"/>
</g>
</g>
</svg>
